<svg xmlns="http://www.w3.org/2000/svg" width="68" height="66.927" viewBox="0 0 68 66.927">
  <path id="Union_8" data-name="Union 8" d="M1576.286-3217.7c9.15-32.761-17.206-13.727-17.206-13.727-10.614-13.361-1.1-27.271-1.1-27.271,32.029,17.571,17.57-12.811,17.57-12.811,11.489-15.831,24.159-1.647,24.159-1.647-9.334,32.029,18.119,13.543,18.119,13.543,9.518,12.446,0,29.283,0,29.283-29.649-18.668-17.02,13.727-17.02,13.727-4.8,3.371-8.992,4.53-12.49,4.53A16.055,16.055,0,0,1,1576.286-3217.7Z" transform="translate(-1554.06 3279)" fill="#fff"/>
</svg>
