<svg xmlns="http://www.w3.org/2000/svg" width="37.695" height="50" viewBox="0 0 37.695 50">
  <path id="class_job_031" d="M154.03,95.329a14.192,14.192,0,0,0-2.173-1.765L122.932,73.058a4.993,4.993,0,0,0-2.037-1.086q-1.9-.679-3.123,1.494a1.974,1.974,0,0,0,.679,2.852L143.3,94.106l1.222.815a11.6,11.6,0,0,1,3.259,2.58,7.139,7.139,0,0,1-1.358,1.086q-3.8,1.9-4.278,3.734t1.833,5.228q1.086,1.358,2.173,2.58,1.765,1.765-.543,3.667-1.086.951-1.494.815t-1.494-1.9a38.793,38.793,0,0,1-2.309-3.8q-1.086-2.173-3.123-1.086-1.494.815-.407,2.988l2.444,4.889a45,45,0,0,0,3.123,4.617q1.358,1.494,2.173,1.494t2.037-1.494q.951-1.222,2.58-3.667l.815-1.086a16.567,16.567,0,0,0,1.833-3.123,2.518,2.518,0,0,0-.068-1.9,32.847,32.847,0,0,0-2.037-2.716l-2.173-2.309a9.019,9.019,0,0,1-1.562-2.037q-.2-.543.747-1.086a29.437,29.437,0,0,1,3.667-1.494l.272-.136a15.669,15.669,0,0,0,2.309-1.086l.272-.136q1.9-.951,1.9-1.9A4.021,4.021,0,0,0,154.03,95.329ZM139.771,99.4a5.065,5.065,0,0,0-.068-2.988,5.4,5.4,0,0,0-1.969-2.309q-2.716-1.765-8.284-5.7l-7.6-5.3a2.337,2.337,0,0,0-1.494-.543.948.948,0,0,0-1.018.747,3.854,3.854,0,0,0,0,1.765,3.331,3.331,0,0,0,.679,1.562,6.682,6.682,0,0,0,1.019.951l.815.407q8.148,5.7,12.358,8.555l.136.136A20.376,20.376,0,0,1,136.1,98.18a2.38,2.38,0,0,1,.543,2.173,4.958,4.958,0,0,1-.611,1.494,1.779,1.779,0,0,1-1.154.951,1.722,1.722,0,0,1-1.358-.339,1.087,1.087,0,0,1-.543-1.154,3.822,3.822,0,0,0-.543-2.716,5.1,5.1,0,0,0-2.444-1.358,10.576,10.576,0,0,0-.679,3.123q0,.951.136,2.988v.679a2.514,2.514,0,0,0,.951,2.1,3.724,3.724,0,0,0,2.444.2q3.395-.407,4.753-1.765T139.771,99.4Z" transform="translate(-117.421 -71.81)" fill="#fff"/>
</svg>
