<svg xmlns="http://www.w3.org/2000/svg" width="48.756" height="50" viewBox="0 0 48.756 50">
  <path id="class_job_037" d="M136.46,87.4Q134,90.872,131.4,94.344l-.434.868q-1.013,1.3-3.038,3.472l-25.174,24.884a17.059,17.059,0,0,0,7.451,2.315,16.693,16.693,0,0,0,7.668-1.23,14.98,14.98,0,0,0,6.149-4.63,17.173,17.173,0,0,0,3.328-7.017,3.439,3.439,0,0,1,1.23-2.387,2.879,2.879,0,0,1,1.881-.579,3.019,3.019,0,0,1,1.808.868,2.522,2.522,0,0,1,.723,2.242,20.876,20.876,0,0,1-5.064,11.14l.289,1.3a10.649,10.649,0,0,1,.579,2.749,2.247,2.247,0,0,1-.651,2.1,1.861,1.861,0,0,1-1.953.217,12.3,12.3,0,0,1-2.025-1.157q-1.736-1.013-2.025-.723a21.923,21.923,0,0,1-23.872-1.591L91.321,132.1a7.853,7.853,0,0,1-1.519.723,1.111,1.111,0,0,1-.8,0l-.434-.434a1.111,1.111,0,0,1,0-.8,7.854,7.854,0,0,1,.723-1.519l5.064-6.944.579-.868a25.425,25.425,0,0,1,3.038-3.472l22.569-22.425a14.906,14.906,0,0,0-8.174-2.821,16.314,16.314,0,0,0-8.536,1.881,15.853,15.853,0,0,0-6.293,5.932,16.063,16.063,0,0,0-2.315,8.464,4.2,4.2,0,0,1-.579,2.242,2.369,2.369,0,0,1-1.881,1.085,2.54,2.54,0,0,1-2.242-.868,3.483,3.483,0,0,1-.94-2.46A22.006,22.006,0,0,1,105.355,88.7q.434,0,.94-1.808t.8-2.532q.723-1.3,1.591-1.447t1.881,1.157a16.921,16.921,0,0,1,1.447,2.315q.868,1.591,1.157,1.591A21.54,21.54,0,0,1,124.6,92.463a11.1,11.1,0,0,1,2.749-2.17l7.234-4.919a4.17,4.17,0,0,1,2.025-.868.463.463,0,0,1,.434.289l.145.289a1.111,1.111,0,0,1,0,.8A7.852,7.852,0,0,1,136.46,87.4Z" transform="translate(-88.5 -82.9)" fill="#fff"/>
</svg>
