<svg xmlns="http://www.w3.org/2000/svg" width="60" height="60" viewBox="0 -1000 6456.86 6000.14">
  <defs>
    <style>
      .cls-1 {
        fill: #fff;
        fill-rule: evenodd;
      }
    </style>
  </defs>
  <path id="Color_Fill_715" data-name="Color Fill 715" class="cls-1" d="M13051,7541v-2q-4.5-4.005-9-8c-0.3-.67-0.7-1.33-1-2h-2c-2.7-3-5.3-6-8-9h-2q-3-3.495-6-7h-2q-3-3.495-6-7h-2c-1.7-2-3.3-4-5-6h-2c-1.3-1.67-2.7-3.33-4-5h-2c-1.3-1.67-2.7-3.33-4-5h-2c-1-1.33-2-2.67-3-4h-2c-1.3-1.67-2.7-3.33-4-5h-2c-1-1.33-2-2.67-3-4h-2c-1-1.33-2-2.67-3-4h-2c-0.3-.67-0.7-1.33-1-2-1-.33-2-0.67-3-1-1-1.33-2-2.67-3-4h-2c-0.3-.67-0.7-1.33-1-2-1-.33-2-0.67-3-1-1-1.33-2-2.67-3-4h-2c-0.7-1-1.3-2-2-3h-2c-0.7-1-1.3-2-2-3-1-.33-2-0.67-3-1-0.3-.67-0.7-1.33-1-2h-2c-0.3-.67-0.7-1.33-1-2h-2c-0.7-1-1.3-2-2-3h-2c-0.7-1-1.3-2-2-3h-2c-0.7-1-1.3-2-2-3h-2v-1c-1-.33-2-0.67-3-1-0.3-.67-0.7-1.33-1-2h-2c-0.7-1-1.3-2-2-3h-2v-1c-1-.33-2-0.67-3-1-0.3-.67-0.7-1.33-1-2h-2c-0.7-1-1.3-2-2-3h-2c-0.3-.67-0.7-1.33-1-2-1-.33-2-0.67-3-1v-1h-2c-0.3-.67-0.7-1.33-1-2h-2c-0.3-.67-0.7-1.33-1-2h-2c-0.3-.67-0.7-1.33-1-2h-2c-0.3-.67-0.7-1.33-1-2h-2c-0.3-.67-0.7-1.33-1-2h-2c-0.3-.67-0.7-1.33-1-2h-2c-0.3-.67-0.7-1.33-1-2h-2c-0.3-.67-0.7-1.33-1-2h-2c-0.3-.67-0.7-1.33-1-2h-2c-0.3-.67-0.7-1.33-1-2-1.3-.33-2.7-0.67-4-1-0.3-.67-0.7-1.33-1-2h-2c-0.3-.67-0.7-1.33-1-2-1.3-.33-2.7-0.67-4-1-0.3-.67-0.7-1.33-1-2h-2c-0.3-.67-0.7-1.33-1-2-1.3-.33-2.7-0.67-4-1v-1c-1-.33-2-0.67-3-1-0.3-.67-0.7-1.33-1-2h-2v-1h-2c-0.3-.67-0.7-1.33-1-2-1.3-.33-2.7-0.67-4-1-0.3-.67-0.7-1.33-1-2-1.3-.33-2.7-0.67-4-1-0.3-.67-0.7-1.33-1-2-2-.67-4-1.33-6-2-0.3-.67-0.7-1.33-1-2h-2v-1h-2c-0.3-.67-0.7-1.33-1-2-2-.67-4-1.33-6-2-0.3-.67-0.7-1.33-1-2-1.3-.33-2.7-0.67-4-1v-1h-2v-1h-2c-0.3-.67-0.7-1.33-1-2h-2v-1h-2v-1h-2v-1h-2c-0.3-.67-0.7-1.33-1-2-2-.67-4-1.33-6-2l-15-9h-2v-1h-2v-1h-2v-1h-2v-1h-2v-1h-2c-0.3-.67-0.7-1.33-1-2-2-.67-4-1.33-6-2v-1h-2v-1h-2v-1c-2-.67-4-1.33-6-2v-1h-3v-1c-2-.67-4-1.33-6-2v-1h-2v-1h-2v-1h-2v-1h-2v-1h-2v-1h-2v-1h-2v-1h-3v-1h-2v-1h-2v-1c-2-.67-4-1.33-6-2v-1h-3v-1h-2v-1c-2-.67-4-1.33-6-2v-1h-3v-1c-1.3-.33-2.7-0.67-4-1v-1h-3v-1h-2v-1c-1.3-.33-2.7-0.67-4-1v-1h-3v-1c-1.3-.33-2.7-0.67-4-1v-1c-3.3-1-6.7-2-10-3v-1h-2v-1h-3v-1h-2v-1h-3v-1h-2v-1c-1.7-.33-3.3-0.67-5-1v-1h-3v-1h-2v-1c-2-.33-4-0.67-6-1v-1h-2v-1h-3v-1h-2v-1c-2-.33-4-0.67-6-1v-1h-2v-1h-3v-1h-3v-1h-2v-1c-3-.67-6-1.33-9-2v-1h-2v-1h-3v-1h-3v-1h-3v-1h-3v-1h-3c-26.5-11.59-57.9-17.95-86-28-2.7-.33-5.3-0.67-8-1v-1h-3v-1h-4v-1h-4v-1h-4v-1h-4v-1h-3v-1c-3-.33-6-0.67-9-1-10.1-3.45-22.7-5.69-33-9l-10-1c-16.9-5.47-37.7-6.75-55-12-26.7-4-53.3-8-80-12q-13.5-1.005-27-2v-1h-10v-1h-10v-1h-12v-1h-13v-1h-15v-1q-15-.495-30-1h-13c-6.1-1.71-16.3-1-24-1-14.6,0-32.1-1.14-45,1-20.3-.33-40.7-0.67-61-1-12.8,0-34.6-1.93-45,1h-26v1h-17v1h-15v1h-13v1h-12v1h-10v1h-10v1h-10v1h-8v1h-9v1h-8c-10.6,3.08-24.6,2.95-35,6h-7c-7.1,2.13-16.9,2.86-24,5h-6c-7.9,2.41-18.2,3.63-26,6h-6c-17.1,5.27-37.3,7.33-54,13q-10.5,1.995-21,4v1h-3v1h-4v1h-4v1h-4v1c-2.3.33-4.7,0.67-7,1v1c-2.7.33-5.3,0.67-8,1v1c-4.7,1-9.3,2-14,3v1c-2.3.33-4.7,0.67-7,1v1c-2.3.33-4.7,0.67-7,1v1h-3v1h-3v1h-3v1h-4v1h-3v1h-3v1h-3v1h-3v1h-4v1h-3v1h-3v1h-3v1h-3v1h-3v1h-3v1h-3v1c-3,.67-6,1.33-9,2v1h-2v1h-3v1h-3v1h-3v1h-3v1h-2v1c-3,.67-6,1.33-9,2v1h-2v1c-2,.33-4,0.67-6,1v1h-2v1c-2,.33-4,0.67-6,1v1h-2v1c-2,.33-4,0.67-6,1v1h-2v1h-3v1h-2v1c-1.7.33-3.3,0.67-5,1v1h-3v1c-1.7.33-3.3,0.67-5,1v1h-2v1h-3v1c-1.3.33-2.7,0.67-4,1v1h-3v1h-2v1h-3v1c-1.3.33-2.7,0.67-4,1v1h-3v1c-1.3.33-2.7,0.67-4,1v1h-3v1h-2v1c-1.3.33-2.7,0.67-4,1v1h-3v1h-2v1c-1.3.33-2.7,0.67-4,1v1h-3v1h-2v1h-2v1c-2,.67-4,1.33-6,2v1h-3v1c-2,.67-4,1.33-6,2v1h-2v1h-2v1h-2v1h-2v1h-2v1h-2v1h-3v1c-2,.67-4,1.33-6,2v1h-2v1h-2v1h-2v1h-2v1h-2v1h-2v1h-2v1h-2c-0.3.67-.7,1.33-1,2h-2v1h-2v1h-2v1h-2v1h-2v1h-2v1h-2v1h-2v1h-2v1h-2c-0.3.67-.7,1.33-1,2h-2v1h-2v1h-2v1h-2v1h-2c-0.3.67-.7,1.33-1,2h-2v1h-2v1h-2v1h-2v1h-2c-0.3.67-.7,1.33-1,2-2,.67-4,1.33-6,2-0.3.67-.7,1.33-1,2-2,.67-4,1.33-6,2-0.3.67-.7,1.33-1,2-1.3.33-2.7,0.67-4,1-0.3.67-.7,1.33-1,2-2,.67-4,1.33-6,2-0.3.67-.7,1.33-1,2h-2v1h-2c-0.3.67-.7,1.33-1,2-1.3.33-2.7,0.67-4,1-0.3.67-.7,1.33-1,2-1.3.33-2.7,0.67-4,1v1c-1,.33-2,0.67-3,1-0.3.67-.7,1.33-1,2-1.3.33-2.7,0.67-4,1-0.3.67-.7,1.33-1,2-1.3.33-2.7,0.67-4,1v1c-1,.33-2,0.67-3,1-0.3.67-.7,1.33-1,2h-2c-0.3.67-.7,1.33-1,2-1.3.33-2.7,0.67-4,1-0.3.67-.7,1.33-1,2h-2c-0.3.67-.7,1.33-1,2h-2c-0.3.67-.7,1.33-1,2h-2c-0.3.67-.7,1.33-1,2h-2c-0.3.67-.7,1.33-1,2h-2c-0.3.67-.7,1.33-1,2h-2c-0.3.67-.7,1.33-1,2h-2v1c-1,.33-2,0.67-3,1-0.3.67-.7,1.33-1,2h-2c-0.3.67-.7,1.33-1,2h-2c-0.3.67-.7,1.33-1,2h-2v1c-1,.33-2,0.67-3,1-0.3.67-.7,1.33-1,2h-2c-0.7,1-1.3,2-2,3h-2v1c-1,.33-2,0.67-3,1-0.3.67-.7,1.33-1,2h-2c-0.7,1-1.3,2-2,3h-2c-0.3.67-.7,1.33-1,2h-2c-0.3.67-.7,1.33-1,2-1,.33-2,0.67-3,1-0.7,1-1.3,2-2,3h-2c-0.3.67-.7,1.33-1,2h-2c-0.3.67-.7,1.33-1,2-1,.33-2,0.67-3,1-0.7,1-1.3,2-2,3h-2c-0.7,1-1.3,2-2,3h-2c-0.7,1-1.3,2-2,3h-2c-0.7,1-1.3,2-2,3h-2c-1,1.33-2,2.67-3,4-1,.33-2,0.67-3,1-0.3.67-.7,1.33-1,2h-2c-1,1.33-2,2.67-3,4h-2c-0.3.67-.7,1.33-1,2h-1c-0.3.67-.7,1.33-1,2h-2c-1,1.33-2,2.67-3,4h-2c-1,1.33-2,2.67-3,4h-2c-1.3,1.67-2.7,3.33-4,5h-2c-1.3,1.67-2.7,3.33-4,5h-2c-1.3,1.67-2.7,3.33-4,5h-2c-1.7,2-3.3,4-5,6h-2c-1.7,2-3.3,4-5,6h-2c-2.3,2.67-4.7,5.33-7,8h-2c-2.7,3-5.3,6-8,9h-2c-0.3.67-.7,1.33-1,2q-4.5,4.005-9,8v2c3.1,0.71,4.7,2.68,7,4h2c0.3,0.67.7,1.33,1,2,1.3,0.33,2.7.67,4,1,0.3,0.67.7,1.33,1,2,1.3,0.33,2.7.67,4,1,0.3,0.67.7,1.33,1,2,1.3,0.33,2.7.67,4,1v1c1,0.33,2,.67,3,1,0.3,0.67.7,1.33,1,2,1.3,0.33,2.7.67,4,1,0.3,0.67.7,1.33,1,2h2c0.3,0.67.7,1.33,1,2h2c0.3,0.67.7,1.33,1,2h2v1c1,0.33,2,.67,3,1,0.3,0.67.7,1.33,1,2h2c0.3,0.67.7,1.33,1,2h2v1c1,0.33,2,.67,3,1,0.3,0.67.7,1.33,1,2h2c0.7,1,1.3,2,2,3h2v1c1,0.33,2,.67,3,1,0.3,0.67.7,1.33,1,2h2c0.7,1,1.3,2,2,3h2c0.3,0.67.7,1.33,1,2h2c0.7,1,1.3,2,2,3h2c0.7,1,1.3,2,2,3h2c0.7,1,1.3,2,2,3h2c0.7,1,1.3,2,2,3h2c0.3,0.67.7,1.33,1,2h2c1,1.33,2,2.67,3,4h2c0.7,1,1.3,2,2,3h2c0.7,1,1.3,2,2,3h2c1,1.33,2,2.67,3,4h2c0.3,0.67.7,1.33,1,2h1c0.3,0.67.7,1.33,1,2h2c1,1.33,2,2.67,3,4h2c1,1.33,2,2.67,3,4h2c1.3,1.67,2.7,3.33,4,5h2c1.3,1.67,2.7,3.33,4,5h2c1.3,1.67,2.7,3.33,4,5h2c1.7,2,3.3,4,5,6h2c0.7,1,1.3,2,2,3,1.3,1,2.7,2,4,3v1h2c2.3,2.67,4.7,5.33,7,8h2c2.3,2.67,4.7,5.33,7,8,16.9,12.22,30.4,28.42,45,43,14.3,14.27,30,27.47,42,44,3.3,3,6.7,6,10,9v2c2.7,2.33,5.3,4.67,8,7v2c2.3,2,4.7,4,7,6v2c2,1.67,4,3.33,6,5v2c0.7,0.33,1.3.67,2,1v1c1,0.67,2,1.33,3,2v2c2,1.67,4,3.33,6,5v2c0.7,0.33,1.3.67,2,1v1c1,0.67,2,1.33,3,2v2c0.7,0.33,1.3.67,2,1v1c0.7,0.33,1.3.67,2,1v2c1.7,1.33,3.3,2.67,5,4v2c1.3,1,2.7,2,4,3v2c1.3,1,2.7,2,4,3v2c1,0.67,2,1.33,3,2v2c0.7,0.33,1.3.67,2,1v1c0.7,0.33,1.3.67,2,1v2c1.3,1,2.7,2,4,3v2c1,0.67,2,1.33,3,2,0.3,1,.7,2,1,3,0.7,0.33,1.3.67,2,1v2c1,0.67,2,1.33,3,2v2c1,0.67,2,1.33,3,2v2c1,0.67,2,1.33,3,2v2c1,0.67,2,1.33,3,2v2c1,0.67,2,1.33,3,2v2c1,0.67,2,1.33,3,2,0.3,1,.7,2,1,3,0.7,0.33,1.3.67,2,1v2c0.7,0.33,1.3.67,2,1v2c1,0.67,2,1.33,3,2v2c0.7,0.33,1.3.67,2,1v2c1,0.67,2,1.33,3,2v2h1c0.3,1,.7,2,1,3,0.7,0.33,1.3.67,2,1v2c1,0.67,2,1.33,3,2v2c0.7,0.33,1.3.67,2,1v2h1c0.3,1,.7,2,1,3,0.7,0.33,1.3.67,2,1v2c1,0.67,2,1.33,3,2v2c0.7,0.33,1.3.67,2,1,0.3,1,.7,2,1,3h1v2c0.7,0.33,1.3.67,2,1v2c0.7,0.33,1.3.67,2,1v2c0.7,0.33,1.3.67,2,1v2c0.7,0.33,1.3.67,2,1v2c0.7,0.33,1.3.67,2,1,0.3,1.33.7,2.67,1,4,0.7,0.33,1.3.67,2,1v2h1c0.3,1,.7,2,1,3,0.7,0.33,1.3.67,2,1v2c0.7,0.33,1.3.67,2,1,0.3,1,.7,2,1,3h1c0.3,1.33.7,2.67,1,4h1c0.3,1,.7,2,1,3,0.7,0.33,1.3.67,2,1,0.3,1.33.7,2.67,1,4,0.7,0.33,1.3.67,2,1v2c0.7,0.33,1.3.67,2,1,0.3,1.33.7,2.67,1,4,0.7,0.33,1.3.67,2,1,0.3,1.33.7,2.67,1,4h1c0.3,1,.7,2,1,3,0.7,0.33,1.3.67,2,1,0.3,1.33.7,2.67,1,4,0.7,0.33,1.3.67,2,1,0.7,2,1.3,4,2,6,0.7,0.33,1.3.67,2,1,0.3,1.33.7,2.67,1,4,0.7,0.33,1.3.67,2,1,0.3,1.33.7,2.67,1,4,0.7,0.33,1.3.67,2,1,0.7,2,1.3,4,2,6,0.7,0.33,1.3.67,2,1,0.7,2,1.3,4,2,6,0.7,0.33,1.3.67,2,1,0.7,2,1.3,4,2,6,0.7,0.33,1.3.67,2,1v2h1v2h1v2h1v2c0.7,0.33,1.3.67,2,1v2h1v2h1v2h1v2c0.7,0.33,1.3.67,2,1v2h1v2h1v2h1v2h1c0.3,1.33.7,2.67,1,4,0.7,0.33,1.3.67,2,1v2h1v2h1c0.3,1.33.7,2.67,1,4h1v2h1v2h1v2h1v2h1v2h1c0.3,1.33.7,2.67,1,4,0.7,0.33,1.3.67,2,1v2h1v2h1v2h1v2h1v2h1v2h1v2h1v2h1v2h1c0.7,2,1.3,4,2,6h1c0.3,1.67.7,3.33,1,5h1v2h1v2h1v2h1v2h1v2h1v2h1c0.3,1.33.7,2.67,1,4h1v2h1v3h1v2h1v2h1c0.7,2,1.3,4,2,6h1v3h1v2h1c0.7,2,1.3,4,2,6h1v3h1v2h1c0.3,1.33.7,2.67,1,4h1v3h1v2h1c0.3,1.33.7,2.67,1,4h1v3h1c0.3,1.33.7,2.67,1,4h1v3h1c0.3,1.33.7,2.67,1,4h1v3h1v2h1v3h1c0.3,1.33.7,2.67,1,4h1v3h1v2h1v3h1c0.3,1.33.7,2.67,1,4h1v3h1v2h1v3h1v2h1c0.3,1.67.7,3.33,1,5h1c0.3,2,.7,4,1,6h1v2h1v3h1v2h1c0.3,2,.7,4,1,6h1v2h1v3h1v2h1c0.7,3,1.3,6,2,9h1v2h1c0.3,2,.7,4,1,6h1v2h1c0.3,2,.7,4,1,6h1c0.3,2,.7,4,1,6h1v2h1l6,21c8.3,20.81,14.3,44.55,22,66,1.3,6,2.7,12,4,18,7.7,21.27,11.9,46.03,19,68q1.5,8.505,3,17h1v5h1c0.3,3,.7,6,1,9h1v4h1c0.3,3,.7,6,1,9h1c0.3,3,.7,6,1,9h1c0.3,3.33.7,6.67,1,10,4,12.58,5.1,28.29,9,41v6h1v5h1v6c5.2,17.18,4.9,38.62,10,56,0.3,5,.7,10,1,15,3.4,11.71,2.6,27.09,6,39v8h1v9h1v9h1v10h1c0.7,10.67,1.3,21.33,2,32h1v12s0.8,0.07,1,2v11h1v13h1v16h1v17h1c1.6,5.77-.5,14.85,1,20v24h1v35c1.5,5.53,1,14.85,1,22v40c0,9.5,1.2,22.23-1,30v27h-1v19h-1v15h-1v13h-1v11h-1v11h-1v10h-1v9c-3.3,11.49-2.7,26.65-6,38v7c-2.2,7.56-2.8,17.56-5,25v6c-1.9,6.2-3.1,14.87-5,21v5h-1c-0.7,5-1.3,10-2,15-4.3,13.28-6.6,29.01-11,42v4h-1v4h-1v4h-1v4c-7,19.42-11.5,41.25-19,60v3h-1v3h-1v3h-1v3h-1v3h-1v2h-1c-0.3,2-.7,4-1,6h-1c-0.3,2-.7,4-1,6h-1v2h-1c-0.7,3-1.3,6-2,9h-1v2h-1c-0.3,2-.7,4-1,6h-1v2h-1v3h-1v2h-1c-0.3,1.67-.7,3.33-1,5h-1v3h-1v2h-1v3h-1v2h-1v3h-1c-0.3,1.33-.7,2.67-1,4h-1v3h-1v2h-1v3h-1c-0.3,1.33-.7,2.67-1,4h-1v2h-1v3h-1c-0.3,1.33-.7,2.67-1,4h-1v3h-1v2h-1c-0.7,2-1.3,4-2,6h-1v3h-1c-0.3,1.33-.7,2.67-1,4h-1v2h-1v2h-1v2h-1v2h-1v2h-1v3h-1v2h-1c-0.3,1.33-.7,2.67-1,4h-1v2h-1v2h-1v2h-1v2h-1v2h-1v2h-1v2h-1v2h-1v2h-1v2c-0.7.33-1.3,0.67-2,1-0.7,2-1.3,4-2,6h-1v2h-1v2h-1v2h-1c-0.3,1.33-.7,2.67-1,4-0.7.33-1.3,0.67-2,1v2h-1v2h-1v2h-1v2h-1v2c-0.7.33-1.3,0.67-2,1-0.7,2-1.3,4-2,6-0.7.33-1.3,0.67-2,1-0.7,2-1.3,4-2,6-0.7.33-1.3,0.67-2,1-0.7,2-1.3,4-2,6-0.7.33-1.3,0.67-2,1-0.3,1.33-.7,2.67-1,4-0.7.33-1.3,0.67-2,1-0.3,1.33-.7,2.67-1,4-0.7.33-1.3,0.67-2,1-0.3,1.33-.7,2.67-1,4-0.7.33-1.3,0.67-2,1v2h-1v2h-1c-0.3,1-.7,2-1,3-0.7.33-1.3,0.67-2,1-0.3,1.33-.7,2.67-1,4-0.7.33-1.3,0.67-2,1v2c-0.7.33-1.3,0.67-2,1-0.3,1-.7,2-1,3h-1c-0.3,1.33-.7,2.67-1,4-0.7.33-1.3,0.67-2,1v2c-0.7.33-1.3,0.67-2,1v2c-0.7.33-1.3,0.67-2,1v2c-0.7.33-1.3,0.67-2,1v2h-1c-0.3,1-.7,2-1,3-0.7.33-1.3,0.67-2,1v2h-1c-0.3,1-.7,2-1,3-0.7.33-1.3,0.67-2,1v2c-1,.67-2,1.33-3,2v2c-0.7.33-1.3,0.67-2,1v2h-1c-0.3,1-.7,2-1,3-0.7.33-1.3,0.67-2,1v2c-1,.67-2,1.33-3,2v2c-0.7.33-1.3,0.67-2,1v2c-0.7.33-1.3,0.67-2,1-0.3,1-.7,2-1,3-1,.67-2,1.33-3,2v2c-0.7.33-1.3,0.67-2,1v2c-0.7.33-1.3,0.67-2,1-0.3,1-.7,2-1,3-1,.67-2,1.33-3,2v2c-1,.67-2,1.33-3,2v2c-1.3,1-2.7,2-4,3-0.3,1-.7,2-1,3-0.7.33-1.3,0.67-2,1v2c-1.3,1-2.7,2-4,3-0.3,1-.7,2-1,3-0.7.33-1.3,0.67-2,1v2c-0.7.33-1.3,0.67-2,1v1c-0.7.33-1.3,0.67-2,1v2c-1.3,1-2.7,2-4,3v2c-0.7.33-1.3,0.67-2,1-0.7,1-1.3,2-2,3h-1v2c-1.7,1.33-3.3,2.67-5,4v2c-1.7,1.33-3.3,2.67-5,4v2c-2,1.67-4,3.33-6,5v2c-2.3,2-4.7,4-7,6v2c-2.3,2-4.7,4-7,6v2c-3.3,3-6.7,6-10,9v2q-7.5,7.005-15,14c-7,9.61-15.7,16.75-24,25-4.7,5-9.3,10-14,15h-2v1c-1.3,1-2.7,2-4,3q-4.5,4.995-9,10h-2c-3.3,3.67-6.7,7.33-10,11h-2v1c-1.3,1-2.7,2-4,3-1,1.33-2,2.67-3,4h-2q-3,3.495-6,7h-2v1c-1,.67-2,1.33-3,2-0.7,1-1.3,2-2,3h-2c-0.3.67-.7,1.33-1,2-1,.67-2,1.33-3,2v1h-2c-1.3,1.67-2.7,3.33-4,5h-2c-0.3.67-.7,1.33-1,2-1,.67-2,1.33-3,2v1h-2c-1.3,1.67-2.7,3.33-4,5h-2c-1,1.33-2,2.67-3,4h-2c-1,1.33-2,2.67-3,4h-2c-1,1.33-2,2.67-3,4h-2c-0.7,1-1.3,2-2,3h-2c-1,1.33-2,2.67-3,4h-2c-0.7,1-1.3,2-2,3-1,.33-2,0.67-3,1-0.3.67-.7,1.33-1,2h-2c-0.7,1-1.3,2-2,3h-2c-0.7,1-1.3,2-2,3h-2c-0.7,1-1.3,2-2,3h-2c-0.7,1-1.3,2-2,3h-2c-0.7,1-1.3,2-2,3-1,.33-2,0.67-3,1-0.3.67-.7,1.33-1,2h-2c-0.3.67-.7,1.33-1,2h-2c-0.7,1-1.3,2-2,3h-2c-0.3.67-.7,1.33-1,2h-2c-0.7,1-1.3,2-2,3h-2c-0.3.67-.7,1.33-1,2h-2c-0.7,1-1.3,2-2,3h-2c-0.3.67-.7,1.33-1,2h-2v1c-1,.33-2,0.67-3,1-0.3.67-.7,1.33-1,2h-2c-0.7,1-1.3,2-2,3h-2c-0.3.67-.7,1.33-1,2-1,.33-2,0.67-3,1v1h-2c-0.3.67-.7,1.33-1,2h-2c-0.3.67-.7,1.33-1,2h-2c-0.3.67-.7,1.33-1,2h-2c-0.3.67-.7,1.33-1,2h-2c-0.3.67-.7,1.33-1,2h-2c-0.3.67-.7,1.33-1,2-1.3.33-2.7,0.67-4,1-0.3.67-.7,1.33-1,2h-2c-0.3.67-.7,1.33-1,2h-2c-0.3.67-.7,1.33-1,2h-2c-0.3.67-.7,1.33-1,2-1.3.33-2.7,0.67-4,1v1c-1,.33-2,0.67-3,1-0.3.67-.7,1.33-1,2h-2c-0.3.67-.7,1.33-1,2-1.3.33-2.7,0.67-4,1-0.3.67-.7,1.33-1,2-1.3.33-2.7,0.67-4,1v1c-1,.33-2,0.67-3,1-0.3.67-.7,1.33-1,2h-2v1h-2c-0.3.67-.7,1.33-1,2-1.3.33-2.7,0.67-4,1-0.3.67-.7,1.33-1,2-1.3.33-2.7,0.67-4,1-0.3.67-.7,1.33-1,2-1.3.33-2.7,0.67-4,1-0.3.67-.7,1.33-1,2-2,.67-4,1.33-6,2-0.3.67-.7,1.33-1,2h-2v1h-2c-0.3.67-.7,1.33-1,2-2,.67-4,1.33-6,2-0.3.67-.7,1.33-1,2-2,.67-4,1.33-6,2-0.3.67-.7,1.33-1,2h-2v1h-2v1h-2v1h-2c-0.3.67-.7,1.33-1,2h-2v1h-2v1h-2v1h-2c-0.3.67-.7,1.3-1,2h-2v1h-2v1h-2v1h-2v1h-2c-0.3.7-.7,1.3-1,2-5.3,2.3-10.7,4.7-16,7-0.3.7-.7,1.3-1,2h-2v1h-2v1h-2v1h-2v1c-2,.7-4,1.3-6,2v1c-1.3.3-2.7,0.7-4,1v1c-1.3.3-2.7,0.7-4,1v1h-2v1h-2v1h-2v1h-2v1c-2,.7-4,1.3-6,2v1h-2v1h-2v1h-2v1h-2v1h-2v1c-1.3.3-2.7,0.7-4,1v1h-2v1h-3v1c-1.3.3-2.7,0.7-4,1v1h-2v1h-2v1c-2,.7-4,1.3-6,2v1h-3v1h-2v1h-2v1c-2,.7-4,1.3-6,2v1l-9,3v1h-2v1h-3v1h-2v1c-1.3.3-2.7,0.7-4,1v1h-3v1c-1.3.3-2.7,0.7-4,1v1h-3v1c-1.3.3-2.7,0.7-4,1v1h-3v1c-1.3.3-2.7,0.7-4,1v1h-3v1c-1.3.3-2.7,0.7-4,1v1h-3v1c-1.3.3-2.7,0.7-4,1v1h-3v1h-2v1h-3v1h-2v1h-3v1h-2v1h-3v1c-1.3.3-2.7,0.7-4,1v1h-3v1h-2v1c-2,.3-4,0.7-6,1v1c-1.7.3-3.3,0.7-5,1v1h-2v1h-3v1h-2v1c-2,.3-4,0.7-6,1v1h-2v1h-3v1h-2v1c-2,.3-4,0.7-6,1v1h-2v1c-2,.3-4,0.7-6,1v1h-3v1h-2v1h-3v1h-3v1h-2v1h-3v1h-3v1h-3v1h-3v1h-3v1h-2v1c-6,1.7-12,3.3-18,5-10.4,4.2-22.6,7.9-33,12-3,.7-6,1.3-9,2v1c-5.7,1.3-11.3,2.7-17,4v1h-3v1h-3v1h-3v1c-3.3.7-6.7,1.3-10,2v1c-2.3.3-4.7,0.7-7,1v1c-4.7,1-9.3,2-14,3v1c-4.7,1-9.3,2-14,3v1h-4c-4.5,1.5-10.5,3.4-15,5h-4c-21.1,7.6-46.3,11-68,18h-5v1c-3,.3-6,0.7-9,1v1h-4v1h-5v1h-4v1h-5v1h-5v1c-3,.3-6,0.7-9,1v1h-5c-5.9,1.9-14.1,3.2-20,5h-6c-15.3,4.7-34.6,5.4-50,10h-7v1h-6v1h-6v1h-7v1h-7v1c-9.7,1-19.3,2-29,3-12.2,3.5-28.6,2.5-41,6h-10v1c-7,.3-14,0.7-21,1v1h-12v1h-10c-6.7.3-13.3,0.7-20,1v1h-21c-10.2,2.8-28.7,1-41,1-6.8,0-15.8.5-21-1-10-.3-20-0.7-30-1v-1h-12v-1h-10v-1h-9v-1h-9v-1h-8v-1h-8c-10.3-3-23.8-3-34-6-6.3-.7-12.7-1.3-19-2-13.7-4.1-30.6-4.9-44-9h-6v-1h-5v-1h-5v-1h-5v-1h-4v-1h-5v-1h-5v-1h-5c-19-6.2-41.32-8.6-60-15-6.67-1.3-13.33-2.7-20-4-10.17-3.7-22.88-6.4-33-10-2.33-.3-4.67-0.7-7-1v-1c-2.33-.3-4.67-0.7-7-1v-1l-14-3v-1h-4v-1h-3v-1h-3v-1h-4v-1c-3.33-.7-6.67-1.3-10-2v-1l-13-3v-1h-3v-1h-3v-1h-3v-1h-3v-1c-2-.3-4-0.7-6-1v-1h-4c-35.24-12.8-72.48-24.3-106-39-2-.3-4-0.7-6-1v-1h-2v-1h-3v-1h-2v-1c-1.67-.3-3.33-0.7-5-1v-1h-3v-1h-2v-1h-3v-1h-2v-1h-3c-40.85-18.4-83.46-35.3-122-56h-2v-1h-2v-1h-2v-1h-2v-1c-2-.7-4-1.3-6-2v-1c-1.33-.3-2.67-0.7-4-1v-1c-1.33-.3-2.67-0.7-4-1v-1h-2v-1h-2v-1h-2v-1h-2v-1h-2v-1h-2v-1h-2v-1h-2v-1h-2c-0.33-.7-0.67-1.3-1-2-5.33-2.3-10.67-4.7-16-7-0.33-.7-0.67-1.3-1-2h-2v-1h-2v-1h-2v-1h-2v-1h-2c-0.33-.7-0.67-1.3-1-2h-2v-1h-2v-1h-2v-1h-2c-0.33-.67-0.67-1.33-1-2h-2v-1h-2v-1h-2v-1h-2c-0.33-.67-0.67-1.33-1-2-2-.67-4-1.33-6-2-0.33-.67-0.67-1.33-1-2h-2v-1h-2v-1h-2c-0.33-.67-0.67-1.33-1-2-2-.67-4-1.33-6-2-0.33-.67-0.67-1.33-1-2-1.33-.33-2.67-0.67-4-1-0.33-.67-0.67-1.33-1-2-1.33-.33-2.67-0.67-4-1-0.33-.67-0.67-1.33-1-2-1.33-.33-2.67-0.67-4-1-0.33-.67-0.67-1.33-1-2-2-.67-4-1.33-6-2v-1c-1-.33-2-0.67-3-1-0.33-.67-0.67-1.33-1-2-1.33-.33-2.67-0.67-4-1-0.33-.67-0.67-1.33-1-2-1.33-.33-2.67-0.67-4-1-0.33-.67-0.67-1.33-1-2h-2c-0.33-.67-0.67-1.33-1-2-1.33-.33-2.67-0.67-4-1v-1c-1-.33-2-0.67-3-1-0.33-.67-0.67-1.33-1-2-1.33-.33-2.67-0.67-4-1-0.33-.67-0.67-1.33-1-2h-2c-0.33-.67-0.67-1.33-1-2h-2c-0.33-.67-0.67-1.33-1-2-1.33-.33-2.67-0.67-4-1-0.33-.67-0.67-1.33-1-2h-2c-0.33-.67-0.67-1.33-1-2h-2c-0.33-.67-0.67-1.33-1-2h-2v-1c-1-.33-2-0.67-3-1-0.33-.67-0.67-1.33-1-2h-2c-0.33-.67-0.67-1.33-1-2h-2c-0.33-.67-0.67-1.33-1-2h-2c-0.33-.67-0.67-1.33-1-2h-2c-0.33-.67-0.67-1.33-1-2h-2c-0.33-.67-0.67-1.33-1-2h-2c-0.33-.67-0.67-1.33-1-2h-2v-1c-1-.33-2-0.67-3-1-0.33-.67-0.67-1.33-1-2h-2c-0.67-1-1.33-2-2-3h-2v-1c-1-.33-2-0.67-3-1-0.33-.67-0.67-1.33-1-2h-2c-0.67-1-1.33-2-2-3h-2v-1c-1-.33-2-0.67-3-1-0.33-.67-0.67-1.33-1-2h-2c-0.67-1-1.33-2-2-3h-2c-0.33-.67-0.67-1.33-1-2h-2c-0.67-1-1.33-2-2-3h-2c-0.67-1-1.33-2-2-3h-2c-0.67-1-1.33-2-2-3h-2c-0.33-.67-0.67-1.33-1-2h-2c-0.67-1-1.33-2-2-3h-2c-0.67-1-1.33-2-2-3h-2c-0.67-1-1.33-2-2-3h-2c-1-1.33-2-2.67-3-4h-2c-0.67-1-1.33-2-2-3h-2c-0.67-1-1.33-2-2-3h-2c-1-1.33-2-2.67-3-4-1-.33-2-0.67-3-1-0.33-.67-0.67-1.33-1-2h-2c-1-1.33-2-2.67-3-4h-2c-0.33-.67-0.67-1.33-1-2h-1c-0.33-.67-0.67-1.33-1-2h-2c-1-1.33-2-2.67-3-4h-2c-0.33-.67-0.67-1.33-1-2-1-.67-2-1.33-3-2v-1h-2c-1.33-1.67-2.67-3.33-4-5h-2c-1.33-1.67-2.67-3.33-4-5h-2c-1.33-1.67-2.67-3.33-4-5h-2c-1.67-2-3.33-4-5-6h-2q-3-3.495-6-7h-2q-3-3.495-6-7h-2q-4.005-4.5-8-9h-2q-4.995-5.505-10-11h-2q-10.5-10.995-21-22h-2q-4.5-4.995-9-10-4.995-4.5-10-9v-2c-0.67-.33-1.33-0.67-2-1v-1q-9-8.505-18-17v-2c-0.67-.33-1.33-0.67-2-1v-1q-4.995-4.5-10-9v-2q-4.005-3.495-8-7v-2c-1-.67-2-1.33-3-2-1-1.33-2-2.67-3-4h-1v-2q-3.495-3-7-6v-2c-1-.67-2-1.33-3-2v-1c-0.67-.33-1.33-0.67-2-1v-2c-2-1.67-4-3.33-6-5v-2c-1.33-1-2.67-2-4-3v-2c-1.67-1.33-3.33-2.67-5-4v-2c-1.33-1-2.67-2-4-3v-2c-1.33-1-2.67-2-4-3v-2c-0.67-.33-1.33-0.67-2-1v-1c-0.67-.33-1.33-0.67-2-1v-2c-0.67-.33-1.33-0.67-2-1-0.33-1-.67-2-1-3-1.33-1-2.67-2-4-3v-2c-1-.67-2-1.33-3-2v-2c-1-.67-2-1.33-3-2v-2c-1-.67-2-1.33-3-2v-2c-1-.67-2-1.33-3-2-0.33-1-.67-2-1-3-0.67-.33-1.33-0.67-2-1v-2c-0.67-.33-1.33-0.67-2-1v-2c-0.67-.33-1.33-0.67-2-1-0.33-1-.67-2-1-3-1-.67-2-1.33-3-2v-2h-1c-0.33-1-.67-2-1-3-0.67-.33-1.33-0.67-2-1v-2c-1-.67-2-1.33-3-2v-2h-1c-0.33-1-.67-2-1-3-0.67-.33-1.33-0.67-2-1v-2c-1-.67-2-1.33-3-2v-2c-0.67-.33-1.33-0.67-2-1-0.33-1-.67-2-1-3h-1v-2c-0.67-.33-1.33-0.67-2-1v-2c-0.67-.33-1.33-0.67-2-1v-2c-0.67-.33-1.33-0.67-2-1v-2c-0.67-.33-1.33-0.67-2-1v-2c-0.67-.33-1.33-0.67-2-1-0.33-1.33-.67-2.67-1-4-0.67-.33-1.33-0.67-2-1v-2c-0.67-.33-1.33-0.67-2-1v-2c-0.67-.33-1.33-0.67-2-1v-2c-0.67-.33-1.33-0.67-2-1-0.33-1.33-.67-2.67-1-4h-1c-0.33-1-.67-2-1-3-0.67-.33-1.33-0.67-2-1v-2h-1v-2c-0.67-.33-1.33-0.67-2-1-0.33-1.33-.67-2.67-1-4-0.67-.33-1.33-0.67-2-1-0.33-1.33-.67-2.67-1-4-0.67-.33-1.33-0.67-2-1-0.33-1.33-.67-2.67-1-4-0.67-.33-1.33-0.67-2-1-0.33-1.33-.67-2.67-1-4-0.67-.33-1.33-0.67-2-1-0.67-2-1.33-4-2-6-0.67-.33-1.33-0.67-2-1-0.67-2-1.33-4-2-6-0.67-.33-1.33-0.67-2-1v-2h-1v-2h-1v-2h-1v-2c-0.67-.33-1.33-0.67-2-1v-2h-1v-2h-1v-2h-1v-2h-1v-2c-0.67-.33-1.33-0.67-2-1v-2h-1v-2h-1v-2h-1v-2h-1v-2h-1v-2h-1v-2h-1c-0.33-1.33-.67-2.67-1-4-0.67-.33-1.33-0.67-2-1v-2h-1v-2h-1v-2h-1v-2h-1v-2h-1v-2h-1v-2h-1c-0.67-2-1.33-4-2-6h-1v-3h-1c-0.33-1.33-.67-2.67-1-4h-1v-2h-1v-2h-1v-2h-1c-0.67-2-1.33-4-2-6h-1v-3h-1v-2h-1c-0.67-2-1.33-4-2-6h-1v-3h-1v-2h-1c-0.33-1.33-.67-2.67-1-4h-1v-3h-1c-0.33-1.33-.67-2.67-1-4h-1v-3h-1c-0.33-1.33-.67-2.67-1-4h-1v-3h-1v-2h-1v-3h-1c-0.33-1.33-.67-2.67-1-4h-1v-3h-1v-2h-1v-3h-1v-2h-1c-0.33-1.67-.67-3.33-1-5h-1c-0.33-2-.67-4-1-6h-1v-2h-1v-3h-1v-2h-1c-0.33-2-.67-4-1-6h-1v-2h-1q-13.5-41.49-27-83-10.005-40.995-20-82v-5h-1v-5h-1v-5h-1v-5h-1v-6c-3.88-12.74-4.13-28.94-8-42q-0.495-6.495-1-13h-1q-0.495-7.995-1-16c-2.98-10.37-2-24.44-5-35v-11h-1v-12h-1q-0.495-9-1-18v-10c-1.37-4.87.54-13.5-1-19-2.04-7.28.44-18.29-1-27-1.42-8.56-1-20.83-1-31,0-13.25-2.05-36.18,1-47v-28h1v-11q0.495-13.005,1-26h1q1.5-24.495,3-49c3.88-13.51,2.15-31.6,6-45q0.495-7.995,1-16c2.44-8.35,2.56-19.65,5-28v-7c2.2-7.41,2.8-17.64,5-25v-6h1v-6h1v-6h1v-5h1v-6c4.88-15.92,6-35.44,11-51q1.005-7.5,2-15h1c0.33-3,.67-6,1-9h1v-4h1c0.33-3,.67-6,1-9h1q1.005-6.495,2-13h1v-5h1q2.505-12,5-24c2.07-6.03,3.94-13.97,6-20,0.33-2.67.67-5.33,1-8,5.59-16.3,9.26-35.05,15-51v-4h1v-3h1c0.33-2.33.67-4.67,1-7h1c0.33-2.33.67-4.67,1-7h1v-4c11.19-30.71,19.08-64.13,31-94,0.33-2,.67-4,1-6h1v-3h1v-3h1v-3h1v-3h1v-3h1v-3h1c0.33-2,.67-4,1-6h1v-2h1c0.33-2,.67-4,1-6h1c0.33-2,.67-4,1-6h1v-2h1v-3h1c0.67-3,1.33-6,2-9h1v-2h1c0.67-3,1.33-6,2-9h1v-2h1c0.33-2,.67-4,1-6h1v-3h1v-2h1v-3h1v-3h1v-2h1c0.33-2,.67-4,1-6h1v-2h1c0.33-2,.67-4,1-6h1v-2h1v-3h1v-2h1c0.33-2,.67-4,1-6h1v-2h1v-3h1v-2h1c0.33-2,.67-4,1-6h1v-2h1v-3h1v-2h1v-3h1v-2h1c0.33-1.67.67-3.33,1-5h1v-3h1v-2h1v-3h1v-2h1v-3h1v-2h1v-3h1v-2h1v-3h1c0.33-1.67.67-3.33,1-5h1v-2h1v-3h1c0.33-1.33.67-2.67,1-4h1v-3h1v-2h1v-3h1c0.33-1.67.67-3.33,1-5h1c0.33-1.33.67-2.67,1-4h1v-3h1c0.33-1.33.67-2.67,1-4h1v-3h1v-2h1v-3h1c0.33-1.33.67-2.67,1-4h1v-3h1c0.33-1.33.67-2.67,1-4h1v-3h1c0.33-1.33.67-2.67,1-4h1v-3h1c0.33-1.33.67-2.67,1-4h1v-3h1c0.33-1.33.67-2.67,1-4h1v-3h1v-2h1c0.33-1.33.67-2.67,1-4h1v-3h1c0.33-1.33.67-2.67,1-4h1v-3h1v-2h1v-2h1v-2h1v-3h1v-2h1c0.67-2,1.33-4,2-6h1v-3h1v-2h1c0.33-1.33.67-2.67,1-4h1v-3h1v-2h1c0.67-2,1.33-4,2-6h1v-3h1v-2h1v-2h1c0.67-2,1.33-4,2-6h1v-3h1v-2h1v-2h1c0.67-2,1.33-4,2-6h1v-3h1v-2h1v-2h1v-2h1c0.67-2,1.33-4,2-6h1v-3h1v-2h1c0.33-1.33.67-2.67,1-4h1c0.33-2,.67-4,1-6h1c0.33-1.33.67-2.67,1-4h1v-2h1v-3h1c0.67-2,1.33-4,2-6h1c0.33-1.33.67-2.67,1-4,0.67-.33,1.33-0.67,2-1,0.67-2,1.33-4,2-6,0.67-.33,1.33-0.67,2-1,0.33-1.33.67-2.67,1-4h1c0.33-1,.67-2,1-3,0.67-.33,1.33-0.67,2-1v-2h1c0.33-1,.67-2,1-3,0.67-.33,1.33-0.67,2-1v-2c1-.67,2-1.33,3-2v-2c0.67-.33,1.33-0.67,2-1v-2c1.33-1,2.67-2,4-3v-2c1.33-1,2.67-2,4-3v-2c1.67-1.33,3.33-2.67,5-4v-2q4.005-3.495,8-7,8.505-9,17-18h2c1.33-1.67,2.67-3.33,4-5h2c0.33-.67.67-1.33,1-2h1c0.33-.67.67-1.33,1-2h2c1-1.33,2-2.67,3-4h2c0.33-.67.67-1.33,1-2h2c0.67-1,1.33-2,2-3h2c0.33-.67.67-1.33,1-2h2c0.33-.67.67-1.33,1-2,1-.33,2-0.67,3-1v-1c1.33-.33,2.67-0.67,4-1,0.33-.67.67-1.33,1-2,1-.33,2-0.67,3-1v-1c2-.67,4-1.33,6-2,0.33-.67.67-1.33,1-2h2v-1h2v-1h2v-1h2v-1h2v-1h2v-1h2v-1c2-.67,4-1.33,6-2v-1c1.67-.33,3.33-0.67,5-1v-1h2v-1h3v-1h2v-1c2-.33,4-0.67,6-1v-1h2v-1c3-.67,6-1.33,9-2v-1h4v-1h3v-1h4v-1h4v-1h4v-1h4v-1h5v-1h5v-1h7v-1q8.505-.495,17-1c6.1-1.69,16.26-1,24-1,18.24-.01,35.05.66,49,5,3.33,0.33,6.67.67,10,1v1h4v1h4v1h3v1h4v1h3v1h3v1h3v1h3v1c2,0.33,4,.67,6,1v1h2v1h3v1h2v1h3v1c2,0.67,4,1.33,6,2v1h2v1l9,3c0.33,0.67.67,1.33,1,2h2v1h2v1h2v1h2v1h2c0.33,0.67.67,1.33,1,2,1.33,0.33,2.67.67,4,1,0.33,0.67.67,1.33,1,2,1.33,0.33,2.67.67,4,1v1c1,0.33,2,.67,3,1,0.33,0.67.67,1.33,1,2h2c0.67,1,1.33,2,2,3h2c0.33,0.67.67,1.33,1,2h2c0.67,1,1.33,2,2,3h2c0.67,1,1.33,2,2,3h2c1,1.33,2,2.67,3,4h2c1.33,1.67,2.67,3.33,4,5h2q6.495,7.005,13,14,6,5.505,12,11v2c1.67,1.33,3.33,2.67,5,4v2c0.67,0.33,1.33.67,2,1v1c0.67,0.33,1.33.67,2,1v2c1,0.67,2,1.33,3,2,0.33,1,.67,2,1,3,0.67,0.33,1.33.67,2,1v2c0.67,0.33,1.33.67,2,1v2c1,0.67,2,1.33,3,2v2c0.67,0.33,1.33.67,2,1,0.33,1.33.67,2.67,1,4h1c0.33,1,.67,2,1,3,0.67,0.33,1.33.67,2,1,0.33,1.33.67,2.67,1,4,0.67,0.33,1.33.67,2,1v2h1v2h1v2h1v2h1v2h1v2h1v2h1v2h1v2h1v2h1c0.33,1.33.67,2.67,1,4h1v2h1v3h1c0.33,1.33.67,2.67,1,4h1v3h1v3h1v2h1c0.67,3,1.33,6,2,9h1q1.5,7.005,3,14c5.5,15.62,8.99,37.27,9,58,0,9.78,1.28,22.95-1,31v11h-1v7h-1v7h-1v5h-1v5h-1v5h-1v4h-1v4h-1v4h-1c-0.33,2.33-.67,4.67-1,7h-1v3h-1v3h-1v3h-1v3h-1v2h-1c-0.33,2-.67,4-1,6h-1c-0.33,1.33-.67,2.67-1,4h-1v3h-1c-0.67,2-1.33,4-2,6h-1v2h-1v2h-1v2h-1v2h-1v2h-1v2c-0.67.33-1.33,0.67-2,1v2h-1v2h-1v2h-1v2c-0.67.33-1.33,0.67-2,1v2h-1v2h-1c-0.33,1-.67,2-1,3-0.67.33-1.33,0.67-2,1-0.33,1.33-.67,2.67-1,4-1,.67-2,1.33-3,2v2c-0.67.33-1.33,0.67-2,1v2c-0.67.33-1.33,0.67-2,1-0.33,1-.67,2-1,3h-1c-0.33,1.33-.67,2.67-1,4-0.67.33-1.33,0.67-2,1-0.33,1.33-.67,2.67-1,4h-1v2h-1v2h-1v2h-1v2h-1v2h-1c-0.33,1.33-.67,2.67-1,4h-1c-0.67,2-1.33,4-2,6h-1v3h-1c-0.67,2-1.33,4-2,6h-1v2h-1v2h-1v2h-1v2h-1v2h-1v2h-1v3h-1v2h-1c-0.67,2-1.33,4-2,6h-1v3h-1v2h-1c-0.67,2-1.33,4-2,6h-1v3h-1v2h-1c-0.33,1.33-.67,2.67-1,4h-1v3h-1v2h-1c-0.33,1.33-.67,2.67-1,4h-1v3h-1c-0.33,1.33-.67,2.67-1,4h-1v3h-1c-0.33,1.33-.67,2.67-1,4h-1v3h-1v2h-1v3h-1c-0.33,1.33-.67,2.67-1,4h-1v3h-1v2h-1v3h-1c-0.33,1.33-.67,2.67-1,4h-1v3h-1v2h-1v3h-1v2h-1c-0.33,1.67-.67,3.33-1,5h-1v3h-1v2h-1c-0.33,2-.67,4-1,6h-1v2h-1v3h-1v2h-1v3h-1v2h-1c-0.33,2-.67,4-1,6h-1v2h-1c-0.33,2-.67,4-1,6h-1v2h-1c-0.33,2-.67,4-1,6h-1v2h-1v3h-1c-0.67,3-1.33,6-2,9-13.09,29.94-21.61,64.48-33,96v4h-1v3h-1v4h-1v3h-1v3h-1c-0.33,2.33-.67,4.67-1,7h-1q-1.005,5.505-2,11h-1c-0.33,2.33-.67,4.67-1,7h-1q-1.005,6-2,12c-4.75,13.22-7.63,29.43-12,43l-3,18c-5.79,17.88-7.46,39.73-13,58q-1.5,11.505-3,23c-3.53,11.79-3.53,27.01-7,39v8h-1v7h-1q-0.495,8.505-1,17h-1v9h-1v9h-1v11h-1v12h-1q-0.495,9-1,18v10c-1.44,5.16.61,14.21-1,20-2.01,7.23-1,19.08-1,28q0.495,39.99,1,80h1v14h1v12h1v10h1v10q4.995,33.495,10,67c4.4,14.34,6.29,31.18,11,45q1.005,6,2,12c5.32,14.75,9.32,31.75,15,46v3h1v3h1v3h1v3h1v2h1c0.33,2,.67,4,1,6h1v2h1c0.33,2,.67,4,1,6h1v2h1v3h1v2h1c0.33,1.67.67,3.33,1,5h1v3h1v2h1v3h1c0.33,1.33.67,2.67,1,4h1v3h1c0.33,1.33.67,2.67,1,4h1v3h1v2h1c0.67,2,1.33,4,2,6h1v3h1v2h1c0.33,1.33.67,2.67,1,4h1c0.33,1.33.67,2.67,1,4h1v2h1v2h1v2h1v2h1v2h1q3.495,7.995,7,16c0.67,0.33,1.33.67,2,1v2h1v2h1c0.67,2,1.33,4,2,6,0.67,0.33,1.33.67,2,1,0.67,2,1.33,4,2,6,0.67,0.33,1.33.67,2,1,0.33,1.33.67,2.67,1,4,0.67,0.33,1.33.67,2,1,0.33,1.33.67,2.67,1,4,0.67,0.33,1.33.67,2,1,0.33,1.33.67,2.67,1,4,0.67,0.33,1.33.67,2,1,0.33,1.33.67,2.67,1,4,0.67,0.33,1.33.67,2,1v2c0.67,0.33,1.33.67,2,1v2c0.67,0.33,1.33.67,2,1,0.33,1.33.67,2.67,1,4h1c0.33,1,.67,2,1,3,0.67,0.33,1.33.67,2,1v2h1c0.33,1,.67,2,1,3,0.67,0.33,1.33.67,2,1v2c1,0.67,2,1.33,3,2v2h1c0.33,1,.67,2,1,3,0.67,0.33,1.33.67,2,1v2c1,0.67,2,1.33,3,2v2c0.67,0.33,1.33.67,2,1v2c1,0.67,2,1.33,3,2v2c1,0.67,2,1.33,3,2v2c1,0.67,2,1.33,3,2v2c1,0.67,2,1.33,3,2v2c1.33,1,2.67,2,4,3v2c1.33,1,2.67,2,4,3v2c1.33,1,2.67,2,4,3v2c1.67,1.33,3.33,2.67,5,4v2c1.67,1.33,3.33,2.67,5,4v2q3.495,3,7,6v2q4.005,3.495,8,7v2q12,11.505,24,23c15.05,15.04,29.51,30.38,47,43,1.33,1.67,2.67,3.33,4,5h2c0.33,0.67.67,1.33,1,2h1c0.33,0.67.67,1.33,1,2h2c1,1.33,2,2.67,3,4h2c1,1.33,2,2.67,3,4h2c0.33,0.67.67,1.33,1,2,1,0.33,2,.67,3,1,1,1.33,2,2.67,3,4h2c0.67,1,1.33,2,2,3h2c0.67,1,1.33,2,2,3h2c0.33,0.67.67,1.33,1,2h2c0.67,1,1.33,2,2,3h2c0.67,1,1.33,2,2,3h2v1c1,0.33,2,.67,3,1,0.33,0.67.67,1.33,1,2h2c0.67,1,1.33,2,2,3h2c0.33,0.67.67,1.33,1,2,1,0.33,2,.67,3,1v1h2c0.33,0.67.67,1.33,1,2h2c0.33,0.67.67,1.33,1,2h2c0.33,0.67.67,1.33,1,2h2c0.33,0.67.67,1.33,1,2h2c0.33,0.67.67,1.33,1,2h2c0.33,0.67.67,1.33,1,2h2c0.33,0.67.67,1.33,1,2h2v1h2c0.33,0.67.67,1.33,1,2h2c0.33,0.67.67,1.33,1,2,1.33,0.33,2.67.67,4,1v1c1,0.33,2,.67,3,1,0.33,0.67.67,1.33,1,2,1.33,0.33,2.67.67,4,1,0.33,0.67.67,1.33,1,2,1.33,0.33,2.67.67,4,1,0.33,0.67.67,1.33,1,2,1.33,0.33,2.67.67,4,1,0.33,0.67.67,1.33,1,2,2,0.67,4,1.33,6,2,0.33,0.67.67,1.33,1,2,2,0.67,4,1.33,6,2,0.33,0.67.67,1.33,1,2h2v1h2v1h2v1h2c0.33,0.67.67,1.33,1,2h2v1h2v1h2v1h2v1h2v1h2v1h2c0.33,0.67.67,1.33,1,2h2v1h2v1h2v1h2v1h2v1h2v1h2v1c1.33,0.33,2.67.67,4,1v1c1.33,0.33,2.67.67,4,1v1h2v1h2v1h2v1h2v1c1.33,0.33,2.67.67,4,1v1h2v1h3v1h2v1h2v1h2v1c2,0.67,4,1.33,6,2v1h3v1h2v1c1.33,0.33,2.67.67,4,1v1h3v1h2v1c1.33,0.33,2.67.67,4,1v1h3v1c1.33,0.33,2.67.67,4,1v1h3v1c1.33,0.33,2.67.67,4,1v1h3v1h2v1h3v1c1.33,0.33,2.67.67,4,1v1h3v1h2v1c1.67,0.33,3.33.67,5,1v1h3v1h2v1c2,0.33,4,.67,6,1v1h2v1h3v1h2v1c2,0.33,4,.67,6,1v1h2v1c3,0.67,6,1.33,9,2v1h2v1h3v1h3v1h3v1h3v1h3v1h2v1c3,0.67,6,1.33,9,2v1h3v1h3v1h3v1h3v1h3v1h3v1h4v1h3v1h3v1h3v1h3v1h4v1h3v1h3v1c3.33,0.67,6.7,1.33,10,2v1c2.3,0.33,4.7.67,7,1v1c4.7,1,9.3,2,14,3v1c3.7,0.67,7.3,1.33,11,2v1c6.7,1.33,13.3,2.67,20,4v1h3v1h5v1h4c4.7,1.61,11.3,3.4,16,5h4v1h5c11,3.57,24.8,5.49,36,9l10,1c16.3,5.12,36.4,5.97,53,11q6,0.495,12,1c15.9,4.77,35.9,4.3,52,9h7v1h8v1l23,2v1h8v1h9v1h9v1h11v1h11v1h14v1h17v1h27c7.7,2.13,38.3,2.15,46,0h13c9.7-.33,19.3-0.67,29-1v-1h13v-1h11c10.1-2.92,24-2.09,34-5h7c9.2-2.71,21.1-3.29,30-6,3.7-.33,7.3-0.67,11-1v-1h5v-1h5v-1c3-.33,6-0.67,9-1v-1h4v-1h5c21-6.84,44.2-11.11,64-19h3v-1h3v-1h3v-1h3v-1h3v-1h2v-1c3-.67,6-1.33,9-2v-1h2v-1c2-.33,4-0.67,6-1v-1h2v-1c2-.33,4-0.67,6-1v-1h2v-1h3v-1h2v-1c3.3-1,6.7-2,10-3v-1c1.3-.33,2.7-0.67,4-1v-1h3v-1h2v-1c1.3-.33,2.7-0.67,4-1v-1h3v-1h2v-1c2-.67,4-1.33,6-2v-1h3v-1h2v-1c1.3-.33,2.7-0.67,4-1v-1c1.3-.33,2.7-0.67,4-1v-1h2v-1h2v-1h2v-1h2v-1h2v-1h2v-1h2v-1h2v-1h2v-1h2v-1h2c0.3-.67.7-1.33,1-2h2v-1h2v-1h2v-1h2v-1h2c0.3-.67.7-1.33,1-2h2v-1h2v-1h2v-1h2c0.3-.67.7-1.33,1-2,1.3-.33,2.7-0.67,4-1,0.3-.67.7-1.33,1-2,1.3-.33,2.7-0.67,4-1,0.3-.67.7-1.33,1-2,1.3-.33,2.7-0.67,4-1,0.3-.67.7-1.33,1-2,1.3-.33,2.7-0.67,4-1,0.3-.67.7-1.33,1-2,1.3-.33,2.7-0.67,4-1,0.3-.67.7-1.33,1-2h2c0.3-.67.7-1.33,1-2h2c0.3-.67.7-1.33,1-2,1.3-.33,2.7-0.67,4-1v-1c1-.33,2-0.67,3-1,0.3-.67.7-1.33,1-2h2v-1c1-.33,2-0.67,3-1,0.3-.67.7-1.33,1-2h2c0.7-1,1.3-2,2-3h2c0.3-.67.7-1.33,1-2h2v-1c1-.33,2-0.67,3-1,0.3-.67.7-1.33,1-2h2c0.3-.67.7-1.33,1-2,1-.33,2-0.67,3-1,0.7-1,1.3-2,2-3h2c0.3-.67.7-1.33,1-2h2c0.7-1,1.3-2,2-3h2c0.7-1,1.3-2,2-3h2c1-1.33,2-2.67,3-4h2c0.7-1,1.3-2,2-3h2c1-1.33,2-2.67,3-4h2c1-1.33,2-2.67,3-4h2c1.3-1.67,2.7-3.33,4-5h2c1.3-1.67,2.7-3.33,4-5h2c1.7-2,3.3-4,5-6,13.4-9.7,24.5-21.46,36-33,7.9-7.93,16.3-14.75,23-24,3.7-3.33,7.3-6.67,11-10v-2c2.3-2,4.7-4,7-6v-2c2.3-2,4.7-4,7-6v-2c1.7-1.33,3.3-2.67,5-4v-2c1.7-1.33,3.3-2.67,5-4v-2c1.3-1,2.7-2,4-3v-2c0.7-.33,1.3-0.67,2-1v-1c0.7-.33,1.3-0.67,2-1v-2c0.7-.33,1.3-0.67,2-1,0.3-1,.7-2,1-3,1.3-1,2.7-2,4-3v-2c1-.67,2-1.33,3-2v-2c1-.67,2-1.33,3-2v-2c1-.67,2-1.33,3-2,0.3-1,.7-2,1-3,0.7-.33,1.3-0.67,2-1v-2c0.7-.33,1.3-0.67,2-1v-2c1-.67,2-1.33,3-2v-2c0.7-.33,1.3-0.67,2-1v-2c1-.67,2-1.33,3-2v-2c0.7-.33,1.3-0.67,2-1v-2h1c0.3-1,.7-2,1-3,0.7-.33,1.3-0.67,2-1v-2c1-.67,2-1.33,3-2v-2c0.7-.33,1.3-0.67,2-1v-2c0.7-.33,1.3-0.67,2-1,0.3-1.33.7-2.67,1-4,0.7-.33,1.3-0.67,2-1v-2h1c0.3-1,.7-2,1-3,0.7-.33,1.3-0.67,2-1v-2c0.7-.33,1.3-0.67,2-1,0.3-1,.7-2,1-3h1c0.3-1.33.7-2.67,1-4,0.7-.33,1.3-0.67,2-1,0.3-1.33.7-2.67,1-4,0.7-.33,1.3-0.67,2-1,0.3-1.33.7-2.67,1-4,0.7-.33,1.3-0.67,2-1,0.3-1,.7-2,1-3h1c0.7-2,1.3-4,2-6,0.7-.33,1.3-0.67,2-1,0.3-1.33.7-2.67,1-4,0.7-.33,1.3-0.67,2-1,0.7-2,1.3-4,2-6,0.7-.33,1.3-0.67,2-1v-2h1v-2h1v-2h1v-2h1v-2c0.7-.33,1.3-0.67,2-1v-2h1v-2h1v-2h1v-2h1c0.3-1.33.7-2.67,1-4,0.7-.33,1.3-0.67,2-1,0.3-1.33.7-2.67,1-4h1v-2h1v-2h1v-2h1v-2h1c0.3-1.33.7-2.67,1-4h1c0.3-1.33.7-2.67,1-4h1v-2h1v-2h1v-2h1v-2h1c0.7-2,1.3-4,2-6h1v-3h1v-2h1v-2h1c0.7-2,1.3-4,2-6h1v-3h1v-2h1c0.3-1.33.7-2.67,1-4h1v-3h1v-2h1c0.3-1.33.7-2.67,1-4h1v-3h1c0.3-1.33.7-2.67,1-4h1v-3h1v-2h1v-3h1c0.3-1.33.7-2.67,1-4h1v-3h1v-2h1c0.3-1.67.7-3.33,1-5h1c0.3-2,.7-4,1-6h1v-2h1v-3h1v-2h1c0.3-2,.7-4,1-6h1v-2h1c0.7-3,1.3-6,2-9h1v-2h1v-3h1v-3h1v-3h1v-3h1v-3h1v-3h1v-3h1v-3h1v-3h1c0.3-2,.7-4,1-6h1c0.3-2,.7-4,1-6h1v-4h1v-3h1v-3h1v-3h1c0.3-2.33.7-4.67,1-7h1c0.3-2.33.7-4.67,1-7h1c0.3-2.33.7-4.67,1-7h1c0.3-2.67.7-5.33,1-8,3.8-10.66,6.5-24.03,10-35,0.3-3,.7-6,1-9,5.1-14.99,6.3-33.48,11-49,0.3-4,.7-8,1-12,3.5-11.76,3.5-27,7-39v-7h1v-8h1v-9h1v-8h1v-10h1v-11h1v-11h1c0.7-16,1.3-32,2-48h1v-31c2.2-7.92,2.2-41.1,0-49v-32h-1v-19h-1v-16h-1v-13h-1v-12h-1c-0.7-10-1.3-20-2-30h-1v-8h-1v-9c-3.7-12.79-3.3-29.39-7-42-0.3-4.33-.7-8.67-1-13-5.3-27-10.7-54-16-81-4.1-12.53-6.6-27.84-11-40-0.7-4-1.3-8-2-12h-1v-3h-1c-0.7-3.67-1.3-7.33-2-11h-1c-0.3-2.33-.7-4.67-1-7h-1c-0.3-2.33-.7-4.67-1-7h-1v-4c-10.7-29.36-18.9-61.25-31-89-0.3-2-.7-4-1-6h-1v-2h-1v-3h-1v-3h-1v-2h-1v-3h-1v-2h-1c-0.3-2-.7-4-1-6h-1v-2h-1v-3h-1v-2h-1v-3h-1c-0.3-1.33-.7-2.67-1-4h-1c-0.3-1.67-.7-3.33-1-5h-1v-3h-1v-2h-1v-3h-1c-0.3-1.33-.7-2.67-1-4h-1v-3h-1c-0.3-1.33-.7-2.67-1-4h-1v-3h-1v-2h-1c-0.3-1.33-.7-2.67-1-4h-1v-3h-1v-2h-1c-0.3-1.33-.7-2.67-1-4h-1v-3h-1v-2h-1v-2h-1v-2h-1v-3h-1v-2h-1v-2h-1v-2h-1c-0.7-2-1.3-4-2-6h-1v-3h-1c-0.3-1.33-.7-2.67-1-4h-1c-0.7-2-1.3-4-2-6h-1c-0.3-1.33-.7-2.67-1-4h-1c-0.3-1.33-.7-2.67-1-4h-1v-2h-1v-2h-1v-2h-1v-2h-1c-0.7-2-1.3-4-2-6h-1c-0.3-1.33-.7-2.67-1-4h-1c-0.3-1.33-.7-2.67-1-4h-1v-2h-1v-2h-1v-2h-1v-2h-1v-2h-1c-0.7-2-1.3-4-2-6-0.7-.33-1.3-0.67-2-1v-2h-1v-2h-1v-2h-1v-2h-1c-0.3-1.33-.7-2.67-1-4-0.7-.33-1.3-0.67-2-1v-2h-1v-2h-1v-2h-1v-2h-1v-2c-0.7-.33-1.3-0.67-2-1-0.7-2-1.3-4-2-6-0.7-.33-1.3-0.67-2-1-0.7-2-1.3-4-2-6-0.7-.33-1.3-0.67-2-1-0.7-2-1.3-4-2-6-0.7-.33-1.3-0.67-2-1-0.7-2-1.3-4-2-6-0.7-.33-1.3-0.67-2-1-0.3-1.33-.7-2.67-1-4-0.7-.33-1.3-0.67-2-1-0.3-1.33-.7-2.67-1-4-0.7-.33-1.3-0.67-2-1-0.3-1.33-.7-2.67-1-4-0.7-.33-1.3-0.67-2-1-0.3-1.33-.7-2.67-1-4-0.7-.33-1.3-0.67-2-1v-2h-1v-2h-1c-0.3-1-.7-2-1-3-0.7-.33-1.3-0.67-2-1v-2h-1v-2c-0.7-.33-1.3-0.67-2-1v-2c-0.7-.33-1.3-0.67-2-1-0.3-1.33-.7-2.67-1-4-0.7-.33-1.3-0.67-2-1v-2c-0.7-.33-1.3-0.67-2-1-0.3-1-.7-2-1-3h-1c-0.3-1.33-.7-2.67-1-4-0.7-.33-1.3-0.67-2-1v-2c-0.7-.33-1.3-0.67-2-1v-2c-0.7-.33-1.3-0.67-2-1v-2c-0.7-.33-1.3-0.67-2-1v-2c-0.7-.33-1.3-0.67-2-1v-2h-1c-0.3-1-.7-2-1-3-0.7-.33-1.3-0.67-2-1v-2c-0.7-.33-1.3-0.67-2-1v-2h-1c-0.3-1-.7-2-1-3-0.7-.33-1.3-0.67-2-1v-2c-1-.67-2-1.33-3-2v-2c-0.7-.33-1.3-0.67-2-1v-2h-1c-0.3-1-.7-2-1-3-0.7-.33-1.3-0.67-2-1v-2c-1-.67-2-1.33-3-2v-2c-0.7-.33-1.3-0.67-2-1v-2c-1-.67-2-1.33-3-2v-2c-0.7-.33-1.3-0.67-2-1v-2c-0.7-.33-1.3-0.67-2-1-0.3-1-.7-2-1-3-1-.67-2-1.33-3-2v-2c-0.7-.33-1.3-0.67-2-1v-2c-0.7-.33-1.3-0.67-2-1-0.3-1-.7-2-1-3-1-.67-2-1.33-3-2v-2c-1-.67-2-1.33-3-2v-2c-1-.67-2-1.33-3-2v-2c-1-.67-2-1.33-3-2v-2c-1.3-1-2.7-2-4-3-0.3-1-.7-2-1-3-0.7-.33-1.3-0.67-2-1v-2c-1.3-1-2.7-2-4-3-0.3-1-.7-2-1-3-0.7-.33-1.3-0.67-2-1v-2c-1.3-1-2.7-2-4-3v-2c-1.3-1-2.7-2-4-3v-2c-1.3-1-2.7-2-4-3v-2c-0.7-.33-1.3-0.67-2-1-0.7-1-1.3-2-2-3h-1v-2c-1.7-1.33-3.3-2.67-5-4v-2c-1.7-1.33-3.3-2.67-5-4v-2c-1.7-1.33-3.3-2.67-5-4v-2c-2.3-2-4.7-4-7-6v-2c-2-1.67-4-3.33-6-5v-2c-2.7-2.33-5.3-4.67-8-7v-2q-4.5-4.005-9-8v-2q-6-5.505-12-11c-5.1-7.02-11-12.96-17-19-2-1.67-4-3.33-6-5v-2q-4.5-4.005-9-8-4.5-4.995-9-10h-2c-1.7-2-3.3-4-5-6-5.7-5.71-11.3-11.19-18-16q-4.5-4.995-9-10c-2.7-2.64-6.3-4.32-9-7-1.3-1.67-2.7-3.33-4-5h-2c-2.3-2.67-4.7-5.33-7-8h-2q-3-3.495-6-7h-2c-1.3-1.67-2.7-3.33-4-5h-2c-1.7-2-3.3-4-5-6h-2c-0.3-.67-0.7-1.33-1-2-1-.67-2-1.33-3-2v-1h-2c-1.3-1.67-2.7-3.33-4-5h-2c-1.3-1.67-2.7-3.33-4-5h-2c-1-1.33-2-2.67-3-4h-2c-1-1.33-2-2.67-3-4h-2c-1-1.33-2-2.67-3-4h-2c-1-1.33-2-2.67-3-4h-2c-0.7-1-1.3-2-2-3h-2c-1-1.33-2-2.67-3-4h-2c-0.7-1-1.3-2-2-3-1-.33-2-0.67-3-1-0.3-.67-0.7-1.33-1-2h-2c-0.7-1-1.3-2-2-3h-2c-0.7-1-1.3-2-2-3h-2c-0.7-1-1.3-2-2-3h-2c-0.7-1-1.3-2-2-3h-2c-0.7-1-1.3-2-2-3-1-.33-2-0.67-3-1-0.3-.67-0.7-1.33-1-2h-2c-0.3-.67-0.7-1.33-1-2h-2c-0.7-1-1.3-2-2-3h-2c-0.3-.67-0.7-1.33-1-2h-2c-0.7-1-1.3-2-2-3h-2c-0.3-.67-0.7-1.33-1-2h-2c-0.7-1-1.3-2-2-3h-2v-1c-1-.33-2-0.67-3-1-0.3-.67-0.7-1.33-1-2h-2c-0.7-1-1.3-2-2-3h-2c-0.3-.67-0.7-1.33-1-2-1-.33-2-0.67-3-1v-1h-2c-0.3-.67-0.7-1.33-1-2h-2c-0.3-.67-0.7-1.33-1-2h-2c-0.3-.67-0.7-1.33-1-2h-2c-0.3-.67-0.7-1.33-1-2h-2c-0.3-.67-0.7-1.33-1-2h-2c-0.3-.67-0.7-1.33-1-2h-2c-0.3-.67-0.7-1.33-1-2h-2c-0.3-.67-0.7-1.33-1-2h-2c-0.3-.67-0.7-1.33-1-2-1.3-.33-2.7-0.67-4-1-0.3-.67-0.7-1.33-1-2h-2c-0.3-.67-0.7-1.33-1-2h-2c-0.3-.67-0.7-1.33-1-2h-2c-0.3-.67-0.7-1.33-1-2-1.3-.33-2.7-0.67-4-1v-1c-1-.33-2-0.67-3-1-0.3-.67-0.7-1.33-1-2h-2v-1h-2c-0.3-.67-0.7-1.33-1-2-1.3-.33-2.7-0.67-4-1v-1c-1-.33-2-0.67-3-1-0.3-.67-0.7-1.33-1-2h-2v-1h-2c-0.3-.67-0.7-1.33-1-2-1.3-.33-2.7-0.67-4-1-0.3-.67-0.7-1.33-1-2-1.3-.33-2.7-0.67-4-1-0.3-.67-0.7-1.33-1-2-2-.67-4-1.33-6-2-0.3-.67-0.7-1.33-1-2h-2v-1h-2c-0.3-.67-0.7-1.33-1-2-2-.67-4-1.33-6-2-0.3-.67-0.7-1.33-1-2h-2v-1h-2v-1h-2c-0.3-.67-0.7-1.33-1-2-2-.67-4-1.33-6-2-0.3-.67-0.7-1.33-1-2h-2v-1h-2v-1h-2v-1h-2c-0.3-.67-0.7-1.33-1-2-2-.67-4-1.33-6-2v-1c-2-.67-4-1.33-6-2-0.3-.67-0.7-1.33-1-2h-2v-1h-2v-1h-2v-1h-2v-1h-2v-1h-2v-1h-2c-0.3-.67-0.7-1.33-1-2-2-.67-4-1.33-6-2v-1c-1.3-.33-2.7-0.67-4-1v-1c-1.3-.33-2.7-0.67-4-1v-1c-1.3-.33-2.7-0.67-4-1v-1h-2v-1h-2v-1h-2v-1h-2v-1c-2-.67-4-1.33-6-2v-1h-2v-1h-2v-1h-2v-1h-2v-1c-2-.67-4-1.33-6-2v-1h-3v-1c-1.3-.33-2.7-0.67-4-1v-1h-2v-1h-2v-1c-2-.67-4-1.33-6-2v-1h-3v-1h-2v-1h-2v-1c-2-.67-4-1.33-6-2v-1h-3v-1h-2v-1c-1.3-.33-2.7-0.67-4-1v-1h-3v-1h-2v-1c-1.3-.33-2.7-0.67-4-1v-1h-3v-1c-1.3-.33-2.7-0.67-4-1v-1h-3v-1c-1.3-.33-2.7-0.67-4-1v-1h-3v-1c-1.3-.33-2.7-0.67-4-1v-1h-3v-1c-1.3-.33-2.7-0.67-4-1v-1h-3v-1h-2v-1h-3v-1h-2v-1c-1.7-.33-3.3-0.67-5-1v-1h-3v-1h-2v-1h-3v-1h-2v-1h-3v-1h-2v-1h-3v-1h-2v-1c-2-.33-4-0.67-6-1v-1h-2v-1c-1.7-.33-3.3-0.67-5-1v-1c-2-.33-4-0.67-6-1v-1h-2v-1c-2-.33-4-0.67-6-1v-1h-2v-1h-3v-1h-3v-1h-3v-1h-3v-1h-2v-1h-3v-1h-3v-1h-3v-1h-3v-1h-3v-1h-2v-1q-9-2.505-18-5c-21.4-8.55-45.9-14.07-68-22h-4v-1h-3v-1c-2.3-.33-4.7-0.67-7-1v-1h-4v-1h-4c-9.2-3.31-20.6-5.8-30-9-2.7-.33-5.3-0.67-8-1v-1c-16.3-3.67-32.7-7.33-49-11,0.8-1.13-.1-0.15,1-1,1-1.33,2-2.67,3-4h2c1.3-1.67,2.7-3.33,4-5h2c1.3-1.67,2.7-3.33,4-5h2c1-1.33,2-2.67,3-4h2c1-1.33,2-2.67,3-4h2c1-1.33,2-2.67,3-4h2c1-1.33,2-2.67,3-4h2c1-1.33,2-2.67,3-4h2c1-1.33,2-2.67,3-4h2c0.3-.67.7-1.33,1-2,1-.33,2-0.67,3-1,1-1.33,2-2.67,3-4h2c0.7-1,1.3-2,2-3h2c0.7-1,1.3-2,2-3h2c0.7-1,1.3-2,2-3h2c1-1.33,2-2.67,3-4,1-.33,2-0.67,3-1,0.3-.67.7-1.33,1-2h2c0.7-1,1.3-2,2-3h2c0.7-1,1.3-2,2-3h2c0.7-1,1.3-2,2-3h2c0.7-1,1.3-2,2-3h2c0.3-.67.7-1.33,1-2h2c0.7-1,1.3-2,2-3h2c0.7-1,1.3-2,2-3h2c0.7-1,1.3-2,2-3h2c0.3-.67.7-1.33,1-2h2c0.3-.67.7-1.33,1-2,1-.33,2-0.67,3-1,0.7-1,1.3-2,2-3h2c0.3-.67.7-1.33,1-2h2c0.7-1,1.3-2,2-3h2c0.3-.67.7-1.33,1-2h2c0.7-1,1.3-2,2-3h2c0.3-.67.7-1.33,1-2h2c0.7-1,1.3-2,2-3h2v-1c1-.33,2-0.67,3-1,0.3-.67.7-1.33,1-2h2c0.7-1,1.3-2,2-3h2v-1c1-.33,2-0.67,3-1,0.3-.67.7-1.33,1-2h2c0.7-1,1.3-2,2-3h2c0.3-.67.7-1.33,1-2h2v-1c1-.33,2-0.67,3-1,0.3-.67.7-1.33,1-2h2c0.7-1,1.3-2,2-3h2c0.3-.67.7-1.33,1-2,1-.33,2-0.67,3-1v-1h2c0.3-.67.7-1.33,1-2h2c0.3-.67.7-1.33,1-2h2c0.3-.67.7-1.33,1-2h2v-1c1-.33,2-0.67,3-1,0.3-.67.7-1.33,1-2h2c0.7-1,1.3-2,2-3h2c0.3-.67.7-1.33,1-2,1-.33,2-0.67,3-1v-1h2c0.3-.67.7-1.33,1-2h2c0.3-.67.7-1.33,1-2h2c0.3-.67.7-1.33,1-2h2c0.3-.67.7-1.33,1-2h2c0.3-.67.7-1.33,1-2h2c0.3-.67.7-1.33,1-2,1.3-.33,2.7-0.67,4-1,0.3-.67.7-1.33,1-2h2c0.3-.67.7-1.33,1-2h2c0.3-.67.7-1.33,1-2h2v-1c1-.33,2-0.67,3-1,0.3-.67.7-1.33,1-2h2c0.3-.67.7-1.33,1-2,1-.33,2-0.67,3-1v-1c1.3-.33,2.7-0.67,4-1,0.3-.67.7-1.33,1-2h2c0.3-.67.7-1.33,1-2h2c0.3-.67.7-1.33,1-2h2c0.3-.67.7-1.33,1-2,1.3-.33,2.7-0.67,4-1,0.3-.67.7-1.33,1-2h2c0.3-.67.7-1.33,1-2h2c0.3-.67.7-1.33,1-2h2v-1h2c0.3-.67.7-1.33,1-2h2c0.3-.67.7-1.33,1-2,1.3-.33,2.7-0.67,4-1v-1c1-.33,2-0.67,3-1,0.3-.67.7-1.33,1-2,1.3-.33,2.7-0.67,4-1v-1c1-.33,2-0.67,3-1,0.3-.67.7-1.33,1-2,1.3-.33,2.7-0.67,4-1v-1c1-.33,2-0.67,3-1,0.3-.67.7-1.33,1-2h2v-1h2c0.3-.67.7-1.33,1-2,1.3-.33,2.7-0.67,4-1v-1c1-.33,2-0.67,3-1,0.3-.67.7-1.33,1-2h2v-1h2c0.3-.67.7-1.33,1-2,1.3-.33,2.7-0.67,4-1,0.3-.67.7-1.33,1-2,1.3-.33,2.7-0.67,4-1,0.3-.67.7-1.33,1-2,1.3-.33,2.7-0.67,4-1,0.3-.67.7-1.33,1-2,1.3-.33,2.7-0.67,4-1,0.3-.67.7-1.33,1-2,1.3-.33,2.7-0.67,4-1,0.3-.67.7-1.33,1-2,1.3-.33,2.7-0.67,4-1,0.3-.67.7-1.33,1-2h2v-1h2c0.3-.67.7-1.33,1-2,1.3-.33,2.7-0.67,4-1,0.3-.67.7-1.33,1-2,2-.67,4-1.33,6-2,0.3-.67.7-1.33,1-2,1.3-.33,2.7-0.67,4-1,0.3-.67.7-1.33,1-2,1.3-.33,2.7-0.67,4-1,0.3-.67.7-1.33,1-2,2-.67,4-1.33,6-2,0.3-.67.7-1.33,1-2,2-.67,4-1.33,6-2,0.3-.67.7-1.33,1-2h2v-1h2c0.3-.67.7-1.33,1-2,2-.67,4-1.33,6-2,0.3-.67.7-1.33,1-2h2v-1h2v-1h2v-1h2c0.3-.67.7-1.33,1-2,2-.67,4-1.33,6-2,0.3-.67.7-1.33,1-2,2-.67,4-1.33,6-2,0.3-.67.7-1.33,1-2,1.3-.33,2.7-0.67,4-1v-1h2v-1h2c0.3-.67.7-1.33,1-2h2v-1h2v-1h2v-1h2c0.3-.67.7-1.33,1-2h2v-1h2v-1h2v-1h2c0.3-.67.7-1.33,1-2h2v-1h2v-1h2v-1h2v-1h2c0.3-.67.7-1.33,1-2h2v-1h2v-1h2v-1h2v-1h2c0.3-.67.7-1.33,1-2h2v-1h2v-1h2v-1h2v-1h2v-1c1.3-.33,2.7-0.67,4-1,0.3-.67.7-1.33,1-2h2v-1h2v-1h2v-1h2v-1h2v-1c1.3-.33,2.7-0.67,4-1,0.3-.67.7-1.33,1-2,1.3-.33,2.7-0.67,4-1v-1h2v-1h2v-1h2v-1h2v-1c1.3-.33,2.7-0.67,4-1v-1h2v-1h2v-1h2v-1h2c0.3-.67.7-1.33,1-2h2v-1h2v-1h2v-1h2v-1h2v-1c2-.67,4-1.33,6-2v-1c2-.67,4-1.33,6-2v-1c1.3-.33,2.7-0.67,4-1v-1c1.3-.33,2.7-0.67,4-1v-1h2v-1h2v-1h2v-1h2v-1h2v-1h2v-1h2v-1h2v-1c2-.67,4-1.33,6-2v-1c1.3-.33,2.7-0.67,4-1v-1c1.3-.33,2.7-0.67,4-1v-1h2v-1h2v-1h2v-1h2v-1h2v-1c2-.67,4-1.33,6-2v-1c2-.67,4-1.33,6-2v-1h3v-1c2-.67,4-1.33,6-2v-1h2v-1h2v-1h2v-1h2v-1h2v-1h2v-1h2v-1h2v-1h3v-1c1.3-.33,2.7-0.67,4-1v-1h2v-1h2v-1c2-.67,4-1.33,6-2v-1h3v-1h2v-1h2v-1c2-.67,4-1.33,6-2v-1h3v-1h2v-1h2v-1c2-.67,4-1.33,6-2v-1c1.7-.33,3.3-0.67,5-1v-1c2-.67,4-1.33,6-2v-1h3v-1h2v-1c1.3-.33,2.7-0.67,4-1v-1h3v-1h2v-1c2-.67,4-1.33,6-2v-1h3v-1c1.3-.33,2.7-0.67,4-1v-1h3v-1h2v-1c1.3-.33,2.7-0.67,4-1v-1h3v-1h2v-1h2v-1h2v-1h3v-1c1.3-.33,2.7-0.67,4-1v-1h3v-1c1.3-.33,2.7-0.67,4-1v-1h3v-1c1.3-.33,2.7-0.67,4-1v-1h3v-1c1.3-.33,2.7-0.67,4-1v-1h3v-1c1.3-.33,2.7-0.67,4-1v-1h3v-1h2v-1h3v-1c1.3-.33,2.7-0.67,4-1v-1h3v-1h2v-1h3v-1c1.3-.33,2.7-0.67,4-1v-1h3v-1h2v-1c1.7-.33,3.3-0.67,5-1v-1h3v-1c1.3-.33,2.7-0.67,4-1v-1h3v-1h2v-1h3v-1h2v-1c1.7-.33,3.3-0.67,5-1v-1h3v-1h2v-1h3v-1h2v-1h3v-1h2v-1h3v-1h2v-1h3v-1h2v-1c2-.33,4-0.67,6-1v-1c1.7-.33,3.3-0.67,5-1v-1h2v-1h3v-1h2v-1c2-.33,4-0.67,6-1v-1h2v-1h3v-1h2v-1c2-.33,4-0.67,6-1v-1h2v-1c2-.33,4-0.67,6-1v-1h2v-1c2-.33,4-0.67,6-1v-1h2v-1c2-.33,4-0.67,6-1v-1h2v-1c3-.67,6-1.33,9-2v-1h2v-1c3-.67,6-1.33,9-2v-1h2v-1c3-.67,6-1.33,9-2v-1h2v-1c2-.33,4-0.67,6-1,4.4-1.74,9.6-4.26,14-6h3v-1h3v-1h3v-1h3v-1h2v-1c2-.33,4-0.67,6-1v-1h3v-1h3v-1h3v-1h3v-1h3v-1h3v-1c3-.67,6-1.33,9-2,22.5-8.99,48-15.7,71-24h4v-1h3v-1h3v-1c4.3-1,8.7-2,13-3v-1c2.3-.33,4.7-0.67,7-1v-1h4c19.5-7.09,42.3-11.93,62-19,2.7-.33,5.3-0.67,8-1v-1h3v-1h4v-1h4v-1c2.3-.33,4.7-0.67,7-1v-1q6-1.005,12-2v-1h3v-1h4v-1h4v-1h4v-1h4v-1c2.7-.33,5.3-0.67,8-1v-1q6-1.005,12-2c12.7-4.34,28.1-6.86,41-11l18-3c18.4-5.96,40.4-8.04,59-14q15-2.505,30-5c16.3-5.14,36.5-6,53-11h6v-1h5v-1h6v-1h6c7.1-2.15,16.9-2.87,24-5h6c7.4-2.22,17.6-2.84,25-5,4.7-.33,9.3-0.67,14-1,15.2-4.47,34.7-3.58,50-8,5.3-.33,10.7-0.67,16-1,12.6-3.64,29.3-2.39,42-6h10v-1h9v-1c6.7-.33,13.3-0.67,20-1v-1h10v-1h11v-1h12v-1h11v-1h13v-1h13v-1c9.7-.33,19.3-0.67,29-1v-1h17v-1h18s0.1-.83,2-1h19v-1h25v-1h34c8.9-2.49,23.3-1,34-1h106v1h4c9.6,0.22,22.1-1.21,30,1h25v1h20v1h19v1h17v1h15v1h14v1h13s0.1,0.83,2,1h11v1h11v1c7.3,0.33,14.7.67,22,1v1h11v1h10v1h10c13.2,3.79,30.8,2.24,44,6l40,4c6.5,1.88,15.6,2.14,22,4h7c5.8,1.71,14.3,2.32,20,4h7v1l13,1c14.8,4.46,33.4,4.58,48,9q6,0.495,12,1c13.2,4.05,29.9,4.9,43,9,3.7,0.33,7.3.67,11,1,10.6,3.25,23.5,4.72,34,8l10,1v1h4v1h5v1h5v1h4v1l10,1v1h4v1h5v1h4v1h4v1h5v1c4.3,0.67,8.7,1.33,13,2,19.4,6.3,42.1,9.23,61,16,2.7,0.33,5.3.67,8,1,8.4,2.87,18.7,5.18,27,8,2.7,0.33,5.3.67,8,1,12.2,4.4,26.9,7.65,39,12,2.7,0.33,5.3.67,8,1v1h3v1h3v1c2.3,0.33,4.7.67,7,1v1c2.3,0.33,4.7.67,7,1v1c3.3,0.67,6.7,1.33,10,2v1h4v1h3v1h4c29.6,10.79,62.1,18.48,91,30,3,0.67,6,1.33,9,2v1h3v1h3v1h3v1h3v1h3v1c2,0.33,4,.67,6,1v1c2,0.33,4,.67,6,1v1c3,0.67,6,1.33,9,2v1h2v1h3v1h3v1h3v1h3v1c2,0.33,4,.67,6,1v1h2v1h3v1h3v1h3v1h3v1h2v1c3,0.67,6,1.33,9,2v1h2v1c3,0.67,6,1.33,9,2v1h2v1c2,0.33,4,.67,6,1v1h2v1c2,0.33,4,.67,6,1v1h2v1c2,0.33,4,.67,6,1v1h2v1h3v1h3v1h2v1c2,0.33,4,.67,6,1v1h2v1h3v1h2v1h3v1h3v1h2v1h3v1h2v1c1.7,0.33,3.3.67,5,1v1c2,0.33,4,.67,6,1v1h2v1h3v1h2v1c1.7,0.33,3.3.67,5,1v1h3v1h2v1h3v1h2v1h3v1c1.7,0.33,3.3.67,5,1v1h2v1h3v1c1.3,0.33,2.7.67,4,1v1h3v1h2v1c1.7,0.33,3.3.67,5,1v1h3v1c1.3,0.33,2.7.67,4,1v1c3.3,1,6.7,2,10,3v1h2v1h3v1h2v1h3v1c1.3,0.33,2.7.67,4,1v1h3v1c1.3,0.33,2.7.67,4,1v1h3v1c1.3,0.33,2.7.67,4,1v1h3v1c1.3,0.33,2.7.67,4,1v1h3v1c1.3,0.33,2.7.67,4,1v1h3v1c1.3,0.33,2.7.67,4,1v1h3v1h2v1c1.3,0.33,2.7.67,4,1v1h3v1h2v1c1.3,0.33,2.7.67,4,1v1h3v1h2v1c1.3,0.33,2.7.67,4,1v1h3v1h2v1c1.3,0.33,2.7.67,4,1v1h3v1h2v1c2,0.67,4,1.33,6,2v1l9,3v1h2v1h3v1h2v1h2v1h2v1c2,0.67,4,1.33,6,2v1h3v1c1.3,0.33,2.7.67,4,1v1c1.3,0.33,2.7.67,4,1v1c1.3,0.33,2.7.67,4,1v1h3v1c1.3,0.33,2.7.67,4,1v1h2v1h2v1h2v1c2,0.67,4,1.33,6,2v1h3v1c1.3,0.33,2.7.67,4,1v1c2,0.67,4,1.33,6,2v1c1.3,0.33,2.7.67,4,1v1h2v1h2v1h2v1h2v1h2v1c1.3,0.33,2.7.67,4,1v1h2v1h3v1c1.3,0.33,2.7.67,4,1v1c2,0.67,4,1.33,6,2v1c1.3,0.33,2.7.67,4,1v1c1.3,0.33,2.7.67,4,1v1h2v1h2v1h2v1h2v1c1.3,0.33,2.7.67,4,1v1h2v1h2v1h2v1h2v1h2v1c1.3,0.33,2.7.67,4,1,0.3,0.67.7,1.33,1,2h2v1h2v1h2v1h2v1c1.3,0.33,2.7.67,4,1v1c1.3,0.33,2.7.67,4,1v1h2v1h2v1h2v1h2v1c2,0.67,4,1.33,6,2,0.3,0.67.7,1.33,1,2,2,0.67,4,1.33,6,2v1h2v1h2v1h2v1h2v1c1.3,0.33,2.7.67,4,1,0.3,0.67.7,1.33,1,2h2v1h2v1h2v1h2v1h2v1h2v1h2c0.3,0.67.7,1.33,1,2h2v1h2v1h2v1h2v1c1.3,0.33,2.7.67,4,1,0.3,0.67.7,1.33,1,2h2v1h2v1h2v1h2v1h2c0.3,0.67.7,1.33,1,2h2v1h2v1h2v1h2v1h2c0.3,0.67.7,1.33,1,2,1.3,0.33,2.7.67,4,1v1h2v1h2c0.3,0.67.7,1.33,1,2h2v1h2v1h2v1h2c0.3,0.67.7,1.33,1,2h2v1h2v1h2c0.3,0.67.7,1.33,1,2h2v1h2v1h2v1h2c0.3,0.67.7,1.33,1,2,2,0.67,4,1.33,6,2,0.3,0.67.7,1.33,1,2,2,0.67,4,1.33,6,2,0.3,0.67.7,1.33,1,2,2,0.67,4,1.33,6,2,0.3,0.67.7,1.33,1,2,1.3,0.33,2.7.67,4,1,0.3,0.67.7,1.33,1,2,2,0.67,4,1.33,6,2,0.3,0.67.7,1.33,1,2,2,0.67,4,1.33,6,2,0.3,0.67.7,1.33,1,2,1.3,0.33,2.7.67,4,1,0.3,0.67.7,1.33,1,2h2v1h2c0.3,0.67.7,1.33,1,2,2,0.67,4,1.33,6,2,0.3,0.67.7,1.33,1,2,1.3,0.33,2.7.67,4,1,0.3,0.67.7,1.33,1,2,1.3,0.33,2.7.67,4,1,0.3,0.67.7,1.33,1,2h2v1h2c0.3,0.67.7,1.33,1,2,1.3,0.33,2.7.67,4,1,0.3,0.67.7,1.33,1,2,1.3,0.33,2.7.67,4,1,0.3,0.67.7,1.33,1,2,1.3,0.33,2.7.67,4,1,0.3,0.67.7,1.33,1,2,1.3,0.33,2.7.67,4,1,0.3,0.67.7,1.33,1,2,1.3,0.33,2.7.67,4,1v1c1,0.33,2,.67,3,1,0.3,0.67.7,1.33,1,2h2v1h2c0.3,0.67.7,1.33,1,2,1.3,0.33,2.7.67,4,1v1c1,0.33,2,.67,3,1,0.3,0.67.7,1.33,1,2h2v1h2c0.3,0.67.7,1.33,1,2,1.3,0.33,2.7.67,4,1,0.3,0.67.7,1.33,1,2h2c0.3,0.67.7,1.33,1,2h2c0.3,0.67.7,1.33,1,2,1.3,0.33,2.7.67,4,1v1c1,0.33,2,.67,3,1,0.3,0.67.7,1.33,1,2h2v1h2c0.3,0.67.7,1.33,1,2h2c0.3,0.67.7,1.33,1,2,1.3,0.33,2.7.67,4,1,0.3,0.67.7,1.33,1,2h2c0.3,0.67.7,1.33,1,2h2c0.3,0.67.7,1.33,1,2h2c0.3,0.67.7,1.33,1,2,1.3,0.33,2.7.67,4,1,0.3,0.67.7,1.33,1,2h2v1c1,0.33,2,.67,3,1,0.3,0.67.7,1.33,1,2h2c0.3,0.67.7,1.33,1,2,1,0.33,2,.67,3,1v1c1.3,0.33,2.7.67,4,1,0.3,0.67.7,1.33,1,2h2c0.3,0.67.7,1.33,1,2h2c0.3,0.67.7,1.33,1,2h2c0.3,0.67.7,1.33,1,2h2c0.3,0.67.7,1.33,1,2h2c0.3,0.67.7,1.33,1,2h2c0.3,0.67.7,1.33,1,2h2c0.3,0.67.7,1.33,1,2h2v1c1,0.33,2,.67,3,1,0.3,0.67.7,1.33,1,2h2c0.3,0.67.7,1.33,1,2h2c0.3,0.67.7,1.33,1,2h2c0.3,0.67.7,1.33,1,2h2c0.3,0.67.7,1.33,1,2h2c0.3,0.67.7,1.33,1,2h2v1c1,0.33,2,.67,3,1,0.3,0.67.7,1.33,1,2h2c0.7,1,1.3,2,2,3h2c0.3,0.67.7,1.33,1,2h2c0.3,0.67.7,1.33,1,2h2v1c1,0.33,2,.67,3,1,0.3,0.67.7,1.33,1,2h2c0.3,0.67.7,1.33,1,2h2c0.7,1,1.3,2,2,3h2v1c1,0.33,2,.67,3,1,0.3,0.67.7,1.33,1,2h2c0.7,1,1.3,2,2,3h2v1c1,0.33,2,.67,3,1,0.3,0.67.7,1.33,1,2h2c0.7,1,1.3,2,2,3h2c0.3,0.67.7,1.33,1,2h2c0.7,1,1.3,2,2,3h2c0.3,0.67.7,1.33,1,2h2c0.7,1,1.3,2,2,3h2c0.3,0.67.7,1.33,1,2h2c0.7,1,1.3,2,2,3h2c0.3,0.67.7,1.33,1,2h2c0.3,0.67.7,1.33,1,2,1,0.33,2,.67,3,1,0.7,1,1.3,2,2,3h2c0.3,0.67.7,1.33,1,2h2c0.7,1,1.3,2,2,3h2c0.7,1,1.3,2,2,3h2c0.7,1,1.3,2,2,3h2c0.3,0.67.7,1.33,1,2,1,0.33,2,.67,3,1,0.7,1,1.3,2,2,3h2c0.7,1,1.3,2,2,3h2c0.7,1,1.3,2,2,3h2c0.7,1,1.3,2,2,3h2c0.7,1,1.3,2,2,3h2c0.3,0.67.7,1.33,1,2,1,0.33,2,.67,3,1,0.7,1,1.3,2,2,3h2c1,1.33,2,2.67,3,4h2c0.7,1,1.3,2,2,3h2c0.7,1,1.3,2,2,3h2c1,1.33,2,2.67,3,4h2c1,1.33,2,2.67,3,4h2c0.3,0.67.7,1.33,1,2h1c0.3,0.67.7,1.33,1,2h2c1,1.33,2,2.67,3,4h2c0.3,0.67.7,1.33,1,2h1c0.3,0.67.7,1.33,1,2h2c1,1.33,2,2.67,3,4h2c1.3,1.67,2.7,3.33,4,5h2c0.7,1,1.3,2,2,3,2.7,2,5.3,4,8,6v1h-2q-46.5,11.505-93,23v1c-4.7,1-9.3,2-14,3v1h-3v1c-2.3.33-4.7,0.67-7,1v1c-3.3.67-6.7,1.33-10,2v1c-4.3,1-8.7,2-13,3v1h-4c-29.8,10.85-61.7,19.65-90,32q-12,4.005-24,8v1h-2v1h-3v1h-2v1h-3v1h-2v1h-3v1c-1.7.33-3.3,0.67-5,1v1h-2v1h-3v1c-1.3.33-2.7,0.67-4,1v1h-3v1h-2v1h-3v1c-1.3.33-2.7,0.67-4,1v1h-3v1c-1.3.33-2.7,0.67-4,1v1h-3v1c-1.3.33-2.7,0.67-4,1v1h-3v1h-2v1c-1.3.33-2.7,0.67-4,1v1h-3v1h-2v1c-1.3.33-2.7,0.67-4,1v1h-3v1h-2v1h-2v1c-2,.67-4,1.33-6,2v1h-3v1c-1.3.33-2.7,0.67-4,1v1h-2v1h-2v1c-2,.67-4,1.33-6,2v1h-3v1c-1.3.33-2.7,0.67-4,1v1c-2,.67-4,1.33-6,2v1c-1.3.33-2.7,0.67-4,1v1c-1.3.33-2.7,0.67-4,1v1h-2v1h-2v1h-2v1h-2v1c-1.3.33-2.7,0.67-4,1v1h-2v1h-2v1h-2v1h-2v1h-2v1c-1.3.33-2.7,0.67-4,1-0.3.67-.7,1.33-1,2h-2v1h-2v1h-2v1h-2v1h-2v1h-2v1h-2v1h-2c-0.3.67-.7,1.33-1,2h-2v1h-2v1h-2v1h-2v1h-2c-0.3.67-.7,1.33-1,2h-2v1h-2v1h-2v1h-2c-0.3.67-.7,1.33-1,2h-2v1h-2v1h-2v1h-2c-0.3.67-.7,1.33-1,2-2,.67-4,1.33-6,2-0.3.67-.7,1.33-1,2-2,.67-4,1.33-6,2-0.3.67-.7,1.33-1,2h-2v1h-2c-0.3.67-.7,1.33-1,2-2,.67-4,1.33-6,2-0.3.67-.7,1.33-1,2-1.3.33-2.7,0.67-4,1-0.3.67-.7,1.33-1,2-1.3.33-2.7,0.67-4,1-0.3.67-.7,1.33-1,2h-2v1h-2v1c-1,.33-2,0.67-3,1-0.3.67-.7,1.33-1,2h-2v1h-2c-0.3.67-.7,1.33-1,2-1.3.33-2.7,0.67-4,1-0.3.67-.7,1.33-1,2h-2c-0.3.67-.7,1.33-1,2-1,.33-2,0.67-3,1v1c-1.3.33-2.7,0.67-4,1-0.3.67-.7,1.33-1,2h-2c-0.3.67-.7,1.33-1,2h-2c-0.3.67-.7,1.33-1,2-1.3.33-2.7,0.67-4,1-0.3.67-.7,1.33-1,2h-2c-0.3.67-.7,1.33-1,2h-2v1c-1,.33-2,0.67-3,1-0.3.67-.7,1.33-1,2h-2c-0.3.67-.7,1.33-1,2h-2c-0.3.67-.7,1.33-1,2h-2c-0.3.67-.7,1.33-1,2h-2c-0.3.67-.7,1.33-1,2h-2v1c-1,.33-2,0.67-3,1-0.3.67-.7,1.33-1,2h-2c-0.7,1-1.3,2-2,3h-2c-0.3.67-.7,1.33-1,2-1,.33-2,0.67-3,1v1h-2c-0.3.67-.7,1.33-1,2h-2c-0.7,1-1.3,2-2,3h-2c-0.3.67-.7,1.33-1,2h-2c-0.7,1-1.3,2-2,3h-2c-0.3.67-.7,1.33-1,2h-2c-0.7,1-1.3,2-2,3h-2c-0.3.67-.7,1.33-1,2h-2c-0.3.67-.7,1.33-1,2-1,.33-2,0.67-3,1-0.7,1-1.3,2-2,3h-2c-0.7,1-1.3,2-2,3h-2c-0.7,1-1.3,2-2,3h-2c-0.7,1-1.3,2-2,3h-2c-0.7,1-1.3,2-2,3h-2c-0.3.67-.7,1.33-1,2-1,.33-2,0.67-3,1-0.7,1-1.3,2-2,3h-2c-1,1.33-2,2.67-3,4-1,.33-2,0.67-3,1-0.3.67-.7,1.33-1,2h-2c-0.3.67-.7,1.33-1,2h-1c-0.3.67-.7,1.33-1,2h-2c-1,1.33-2,2.67-3,4h-2c-1,1.33-2,2.67-3,4h-2c-1.3,1.67-2.7,3.33-4,5h-2c-1,1.33-2,2.67-3,4h-2c-1.3,1.67-2.7,3.33-4,5h-2c-1.3,1.67-2.7,3.33-4,5h-2c-0.7,1-1.3,2-2,3-1,.67-2,1.33-3,2v1h-2c-1.7,2-3.3,4-5,6h-2q-3,3.495-6,7h-2q-3,3.495-6,7h-2q-4.5,4.995-9,10c-1,.33-2,0.67-3,1-3.3,3.67-6.7,7.33-10,11-7,5.08-13,10.96-19,17-1.7,2-3.3,4-5,6h-2c-1.7,2-3.3,4-5,6-3.3,3-6.7,6-10,9v2c-2,1.67-4,3.33-6,5-6.4,6.36-12.7,12.61-18,20-4.3,4-8.7,8-13,12v2q-4.5,4.005-9,8v2c-2.3,2-4.7,4-7,6v2c-2.3,2-4.7,4-7,6v2c-2,1.67-4,3.33-6,5v2c-2,1.67-4,3.33-6,5v2c-0.7.33-1.3,0.67-2,1-0.7,1-1.3,2-2,3h-1v2c-1.7,1.33-3.3,2.67-5,4v2c-0.7.33-1.3,0.67-2,1v1c-0.7.33-1.3,0.67-2,1v2c-1.7,1.33-3.3,2.67-5,4v2c-1.3,1-2.7,2-4,3v2c-1.3,1-2.7,2-4,3v2c-1,.67-2,1.33-3,2v2c-1.3,1-2.7,2-4,3v2c-0.7.33-1.3,0.67-2,1-0.3,1-.7,2-1,3-1.3,1-2.7,2-4,3v2c-1,.67-2,1.33-3,2v2c-1,.67-2,1.33-3,2v2c-1,.67-2,1.33-3,2v2c-1,.67-2,1.33-3,2-0.3,1-.7,2-1,3-0.7.33-1.3,0.67-2,1v2c-0.7.33-1.3,0.67-2,1v2c-0.7.33-1.3,0.67-2,1-0.3,1-.7,2-1,3-1,.67-2,1.33-3,2v2c-0.7.33-1.3,0.67-2,1v2c-1,.67-2,1.33-3,2v2c-0.7.33-1.3,0.67-2,1v2c-1,.67-2,1.33-3,2v2c-0.7.33-1.3,0.67-2,1v2h-1c-0.3,1-.7,2-1,3-0.7.33-1.3,0.67-2,1v2c-1,.67-2,1.33-3,2v2c-0.7.33-1.3,0.67-2,1-0.3,1-.7,2-1,3h-1v2c-0.7.33-1.3,0.67-2,1v2c-0.7.33-1.3,0.67-2,1v2c-0.7.33-1.3,0.67-2,1v2c-0.7.33-1.3,0.67-2,1v2c-0.7.33-1.3,0.67-2,1v2c-0.7.33-1.3,0.67-2,1v2c-0.7.33-1.3,0.67-2,1-0.3,1.33-.7,2.67-1,4-0.7.33-1.3,0.67-2,1v2c-0.7.33-1.3,0.67-2,1v2c-0.7.33-1.3,0.67-2,1v2c-0.7.33-1.3,0.67-2,1-0.3,1.33-.7,2.67-1,4h-1c-0.3,1-.7,2-1,3-0.7.33-1.3,0.67-2,1-0.3,1.33-.7,2.67-1,4h-1c-0.3,1-.7,2-1,3-0.7.33-1.3,0.67-2,1v2h-1v2c-0.7.33-1.3,0.67-2,1-0.3,1.33-.7,2.67-1,4-0.7.33-1.3,0.67-2,1-0.3,1.33-.7,2.67-1,4-0.7.33-1.3,0.67-2,1-0.3,1.33-.7,2.67-1,4-0.7.33-1.3,0.67-2,1-0.3,1.33-.7,2.67-1,4-0.7.33-1.3,0.67-2,1-0.7,2-1.3,4-2,6-0.7.33-1.3,0.67-2,1-0.7,2-1.3,4-2,6-0.7.33-1.3,0.67-2,1-0.7,2-1.3,4-2,6-0.7.33-1.3,0.67-2,1v2h-1v2h-1v2h-1v2c-0.7.33-1.3,0.67-2,1v2h-1v2h-1v2h-1v2c-0.7.33-1.3,0.67-2,1v2h-1v2h-1v2h-1v2h-1v2h-1c-0.3,1.33-.7,2.67-1,4-0.7.33-1.3,0.67-2,1-0.7,2-1.3,4-2,6h-1c-0.3,1.33-.7,2.67-1,4h-1c-0.3,1.33-.7,2.67-1,4h-1v2h-1v2h-1v2h-1v2h-1c-0.7,2-1.3,4-2,6h-1c-0.3,1.33-.7,2.67-1,4h-1c-0.3,1.33-.7,2.67-1,4h-1v2h-1v2h-1v2h-1v2h-1c-0.7,2-1.3,4-2,6h-1c-0.3,1.33-.7,2.67-1,4h-1v3h-1v2h-1v2h-1c-0.7,2-1.3,4-2,6h-1v3h-1v2h-1c-0.7,2-1.3,4-2,6h-1v3h-1v2h-1c-0.3,1.33-.7,2.67-1,4h-1v3h-1v2h-1c-0.3,1.33-.7,2.67-1,4h-1v3h-1c-0.3,1.33-.7,2.67-1,4h-1v3h-1v2h-1v3h-1c-0.3,1.33-.7,2.67-1,4h-1v3h-1v2h-1v3h-1v2h-1c-0.3,1.67-.7,3.33-1,5h-1v3h-1v2h-1v3h-1v2h-1v3h-1v2h-1v3h-1v2h-1c-0.3,2-.7,4-1,6h-1v2h-1c-0.3,2-.7,4-1,6h-1v2h-1c-0.7,3-1.3,6-2,9h-1v2h-1v3h-1v3h-1v3h-1v3h-1v2h-1v3h-1v3h-1v3h-1v3h-1v3h-1v3h-1v3h-1v3h-1v3h-1v3h-1c-0.3,2-.7,4-1,6h-1v4h-1v3h-1v3h-1v3h-1c-0.7,3.33-1.3,6.67-2,10h-1c-0.7,3.33-1.3,6.67-2,10h-1q-1.5,7.005-3,14h-1c-0.3,2.67-.7,5.33-1,8h-1v3h-1v4h-1v4h-1v4h-1c-0.3,2.33-.7,4.67-1,7h-1q-1.5,8.505-3,17h-1v4h-1v4h-1v4h-1c-0.3,3-.7,6-1,9h-1v4h-1c-0.3,3.33-.7,6.67-1,10-5.1,15.64-6.2,34.85-11,51q-6,41.49-12,83v10h-1v10h-1v10h-1v12h-1v14h-1v15h-1c-0.3,17.66-.7,35.34-1,53-2.1,7.66-2.2,38.36,0,46v26c0.3,8.33.7,16.67,1,25h1v10c0.3,6.33.7,12.67,1,19h1c0.3,7.33.7,14.67,1,22h1v9h1v9c2.7,9.37,2.3,21.84,5,31,0.3,4.67.7,9.33,1,14,4.7,15.94,5.1,35.39,10,51,0.3,3.33.7,6.67,1,10h1c0.3,3,.7,6,1,9h1v4h1c0.3,3,.7,6,1,9h1c0.3,3,.7,6,1,9,2.1,6.03,3.9,13.97,6,20,0.3,2.67.7,5.33,1,8,7,19.42,11.5,41.3,19,60l6,21h1v2h1c0.3,2,.7,4,1,6h1v3h1v2h1c0.3,2,.7,4,1,6h1v3h1v2h1v3h1v2h1c0.3,1.67.7,3.33,1,5h1v3h1v2h1v3h1v2h1v3h1v2h1v3h1c0.3,1.33.7,2.67,1,4h1v3h1v2h1v3h1c0.3,1.33.7,2.67,1,4h1v2h1v3h1v2h1c0.3,1.33.7,2.67,1,4h1v3h1c0.7,2,1.3,4,2,6h1l3,9h1c0.7,2,1.3,4,2,6h1v2h1v2h1v2h1c0.3,1.33.7,2.67,1,4h1c0.3,1.33.7,2.67,1,4h1v2h1v2h1v2h1v2h1c0.3,1.33.7,2.67,1,4,0.7,0.33,1.3.67,2,1v2h1v2h1v2h1v2h1c0.3,1.33.7,2.67,1,4,0.7,0.33,1.3.67,2,1,0.3,1.33.7,2.67,1,4h1v2h1v2c0.7,0.33,1.3.67,2,1v2h1v2h1v2h1v2c0.7,0.33,1.3.67,2,1,0.3,1.33.7,2.67,1,4,0.7,0.33,1.3.67,2,1,0.3,1.33.7,2.67,1,4,0.7,0.33,1.3.67,2,1,0.3,1.33.7,2.67,1,4,0.7,0.33,1.3.67,2,1,0.3,1.33.7,2.67,1,4,0.7,0.33,1.3.67,2,1v2h1v2h1c0.3,1,.7,2,1,3,0.7,0.33,1.3.67,2,1,0.3,1.33.7,2.67,1,4,0.7,0.33,1.3.67,2,1v2c0.7,0.33,1.3.67,2,1v2c0.7,0.33,1.3.67,2,1v2c0.7,0.33,1.3.67,2,1,0.3,1.33.7,2.67,1,4,0.7,0.33,1.3.67,2,1v2c1,0.67,2,1.33,3,2v2c0.7,0.33,1.3.67,2,1v2c0.7,0.33,1.3.67,2,1v2h1c0.3,1,.7,2,1,3,0.7,0.33,1.3.67,2,1v2c1,0.67,2,1.33,3,2v2c0.7,0.33,1.3.67,2,1v2c1,0.67,2,1.33,3,2v2c0.7,0.33,1.3.67,2,1v2c0.7,0.33,1.3.67,2,1,0.3,1,.7,2,1,3,1,0.67,2,1.33,3,2v2c1,0.67,2,1.33,3,2v2c1,0.67,2,1.33,3,2v2c1.3,1,2.7,2,4,3,0.3,1,.7,2,1,3,0.7,0.33,1.3.67,2,1v2c0.7,0.33,1.3.67,2,1v1c0.7,0.33,1.3.67,2,1v2c1.3,1,2.7,2,4,3v2c1.7,1.33,3.3,2.67,5,4v2c2,1.67,4,3.33,6,5v2c2,1.67,4,3.33,6,5v2c2.3,2,4.7,4,7,6v2c3.7,3.33,7.3,6.67,11,10v2c4.3,4,8.7,8,13,12,8.6,8.57,16,17.78,26,25,2.7,3,5.3,6,8,9h1c0.3,0.67.7,1.33,1,2h2q3,3.495,6,7h2c1.7,2,3.3,4,5,6h2c0.3,0.67.7,1.33,1,2h1c0.7,1,1.3,2,2,3h2c1.3,1.67,2.7,3.33,4,5h2c1,1.33,2,2.67,3,4h2c1,1.33,2,2.67,3,4h2c0.3,0.67.7,1.33,1,2,1,0.33,2,.67,3,1,1,1.33,2,2.67,3,4h2c0.7,1,1.3,2,2,3h2c0.7,1,1.3,2,2,3h2c0.3,0.67.7,1.33,1,2h2c0.7,1,1.3,2,2,3h2c0.3,0.67.7,1.33,1,2h2c0.7,1,1.3,2,2,3h2v1c1,0.33,2,.67,3,1,0.3,0.67.7,1.33,1,2h2c0.7,1,1.3,2,2,3h2c0.3,0.67.7,1.33,1,2h2c0.3,0.67.7,1.33,1,2,1,0.33,2,.67,3,1v1c1.3,0.33,2.7.67,4,1,0.3,0.67.7,1.33,1,2h2c0.3,0.67.7,1.33,1,2h2c0.3,0.67.7,1.33,1,2h2c0.3,0.67.7,1.33,1,2,1.3,0.33,2.7.67,4,1,0.3,0.67.7,1.33,1,2,1.3,0.33,2.7.67,4,1,0.3,0.67.7,1.33,1,2,1.3,0.33,2.7.67,4,1,0.3,0.67.7,1.33,1,2h2v1h2c0.3,0.67.7,1.33,1,2,2,0.67,4,1.33,6,2,0.3,0.67.7,1.33,1,2,2,0.67,4,1.33,6,2,0.3,0.67.7,1.33,1,2h2v1h2v1h2v1h2v1h2c0.3,0.67.7,1.33,1,2h2v1h2v1h2v1h2v1h2v1h2v1c1.3,0.33,2.7.67,4,1v1h2v1h2v1h2v1h2v1h2v1c1.3,0.33,2.7.67,4,1v1h2v1h3v1h2v1c2,0.67,4,1.33,6,2v1h3v1h2v1c1.3,0.33,2.7.67,4,1v1h3v1c1.3,0.33,2.7.67,4,1v1h3v1h2v1h3v1c1.3,0.33,2.7.67,4,1v1c2,0.33,4,.67,6,1v1h2v1h3v1h2v1c2,0.33,4,.67,6,1v1h2v1c3,0.67,6,1.33,9,2v1h2v1c2,0.33,4,.67,6,1v1h3v1h3v1h3v1h3v1h3v1h3v1h4v1h3v1h3v1h4c12.7,4.57,27.8,7.76,41,12h5c8.4,2.72,19.3,4.36,28,7h6c11.1,3.37,25.5,3.67,37,7h7v1h8v1h9v1h10v1h11v1h13v1c9.7,0.33,19.3.67,29,1h13c7.7,2.15,39.3,2.18,47,0,14.3-.33,28.7-0.67,43-1v-1h14v-1h11v-1h11v-1h9c12.1-3.5,28-2.54,40-6,7.3-.67,14.7-1.33,22-2v-1h7v-1h7c16.8-4.98,37.5-4.99,54-10,3.7-.33,7.3-0.67,11-1,11.2-3.49,24.9-4.53,36-8l10-1c16.4-5.34,35.9-7.53,52-13,3-.33,6-0.67,9-1v-1h4v-1h3v-1h4v-1h4v-1h4v-1h4v-1c2.3-.33,4.7-0.67,7-1v-1c2.7-.33,5.3-0.67,8-1v-1c4.7-1,9.3-2,14-3v-1h3v-1c3.3-.67,6.7-1.33,10-2v-1c3.3-.67,6.7-1.33,10-2v-1h4v-1h3v-1h3v-1h3v-1h3v-1h4v-1h3v-1h3v-1h3v-1h3v-1h3v-1h3v-1h3v-1c3-.67,6-1.33,9-2v-1h2v-1c2-.33,4-0.67,6-1v-1c2-.33,4-0.67,6-1v-1h2v-1c3-.67,6-1.33,9-2v-1h2v-1c2-.33,4-0.67,6-1v-1h2v-1h3v-1h2v-1c2-.33,4-0.67,6-1v-1h2v-1l18-6v-1c1.3-.33,2.7-0.67,4-1v-1h3v-1c1.3-.33,2.7-0.67,4-1v-1h3v-1c1.3-.33,2.7-0.67,4-1v-1h3v-1c1.3-.33,2.7-0.67,4-1v-1h3v-1h2v-1c2-.67,4-1.33,6-2v-1h3v-1h2v-1h2v-1c2-.67,4-1.33,6-2v-1h3v-1h2v-1c1.3-.33,2.7-0.67,4-1v-1c1.3-.33,2.7-0.67,4-1v-1c1.3-.33,2.7-0.67,4-1v-1h2v-1h2v-1h2v-1h2v-1c1.3-.33,2.7-0.67,4-1v-1h2v-1h2v-1h2v-1h2v-1h2v-1c1.3-.33,2.7-0.67,4-1,0.3-.67.7-1.33,1-2h2v-1h2v-1h2v-1h2v-1h2v-1h2c0.3-.67.7-1.33,1-2h2v-1h2v-1h2v-1h2c0.3-.67.7-1.33,1-2,2-.67,4-1.33,6-2,0.3-.67.7-1.33,1-2,2-.67,4-1.33,6-2,0.3-.67.7-1.33,1-2,1.3-.33,2.7-0.67,4-1,0.3-.67.7-1.33,1-2,1.3-.33,2.7-0.67,4-1,0.3-.67.7-1.33,1-2,1.3-.33,2.7-0.67,4-1v-1c1-.33,2-0.67,3-1,0.3-.67.7-1.33,1-2,1.3-.33,2.7-0.67,4-1v-1c1-.33,2-0.67,3-1,0.3-.67.7-1.33,1-2,1.3-.33,2.7-0.67,4-1,0.3-.67.7-1.33,1-2h2c0.3-.67.7-1.33,1-2h2c0.3-.67.7-1.33,1-2h2v-1c1-.33,2-0.67,3-1,0.3-.67.7-1.33,1-2h2c0.3-.67.7-1.33,1-2h2c0.3-.67.7-1.33,1-2h2v-1c1-.33,2-0.67,3-1,0.3-.67.7-1.33,1-2h2c0.7-1,1.3-2,2-3h2v-1c1-.33,2-0.67,3-1,0.3-.67.7-1.33,1-2h2c0.3-.67.7-1.33,1-2,1-.33,2-0.67,3-1,0.7-1,1.3-2,2-3h2c0.3-.67.7-1.33,1-2h2c0.7-1,1.3-2,2-3h2c0.7-1,1.3-2,2-3h2c1-1.33,2-2.67,3-4h2c0.7-1,1.3-2,2-3h2c1-1.33,2-2.67,3-4h2c1-1.33,2-2.67,3-4h2c1-1.33,2-2.67,3-4h2c0.7-1,1.3-2,2-3h1c0.3-.67.7-1.33,1-2h2c1.7-2,3.3-4,5-6h2c1.7-2,3.3-4,5-6,9.8-7.1,17.6-15.58,26-24q6-4.995,12-10v-2c6.3-6,12.7-12,19-18v-2q4.5-4.005,9-8v-2c2-1.67,4-3.33,6-5v-2c2-1.67,4-3.33,6-5v-2c1.3-1,2.7-2,4-3v-2c1.3-1,2.7-2,4-3v-2c1.3-1,2.7-2,4-3v-2c1.3-1,2.7-2,4-3v-2c1-.67,2-1.33,3-2v-2c1-.67,2-1.33,3-2v-2c1-.67,2-1.33,3-2v-2c1-.67,2-1.33,3-2v-2c0.7-.33,1.3-0.67,2-1v-2c1-.67,2-1.33,3-2v-2h1c0.3-1,.7-2,1-3,0.7-.33,1.3-0.67,2-1v-2c1-.67,2-1.33,3-2v-2c0.7-.33,1.3-0.67,2-1v-2c0.7-.33,1.3-0.67,2-1v-2c0.7-.33,1.3-0.67,2-1v-2c0.7-.33,1.3-0.67,2-1,0.3-1.33.7-2.67,1-4,0.7-.33,1.3-0.67,2-1v-2c0.7-.33,1.3-0.67,2-1v-2c0.7-.33,1.3-0.67,2-1,0.3-1.33.7-2.67,1-4,0.7-.33,1.3-0.67,2-1,0.3-1.33.7-2.67,1-4,0.7-.33,1.3-0.67,2-1,0.3-1.33.7-2.67,1-4,0.7-.33,1.3-0.67,2-1,0.3-1.33.7-2.67,1-4,0.7-.33,1.3-0.67,2-1,0.7-2,1.3-4,2-6,0.7-.33,1.3-0.67,2-1v-2h1v-2h1v-2h1v-2c0.7-.33,1.3-0.67,2-1,0.3-1.33.7-2.67,1-4h1v-2h1v-2h1v-2h1v-2h1c0.3-1.33.7-2.67,1-4h1c0.3-1.33.7-2.67,1-4h1c0.3-1.33.7-2.67,1-4h1v-2h1v-2h1v-2h1v-2h1v-2h1c0.3-1.33.7-2.67,1-4h1v-2h1v-3h1v-2h1c0.3-1.33.7-2.67,1-4h1v-3h1v-2h1c0.3-1.33.7-2.67,1-4h1v-3h1v-2h1c0.3-1.67.7-3.33,1-5h1v-3h1c0.3-1.33.7-2.67,1-4h1v-3h1v-3h1v-2h1v-3h1v-2h1c0.7-3,1.3-6,2-9h1v-2h1v-3h1v-3h1v-3h1v-3c5.7-14.3,9.7-31.16,15-46q7.5-33.99,15-68c0.3-4,.7-8,1-12,3.1-10.45,2.9-24.31,6-35v-9h1v-9h1v-10h1v-13h1v-14h1c0.3-25,.7-50,1-75,0-10.68,1.5-25.1-1-34-1.6-5.77.5-14.84-1-20v-10c-0.3-6-.7-12-1-18h-1v-11h-1v-11h-1v-9h-1v-9h-1v-9c-3.8-13.13-3.2-30.1-7-43-0.3-4.33-.7-8.67-1-13-4.7-15.66-5.2-34.6-10-50-0.3-3.33-.7-6.67-1-10-4-12.41-6-27.71-10-40-0.7-4.33-1.3-8.67-2-13-3-8.63-5.1-19.36-8-28-0.3-2.67-.7-5.33-1-8h-1v-3h-1c-0.7-3.67-1.3-7.33-2-11h-1c-0.7-3.67-1.3-7.33-2-11h-1c-0.3-2.33-.7-4.67-1-7h-1v-4c-8.3-22.77-14.2-47.94-23-70-0.3-2-.7-4-1-6h-1v-3h-1v-3h-1v-3h-1v-3h-1v-3h-1v-3h-1c-0.3-2-.7-4-1-6h-1v-2h-1c-0.3-2-.7-4-1-6h-1c-0.3-2-.7-4-1-6h-1v-2h-1c-0.7-3-1.3-6-2-9h-1v-2h-1c-0.3-2-.7-4-1-6h-1v-2h-1c-0.3-2-.7-4-1-6h-1v-2h-1c-0.3-2-.7-4-1-6h-1c-0.3-1.67-.7-3.33-1-5h-1v-2h-1v-3h-1v-2h-1c-0.3-2-.7-4-1-6h-1v-2h-1v-3h-1v-2h-1v-3h-1c-0.3-1.67-.7-3.33-1-5h-1v-2h-1v-3h-1c-0.3-1.33-.7-2.67-1-4h-1v-3h-1v-2h-1v-3h-1c-0.3-1.33-.7-2.67-1-4h-1v-3h-1v-2h-1v-3h-1c-0.3-1.33-.7-2.67-1-4h-1v-3h-1c-0.3-1.33-.7-2.67-1-4h-1v-3h-1v-2h-1c-0.3-1.33-.7-2.67-1-4h-1v-3h-1v-2h-1v-2h-1v-2h-1c-0.3-1.67-.7-3.33-1-5h-1c-0.3-1.33-.7-2.67-1-4h-1v-3h-1v-2h-1v-2h-1c-0.7-2-1.3-4-2-6h-1v-3h-1c-0.3-1.33-.7-2.67-1-4h-1v-2h-1v-2h-1v-2h-1c-0.7-2-1.3-4-2-6h-1v-3h-1v-2h-1c-0.3-1.33-.7-2.67-1-4h-1c-0.3-1.33-.7-2.67-1-4h-1c-0.3-1.33-.7-2.67-1-4h-1v-2h-1v-2h-1v-2h-1v-2h-1c-0.7-2-1.3-4-2-6-0.7-.33-1.3-0.67-2-1v-2h-1c-0.3-1-.7-2-1-3-0.7-.33-1.3-0.67-2-1v-2c-1-.67-2-1.33-3-2v-2c-0.7-.33-1.3-0.67-2-1v-2c-0.7-.33-1.3-0.67-2-1-0.3-1-.7-2-1-3h-1c-0.3-1.33-.7-2.67-1-4-0.7-.33-1.3-0.67-2-1l-18-36c-0.3-2-.7-4-1-6h-1v-2h-1q-1.5-6.495-3-13h-1v-3h-1v-3h-1v-4h-1c-0.3-2.67-.7-5.33-1-8h-1v-5c-1.5-4.83-2.5-11.89-4-17v-8c-2.5-9.05-2-21.44-2-33,0-35.39,6.1-66.3,17-91v-3h1c0.3-1.67.7-3.33,1-5h1v-2h1v-3h1c0.7-2,1.3-4,2-6h1v-2h1v-2h1v-2h1v-2h1v-2h1v-2h1v-2h1v-2h1v-2c0.7-.33,1.3-0.67,2-1,0.7-2,1.3-4,2-6h1c0.3-1,.7-2,1-3,0.7-.33,1.3-0.67,2-1v-2c0.7-.33,1.3-0.67,2-1,0.3-1.33.7-2.67,1-4,1-.67,2-1.33,3-2v-2c0.7-.33,1.3-0.67,2-1v-2c0.7-.33,1.3-0.67,2-1,0.3-1,.7-2,1-3,1-.67,2-1.33,3-2v-2c1.3-1,2.7-2,4-3v-2c2-1.67,4-3.33,6-5v-2c3.7-3.33,7.3-6.67,11-10,4.3-4.67,8.7-9.33,13-14h2c1.3-1.67,2.7-3.33,4-5h2c1-1.33,2-2.67,3-4h2c0.7-1,1.3-2,2-3h2c0.7-1,1.3-2,2-3h2c0.3-.67.7-1.33,1-2h2c0.7-1,1.3-2,2-3h2c0.3-.67.7-1.33,1-2,1.3-.33,2.7-0.67,4-1v-1c1-.33,2-0.67,3-1,0.3-.67.7-1.33,1-2,1.3-.33,2.7-0.67,4-1,0.3-.67.7-1.33,1-2h2v-1h2v-1h2v-1h2v-1h2c0.3-.67.7-1.33,1-2l9-3v-1h2v-1c2-.67,4-1.33,6-2v-1h3v-1h2v-1h3v-1h2v-1c2-.33,4-0.67,6-1v-1h3v-1h3v-1h3v-1h3v-1c2.3-.33,4.7-0.67,7-1v-1h4v-1h4v-1h5v-1h5v-1h5v-1h6v-1h8v-1h9v-1h30c21.2-.01,41.8,2.53,58,8,2.7,0.33,5.3.67,8,1v1h3v1h3v1h4v1h2v1h3v1h3v1h3v1h3v1c1.3,0.33,2.7.67,4,1v1h3v1h2v1c1.7,0.33,3.3.67,5,1v1c2,0.67,4,1.33,6,2v1h2v1h2v1h2v1h2v1h2v1h2c0.3,0.67.7,1.33,1,2,2,0.67,4,1.33,6,2v1c1,0.33,2,.67,3,1,0.3,0.67.7,1.33,1,2,1.3,0.33,2.7.67,4,1,0.3,0.67.7,1.33,1,2h2v1c1,0.33,2,.67,3,1,0.3,0.67.7,1.33,1,2h2c0.7,1,1.3,2,2,3h2c0.7,1,1.3,2,2,3h2c0.7,1,1.3,2,2,3h2c0.7,1,1.3,2,2,3h1c0.3,0.67.7,1.33,1,2h2c1.7,2,3.3,4,5,6h2q4.5,4.995,9,10c3.3,3,6.7,6,10,9v2c2,1.67,4,3.33,6,5v2c0.7,0.33,1.3.67,2,1v1c1,0.67,2,1.33,3,2v2c1,0.67,2,1.33,3,2,0.3,1,.7,2,1,3,0.7,0.33,1.3.67,2,1v2c0.7,0.33,1.3.67,2,1v2c1,0.67,2,1.33,3,2v2c0.7,0.33,1.3.67,2,1,0.3,1,.7,2,1,3h1c0.3,1.33.7,2.67,1,4,0.7,0.33,1.3.67,2,1,0.3,1,.7,2,1,3h1c0.7,2,1.3,4,2,6,0.7,0.33,1.3.67,2,1,0.7,2,1.3,4,2,6h1v2h1c0.7,2,1.3,4,2,6h1c0.3,1.67.7,3.33,1,5h1v2h1v3h1v2h1v3h1c0.3,1.33.7,2.67,1,4h1v3h1c0.3,1.33.7,2.67,1,4h1v2h1v2h1c0.7,2,1.3,4,2,6h1v3h1v2h1v2h1c0.7,2,1.3,4,2,6h1v3h1v2h1c0.7,2,1.3,4,2,6h1v3h1v2h1c0.7,2,1.3,4,2,6h1v3h1v2h1c0.7,2,1.3,4,2,6h1v3h1v2h1c0.3,1.33.7,2.67,1,4h1v3h1v2h1v2h1v2h1v3h1c0.3,1.33.7,2.67,1,4h1v3h1v2h1c0.3,1.33.7,2.67,1,4h1v3h1c0.3,1.33.7,2.67,1,4h1v3h1c0.3,1.33.7,2.67,1,4h1v3h1c0.3,1.33.7,2.67,1,4h1v3h1c0.3,1.33.7,2.67,1,4h1v3h1c0.3,1.33.7,2.67,1,4h1v3h1c0.3,1.33.7,2.67,1,4h1c0.3,1.67.7,3.33,1,5h1v3h1c0.3,1.33.7,2.67,1,4h1v3h1v2h1c0.3,1.67.7,3.33,1,5h1v3h1c0.3,1.33.7,2.67,1,4h1v3h1v2h1c0.3,1.67.7,3.33,1,5h1v3h1v2h1c0.3,1.67.7,3.33,1,5h1v3h1v2h1v3h1v2h1v3h1v2h1v3h1v2h1v3h1v2h1v3h1v2h1c0.3,2,.7,4,1,6h1v2h1v3h1v2h1v3h1v3h1v2h1c0.3,1.67.7,3.33,1,5h1c0.3,2,.7,4,1,6h1v2h1c0.3,2,.7,4,1,6h1v2h1c0.3,2,.7,4,1,6h1v2h1c0.7,3,1.3,6,2,9h1v2h1c0.3,2,.7,4,1,6h1v3h1v2h1c0.3,2,.7,4,1,6h1v3h1v2h1v3h1v3h1v3h1v3h1v3h1v2h1c0.3,2,.7,4,1,6h1v3h1v3h1v3h1v3h1v3h1v3h1c0.3,2,.7,4,1,6h1c0.3,2,.7,4,1,6,12,30.13,19.8,63.9,31,95v4h1v3h1v4h1v3h1c0.3,2.33.7,4.67,1,7h1c0.3,2.33.7,4.67,1,7h1c0.7,3.67,1.3,7.33,2,11h1c0.3,2.33.7,4.67,1,7h1v4c1.6,4.53,3.5,10.54,5,15,0.3,2.67.7,5.33,1,8,6.1,17.93,9.1,38.8,15,57v5h1v4h1v4h1c0.3,3,.7,6,1,9h1c0.3,3.33.7,6.67,1,10,2.3,7.08,3.7,16.75,6,24,0.3,3.33.7,6.67,1,10,4,12.84,5.1,28.98,9,42,0.3,4,.7,8,1,12,4.1,13.68,3.9,31.08,8,45,0.3,4.67.7,9.33,1,14,3.5,11.99,2.5,27.89,6,40v9h1v10h1v10h1v11h1v12h1v12h1v14h1v17c1.4,5.16-.6,14.22,1,20,1.6,5.81,1,15.56,1,23v8h1v44c0,7.73.7,17.92-1,24v23q-1.5,27.99-3,56h-1v12h-1v10h-1v10h-1v9h-1v9h-1v8h-1v8c-3,10.42-3,23.85-6,34-0.3,4.33-.7,8.67-1,13h-1v5h-1v6h-1v6c-4.6,15.05-6,33.36-11,48-0.3,3-.7,6-1,9-2.4,7.36-4.5,16.68-7,24-0.3,2.67-.7,5.33-1,8h-1v3h-1c-0.7,3.67-1.3,7.33-2,11h-1c-0.3,2.67-.7,5.33-1,8-9.1,24.98-15.7,52.42-26,76-0.3,2-.7,4-1,6h-1v2h-1c-0.3,2-.7,4-1,6h-1v2h-1v3h-1v3h-1v2h-1v3h-1v2h-1v3h-1v2h-1v3h-1v2h-1v3h-1c-0.3,1.33-.7,2.67-1,4h-1c-0.3,1.67-.7,3.33-1,5h-1v3h-1c-0.3,1.33-.7,2.67-1,4h-1v3h-1v2h-1c-0.3,1.33-.7,2.67-1,4h-1v3h-1v2h-1c-0.3,1.33-.7,2.67-1,4h-1v3h-1v2h-1v2h-1c-0.7,2-1.3,4-2,6h-1v3h-1c-0.3,1.33-.7,2.67-1,4h-1c-0.7,2-1.3,4-2,6h-1c-0.3,1.33-.7,2.67-1,4h-1c-0.3,1.33-.7,2.67-1,4h-1v2h-1v2h-1v2h-1v2h-1c-0.3,1.33-.7,2.67-1,4h-1c-0.3,1.33-.7,2.67-1,4h-1v2h-1v2h-1v2h-1v2h-1v2h-1c-0.3,1.33-.7,2.67-1,4-0.7.33-1.3,0.67-2,1v2h-1v2h-1v2h-1v2h-1v2c-0.7.33-1.3,0.67-2,1-0.7,2-1.3,4-2,6h-1v2c-0.7.33-1.3,0.67-2,1v2h-1v2h-1v2h-1v2c-0.7.33-1.3,0.67-2,1-0.7,2-1.3,4-2,6-0.7.33-1.3,0.67-2,1-0.3,1.33-.7,2.67-1,4-0.7.33-1.3,0.67-2,1-0.3,1.33-.7,2.67-1,4-0.7.33-1.3,0.67-2,1-0.3,1.33-.7,2.67-1,4-0.7.33-1.3,0.67-2,1-0.3,1.33-.7,2.67-1,4-0.7.33-1.3,0.67-2,1v2h-1v2h-1c-0.3,1-.7,2-1,3-0.7.33-1.3,0.67-2,1-0.3,1.33-.7,2.67-1,4h-1c-0.3,1-.7,2-1,3-0.7.33-1.3,0.67-2,1-0.3,1.33-.7,2.67-1,4-0.7.33-1.3,0.67-2,1v2c-0.7.33-1.3,0.67-2,1v2c-0.7.33-1.3,0.67-2,1v2c-0.7.33-1.3,0.67-2,1v2c-0.7.33-1.3,0.67-2,1v2c-0.7.33-1.3,0.67-2,1v2h-1c-0.3,1-.7,2-1,3-0.7.33-1.3,0.67-2,1v2c-0.7.33-1.3,0.67-2,1v2h-1c-0.3,1-.7,2-1,3-0.7.33-1.3,0.67-2,1v2c-1,.67-2,1.33-3,2v2h-1c-0.3,1-.7,2-1,3-0.7.33-1.3,0.67-2,1v2c-1,.67-2,1.33-3,2v2c-0.7.33-1.3,0.67-2,1v2c-1,.67-2,1.33-3,2v2c-0.7.33-1.3,0.67-2,1v2c-0.7.33-1.3,0.67-2,1-0.3,1-.7,2-1,3-1,.67-2,1.33-3,2v2c-1,.67-2,1.33-3,2v2c-1,.67-2,1.33-3,2v2c-1,.67-2,1.33-3,2v2c-1,.67-2,1.33-3,2v2c-1.3,1-2.7,2-4,3v2c-0.7.33-1.3,0.67-2,1-0.3,1-.7,2-1,3-1.3,1-2.7,2-4,3v2c-1.3,1-2.7,2-4,3v2c-1.3,1-2.7,2-4,3v2c-1.7,1.33-3.3,2.67-5,4v2c-1.7,1.33-3.3,2.67-5,4v2c-1.7,1.33-3.3,2.67-5,4v2c-2,1.67-4,3.33-6,5v2c-2,1.67-4,3.33-6,5v2c-1.3,1-2.7,2-4,3-0.7,1-1.3,2-2,3h-1v2c-3.3,3-6.7,6-10,9-11.2,15.44-25.7,27.69-39,41-14.3,14.27-27.5,30.04-44,42q-4.5,4.995-9,10h-2q-3,3.495-6,7h-2q-3,3.495-6,7h-2c-1.7,2-3.3,4-5,6h-2c-1.7,2-3.3,4-5,6h-2c-1.3,1.67-2.7,3.33-4,5h-2c-1.3,1.67-2.7,3.33-4,5h-2c-1,1.33-2,2.67-3,4h-2c-1,1.33-2,2.67-3,4h-2c-1,1.33-2,2.67-3,4h-2c-1,1.33-2,2.67-3,4h-2c-1,1.33-2,2.67-3,4h-2c-0.7,1-1.3,2-2,3h-2c-1,1.33-2,2.67-3,4h-2c-0.7,1-1.3,2-2,3h-2c-0.7,1-1.3,2-2,3h-2c-0.7,1-1.3,2-2,3h-2c-0.7,1-1.3,2-2,3h-2c-0.7,1-1.3,2-2,3h-2c-0.7,1-1.3,2-2,3h-2c-0.7,1-1.3,2-2,3h-2c-0.7,1-1.3,2-2,3h-2c-0.3.67-.7,1.33-1,2h-2c-0.7,1-1.3,2-2,3h-2c-0.3.67-.7,1.33-1,2h-2c-0.7,1-1.3,2-2,3h-2c-0.3.67-.7,1.33-1,2h-2c-0.7,1-1.3,2-2,3h-2v1c-1,.33-2,0.67-3,1-0.3.67-.7,1.33-1,2h-2c-0.7,1-1.3,2-2,3h-2c-0.3.67-.7,1.33-1,2-1,.33-2,0.67-3,1v1h-2c-0.3.67-.7,1.33-1,2h-2c-0.3.67-.7,1.33-1,2h-2c-0.3.67-.7,1.33-1,2h-2c-0.3.67-.7,1.33-1,2h-2c-0.3.67-.7,1.33-1,2h-2c-0.3.67-.7,1.33-1,2h-2c-0.3.67-.7,1.33-1,2h-2c-0.3.67-.7,1.33-1,2h-2c-0.3.67-.7,1.33-1,2h-2c-0.3.67-.7,1.33-1,2h-2c-0.3.67-.7,1.33-1,2-1.3.33-2.7,0.67-4,1-0.3.67-.7,1.33-1,2h-2c-0.3.67-.7,1.33-1,2-1,.33-2,0.67-3,1v1c-1.3.33-2.7,0.67-4,1-0.3.67-.7,1.33-1,2h-2c-0.3.67-.7,1.33-1,2-1.3.33-2.7,0.67-4,1v1c-1,.33-2,0.67-3,1-0.3.67-.7,1.33-1,2h-2v1h-2c-0.3.67-.7,1.33-1,2-1.3.33-2.7,0.67-4,1-0.3.67-.7,1.33-1,2-1,.33-2,0.67-3,1v1c-2,.67-4,1.33-6,2-0.3.67-.7,1.33-1,2-1.3.33-2.7,0.67-4,1-0.3.67-.7,1.33-1,2-1.3.33-2.7,0.67-4,1-0.3.67-.7,1.33-1,2-1.3.33-2.7,0.67-4,1-0.3.67-.7,1.33-1,2-2,.67-4,1.33-6,2-0.3.67-.7,1.33-1,2-2,.67-4,1.33-6,2-0.3.67-.7,1.33-1,2h-2v1h-2v1h-2c-0.3.67-.7,1.33-1,2-2,.67-4,1.33-6,2-0.3.67-.7,1.33-1,2h-2v1h-2v1h-2v1h-2c-0.3.7-.7,1.3-1,2h-2v1h-2v1h-2v1h-2v1c-1.3.3-2.7,0.7-4,1-0.3.7-.7,1.3-1,2h-2v1h-2v1h-2v1h-2v1h-2v1h-2c-0.3.7-.7,1.3-1,2-1.3.3-2.7,0.7-4,1v1h-2v1h-2v1h-2v1h-2v1c-1.3.3-2.7,0.7-4,1v1c-1.3.3-2.7,0.7-4,1v1c-2,.7-4,1.3-6,2v1h-2v1h-2c-0.3.7-.7,1.3-1,2-1.7.3-3.3,0.7-5,1v1c-1.3.3-2.7,0.7-4,1v1c-1.3.3-2.7,0.7-4,1v1c-1.3.3-2.7,0.7-4,1v1h-2v1h-2v1h-2v1h-2v1h-2v1h-2v1h-2v1h-2v1c-2,.7-4,1.3-6,2v1h-3v1h-2v1h-2v1h-2v1c-2,.7-4,1.3-6,2v1h-3v1h-2v1c-2,.7-4,1.3-6,2v1c-1.7.3-3.3,0.7-5,1v1c-2,.7-4,1.3-6,2v1h-3v1h-2v1c-1.3.3-2.7,0.7-4,1v1h-3v1c-1.3.3-2.7,0.7-4,1v1h-3v1c-1.3.3-2.7,0.7-4,1v1h-3v1c-1.3.3-2.7,0.7-4,1v1h-3v1c-1.3.3-2.7,0.7-4,1v1h-3v1c-1.3.3-2.7,0.7-4,1v1h-3v1h-2v1h-3v1c-1.7.3-3.3,0.7-5,1v1c-1.3.3-2.7,0.7-4,1v1h-3v1h-2v1h-3v1h-2v1h-3v1h-2v1h-3v1h-2v1c-2,.3-4,0.7-6,1v1h-2v1c-1.7.3-3.3,0.7-5,1v1c-2,.3-4,0.7-6,1v1h-2v1h-3v1h-2v1c-2,.3-4,0.7-6,1v1h-2v1c-3,.7-6,1.3-9,2v1h-2v1c-3,.7-6,1.3-9,2v1h-2v1h-3v1h-3v1h-3v1h-3v1h-2v1h-3v1h-3v1h-3v1h-3v1h-3v1h-3v1h-3v1c-2,.3-4,0.7-6,1-31.6,12.6-67.3,20.3-100,32-6.3,1.3-12.7,2.7-19,4-16.8,6-36.7,9.4-54,15-4.3.7-8.7,1.3-13,2v1l-18,3c-17.7,5.7-38.9,7.5-57,13h-6c-8,2.4-18.9,3.6-27,6h-6c-7.4,2.2-17.6,2.8-25,5h-7c-11.1,3.2-25.7,2.8-37,6h-9v1h-9v1h-10v1h-11v1h-13v1h-17c-10.6,3-27.5,1-40,1-7.1,0-16.5.6-22-1-6.1-1.7-15.6.5-21-1h-10c-6.7-.3-13.3-0.7-20-1v-1c-7.7-.3-15.3-0.7-23-1v-1h-10v-1h-10v-1h-9v-1h-9c-14-4-32.2-3-46-7h-7c-5.6-1.6-13.5-2.4-19-4h-7c-5.2-1.5-12.8-2.4-18-4h-6c-18.3-5.5-40-6.4-58-12-9.7-1.7-19.3-3.3-29-5v-1c-3-.3-6-0.7-9-1v-1h-4v-1c-3-.3-6-0.7-9-1v-1h-5c-24.1-7.9-51.6-11.6-75-20-2.7-.3-5.3-0.7-8-1v-1h-3v-1c-2.3-.3-4.7-0.7-7-1v-1h-4v-1h-4c-17.9-6.5-38.5-11.1-56-18-2.3-.3-4.7-0.7-7-1v-1c-2-.3-4-0.7-6-1v-1h-3v-1h-3v-1h-3v-1h-3v-1h-3v-1c-2-.3-4-0.7-6-1v-1c-2-.3-4-0.7-6-1v-1h-3v-1h-3v-1h-3v-1h-3v-1h-3v-1h-2v-1h-3v-1h-3v-1h-3v-1h-3v-1h-3v-1h-2v-1c-2-.3-4-0.7-6-1v-1h-3v-1h-2v-1c-2-.3-4-0.7-6-1v-1h-3v-1h-2v-1c-2-.3-4-0.7-6-1v-1h-2v-1h-3v-1h-3v-1h-2v-1h-3v-1h-2v-1c-2-.3-4-0.7-6-1v-1h-2v-1h-3v-1h-2v-1c-1.7-.3-3.3-0.7-5-1v-1h-3v-1h-2v-1h-3v-1c-1.7-.3-3.3-0.7-5-1v-1h-2v-1h-3v-1c-1.3-.3-2.7-0.7-4-1v-1h-3v-1h-2v-1h-3v-1c-1.3-.3-2.7-0.7-4-1v-1h-3v-1c-1.3-.3-2.7-0.7-4-1v-1h-3v-1c-1.3-.3-2.7-0.7-4-1v-1h-3v-1c-1.3-.3-2.7-0.7-4-1v-1h-3v-1c-1.3-.3-2.7-0.7-4-1v-1h-3v-1h-2v-1c-2-.7-4-1.3-6-2v-1h-3v-1h-2v-1h-2v-1h-2v-1h-3v-1h-2v-1h-2v-1h-2v-1c-2-.7-4-1.3-6-2v-1h-3v-1c-2-.7-4-1.3-6-2v-1h-2v-1h-2v-1h-2v-1h-2v-1c-1.3-.3-2.7-0.7-4-1v-1h-3v-1h-2v-1c-1.3-.3-2.7-0.7-4-1v-1h-2v-1h-2v-1h-2v-1h-2v-1h-2v-1c-1.3-.3-2.7-0.7-4-1v-1c-1.3-.3-2.7-0.7-4-1v-1h-2v-1h-2v-1h-2v-1h-2v-1c-1.3-.3-2.7-0.7-4-1-0.3-.7-0.7-1.3-1-2h-2v-1h-2v-1h-2v-1h-2v-1h-2v-1h-2v-1h-2v-1h-2v-1h-2c-0.3-.7-0.7-1.3-1-2h-2v-1h-2v-1h-2v-1h-2v-1c-1.3-.3-2.7-0.7-4-1-0.3-.7-0.7-1.3-1-2h-2v-1h-2v-1h-2v-1h-2v-1h-2c-0.3-.67-0.7-1.33-1-2-2-.67-4-1.33-6-2-0.3-.67-0.7-1.33-1-2h-2v-1h-2v-1h-2v-1h-2c-0.3-.67-0.7-1.33-1-2-2-.67-4-1.33-6-2-0.3-.67-0.7-1.33-1-2-1.3-.33-2.7-0.67-4-1-0.3-.67-0.7-1.33-1-2-2-.67-4-1.33-6-2-0.3-.67-0.7-1.33-1-2-1.3-.33-2.7-0.67-4-1-0.3-.67-0.7-1.33-1-2-1.3-.33-2.7-0.67-4-1-0.3-.67-0.7-1.33-1-2-1.3-.33-2.7-0.67-4-1-0.3-.67-0.7-1.33-1-2-1.3-.33-2.7-0.67-4-1v-1c-1-.33-2-0.67-3-1-0.3-.67-0.7-1.33-1-2h-2v-1h-2c-0.3-.67-0.7-1.33-1-2-1.3-.33-2.7-0.67-4-1-0.3-.67-0.7-1.33-1-2h-2c-0.3-.67-0.7-1.33-1-2h-2c-0.3-.67-0.7-1.33-1-2-1.3-.33-2.7-0.67-4-1-0.3-.67-0.7-1.33-1-2h-2c-0.3-.67-0.7-1.33-1-2h-2c-0.3-.67-0.7-1.33-1-2-1.3-.33-2.7-0.67-4-1-0.3-.67-0.7-1.33-1-2h-2c-0.3-.67-0.7-1.33-1-2h-2c-0.3-.67-0.7-1.33-1-2h-2c-0.3-.67-0.7-1.33-1-2h-2c-0.3-.67-0.7-1.33-1-2h-2v-1c-1-.33-2-0.67-3-1-0.3-.67-0.7-1.33-1-2h-2c-0.3-.67-0.7-1.33-1-2h-2v-1c-1-.33-2-0.67-3-1-0.3-.67-0.7-1.33-1-2h-2c-0.7-1-1.3-2-2-3h-2c-0.3-.67-0.7-1.33-1-2h-2v-1c-1-.33-2-0.67-3-1-0.3-.67-0.7-1.33-1-2h-2c-0.7-1-1.3-2-2-3h-2c-0.3-.67-0.7-1.33-1-2h-2c-0.7-1-1.3-2-2-3h-2c-0.3-.67-0.7-1.33-1-2h-2c-0.3-.67-0.7-1.33-1-2-1-.33-2-0.67-3-1-0.7-1-1.3-2-2-3h-2c-0.3-.67-0.7-1.33-1-2h-2c-0.3-.67-0.7-1.33-1-2-1-.33-2-0.67-3-1-0.7-1-1.3-2-2-3h-2c-0.7-1-1.3-2-2-3h-2c-0.7-1-1.3-2-2-3h-2c-0.7-1-1.3-2-2-3h-2c-1-1.33-2-2.67-3-4-1-.33-2-0.67-3-1-0.3-.67-0.7-1.33-1-2h-2c-1-1.33-2-2.67-3-4-1-.33-2-0.67-3-1-0.3-.67-0.7-1.33-1-2h-2c-0.3-.67-0.7-1.33-1-2h-1c-0.3-.67-0.7-1.33-1-2h-2c-1-1.33-2-2.67-3-4h-2c-1.3-1.67-2.7-3.33-4-5h-2c-1-1.33-2-2.67-3-4h-2c-1.3-1.67-2.7-3.33-4-5h-2c-1.7-2-3.3-4-5-6h-2c-1.7-2-3.3-4-5-6h-2c-1.7-2-3.3-4-5-6h-2c-2.3-2.67-4.7-5.33-7-8h-2c-2.7-3-5.3-6-8-9-13.5-9.8-24.3-22.33-36-34-10.5-10.49-22.2-19.83-31-32q-6-5.505-12-11v-2q-4.5-4.005-9-8v-2c-2.3-2-4.7-4-7-6v-2c-2-1.67-4-3.33-6-5v-2c-2-1.67-4-3.33-6-5v-2c-0.7-.33-1.3-0.67-2-1-0.7-1-1.3-2-2-3h-1v-2c-1.7-1.33-3.3-2.67-5-4v-2c-1.3-1-2.7-2-4-3v-2c-1.3-1-2.7-2-4-3v-2c-1.3-1-2.7-2-4-3v-2c-1.3-1-2.7-2-4-3v-2c-1-.67-2-1.33-3-2v-2c-1.3-1-2.7-2-4-3v-2c-1-.67-2-1.33-3-2v-2c-1-.67-2-1.33-3-2v-2c-1-.67-2-1.33-3-2v-2c-1-.67-2-1.33-3-2v-2c-0.7-.33-1.3-0.67-2-1v-2c-0.7-.33-1.3-0.67-2-1-0.3-1-.7-2-1-3-1-.67-2-1.33-3-2v-2c-0.7-.33-1.3-0.67-2-1v-2c-1-.67-2-1.33-3-2v-2c-0.7-.33-1.3-0.67-2-1v-2h-1c-0.3-1-.7-2-1-3-0.7-.33-1.3-0.67-2-1v-2c-1-.67-2-1.33-3-2v-2c-0.7-.33-1.3-0.67-2-1-0.3-1-.7-2-1-3h-1v-2c-0.7-.33-1.3-0.67-2-1v-2c-0.7-.33-1.3-0.67-2-1v-2c-0.7-.33-1.3-0.67-2-1v-2c-0.7-.33-1.3-0.67-2-1-0.3-1.33-.7-2.67-1-4-0.7-.33-1.3-0.67-2-1v-2c-0.7-.33-1.3-0.67-2-1v-2c-0.7-.33-1.3-0.67-2-1v-2c-0.7-.33-1.3-0.67-2-1-0.3-1.33-.7-2.67-1-4h-1c-0.3-1-.7-2-1-3-0.7-.33-1.3-0.67-2-1v-2h-1v-2c-0.7-.33-1.3-0.67-2-1-0.3-1.33-.7-2.67-1-4-0.7-.33-1.3-0.67-2-1-0.3-1.33-.7-2.67-1-4-0.7-.33-1.3-0.67-2-1-0.3-1.33-.7-2.67-1-4-0.7-.33-1.3-0.67-2-1-0.3-1.33-.7-2.67-1-4-0.7-.33-1.3-0.67-2-1v-2h-1v-2h-1v-2c-0.7-.33-1.3-0.67-2-1-0.7-2-1.3-4-2-6-0.7-.33-1.3-0.67-2-1v-2h-1v-2h-1v-2h-1v-2c-0.7-.33-1.3-0.67-2-1v-2h-1v-2h-1v-2h-1v-2h-1v-2h-1v-2c-0.7-.33-1.3-0.67-2-1-0.3-1.33-.7-2.67-1-4h-1v-2h-1v-2h-1v-2h-1v-2h-1c-0.3-1.33-.7-2.67-1-4h-1c-0.3-1.33-.7-2.67-1-4h-1c-0.3-1.33-.7-2.67-1-4h-1c-0.3-1.33-.7-2.67-1-4h-1v-2h-1v-2h-1v-2h-1v-2h-1v-2h-1c-0.3-1.33-.7-2.67-1-4h-1v-2h-1v-3h-1v-2h-1v-2h-1c-0.7-2-1.3-4-2-6h-1v-3h-1v-2h-1c-0.3-1.33-.7-2.67-1-4h-1v-3h-1v-2h-1c-0.3-1.33-.7-2.67-1-4h-1v-3h-1c-0.3-1.33-.7-2.67-1-4h-1v-3h-1v-2h-1v-3h-1c-0.3-1.33-.7-2.67-1-4h-1v-3h-1v-2h-1v-3h-1v-2h-1c-0.3-1.67-.7-3.33-1-5h-1v-3h-1v-2h-1c-0.3-2-.7-4-1-6h-1v-2h-1c-0.3-2-.7-4-1-6h-1v-2h-1c-0.7-3-1.3-6-2-9h-1v-2h-1c-1.7-6-3.3-12-5-18-7.2-18.16-12.3-39.16-19-58-0.7-4-1.3-8-2-12-5.4-15.01-8-33.41-13-49-1.3-8-2.7-16-4-24h-1v-6c-3-9.95-4-22.89-7-33v-7c-3.1-10.46-2.9-24.32-6-35-0.3-5.33-.7-10.67-1-16h-1v-10h-1v-9h-1v-11h-1v-11h-1v-13h-1v-15h-1v-18h-1v-26c-1.6-5.81-1-15.56-1-23v-43c0-10.09-1.3-23.66,1-32v-34h1v-24c1.4-4.86-.6-13.53,1-19h1v-17h1v-16h1v-13s0.8-.05,1-2v-11h1v-12h1c0.3-7.33.7-14.67,1-22h1v-10h1v-9c3.7-12.96,2.3-30.16,6-43v-8h1c0.3-5,.7-10,1-15h1v-7h1v-7h1v-7c3.9-13.15,4.1-30.03,8-43,0.7-6,1.3-12,2-18,4.4-14.32,5.6-31.8,10-46,0.3-3.33.7-6.67,1-10h1v-4h1v-5h1v-5h1v-4h1c0.3-3,.7-6,1-9h1v-5c8.6-26.47,12.8-56.4,22-82v-4h1v-4h1v-3h1v-4c9-24.78,15.4-51.99,25-76,0.3-2,.7-4,1-6h1v-3h1v-3h1v-3h1v-3h1v-3h1v-3h1v-2h1c0.3-2,.7-4,1-6h1v-3h1v-2h1c0.3-2,.7-4,1-6h1v-3h1v-2h1c0.3-2,.7-4,1-6h1v-2h1v-3h1v-3h1v-2h1v-3h1v-2h1c0.3-2,.7-4,1-6h1v-2h1v-3h1v-2h1c0.3-1.67.7-3.33,1-5h1v-3h1c0.3-1.67.7-3.33,1-5h1v-2h1v-3h1c0.3-1.33.7-2.67,1-4h1v-3h1v-2h1v-3h1c0.3-1.33.7-2.67,1-4h1v-3h1c0.3-1.33.7-2.67,1-4h1v-3h1c0.3-1.33.7-2.67,1-4h1v-3h1c0.3-1.33.7-2.67,1-4h1v-3h1v-2h1c0.3-1.33.7-2.67,1-4h1v-3h1v-2h1c0.7-2,1.3-4,2-6h1v-3h1v-2h1v-2h1c0.7-2,1.3-4,2-6h1v-3h1c0.3-1.33.7-2.67,1-4h1v-2h1v-2h1v-2h1c0.7-2,1.3-4,2-6h1v-3h1v-2h1c0.3-1.33.7-2.67,1-4h1c0.3-1.33.7-2.67,1-4h1v-2h1v-2h1v-2h1v-2h1v-2h1v-2h1v-2h1v-2h1v-2h1v-2h1v-2h1v-2c0.7-.33,1.3-0.67,2-1v-2h1v-2h1v-2h1v-2h1v-2h1v-2h1v-2h1v-2h1v-2h1v-2c0.7-.33,1.3-0.67,2-1v-2h1v-2h1v-2h1v-2h1v-2h1v-2c0.7-.33,1.3-0.67,2-1v-2h1v-2h1v-2h1v-2c0.7-.33,1.3-0.67,2-1v-2h1v-2h1v-2h1v-2c0.7-.33,1.3-0.67,2-1v-2h1v-2h1v-2c0.7-.33,1.3-0.67,2-1,0.7-2,1.3-4,2-6,0.7-.33,1.3-0.67,2-1v-2h1v-2c0.7-.33,1.3-0.67,2-1,0.7-2,1.3-4,2-6,0.7-.33,1.3-0.67,2-1,0.3-1.33.7-2.67,1-4,0.7-.33,1.3-0.67,2-1,0.3-1.33.7-2.67,1-4,0.7-.33,1.3-0.67,2-1,0.3-1.33.7-2.67,1-4,0.7-.33,1.3-0.67,2-1v-2h1v-2h1c0.3-1,.7-2,1-3,0.7-.33,1.3-0.67,2-1v-2h1v-2c0.7-.33,1.3-0.67,2-1,0.3-1.33.7-2.67,1-4,0.7-.33,1.3-0.67,2-1v-2c0.7-.33,1.3-0.67,2-1,0.3-1,.7-2,1-3h1c0.3-1.33.7-2.67,1-4,0.7-.33,1.3-0.67,2-1v-2c0.7-.33,1.3-0.67,2-1v-2c0.7-.33,1.3-0.67,2-1,0.3-1.33.7-2.67,1-4,0.7-.33,1.3-0.67,2-1v-2c0.7-.33,1.3-0.67,2-1v-2h1c0.3-1,.7-2,1-3,0.7-.33,1.3-0.67,2-1v-2c0.7-.33,1.3-0.67,2-1v-2c0.7-.33,1.3-0.67,2-1v-2c0.7-.33,1.3-0.67,2-1v-2c0.7-.33,1.3-0.67,2-1v-2h1c0.3-1,.7-2,1-3,0.7-.33,1.3-0.67,2-1v-2c1-.67,2-1.33,3-2v-2c0.7-.33,1.3-0.67,2-1,0.3-1,.7-2,1-3h1v-2c0.7-.33,1.3-0.67,2-1v-2c1-.67,2-1.33,3-2v-2c0.7-.33,1.3-0.67,2-1v-2c1-.67,2-1.33,3-2v-2c0.7-.33,1.3-0.67,2-1v-2c1-.67,2-1.33,3-2v-2c0.7-.33,1.3-0.67,2-1v-2c0.7-.33,1.3-0.67,2-1,0.3-1,.7-2,1-3,1-.67,2-1.33,3-2v-2c0.7-.33,1.3-0.67,2-1v-2c1-.67,2-1.33,3-2v-2c1-.67,2-1.33,3-2v-2c1-.67,2-1.33,3-2v-2c1.3-1,2.7-2,4-3v-2c1-.67,2-1.33,3-2v-2c1-.67,2-1.33,3-2v-2c1.3-1,2.7-2,4-3,0.3-1,.7-2,1-3,0.7-.33,1.3-0.67,2-1v-2c0.7-.33,1.3-0.67,2-1v-1c0.7-.33,1.3-0.67,2-1v-2c1.3-1,2.7-2,4-3v-2c0.7-.33,1.3-0.67,2-1v-1c0.7-.33,1.3-0.67,2-1v-2c1.3-1,2.7-2,4-3v-2c0.7-.33,1.3-0.67,2-1,0.7-1,1.3-2,2-3h1v-2c1.7-1.33,3.3-2.67,5-4v-2c1.7-1.33,3.3-2.67,5-4v-2c2-1.67,4-3.33,6-5v-2c2-1.67,4-3.33,6-5v-2c2.3-2,4.7-4,7-6v-2c2.7-2.33,5.3-4.67,8-7v-2q4.5-4.005,9-8v-2q6-5.505,12-11c6.2-8.51,13.7-14.7,21-22,4.3-5,8.7-10,13-15h2c2.7-3,5.3-6,8-9,6-6.04,12-11.92,19-17,3.7-4,7.3-8,11-12h2c2.7-3,5.3-6,8-9h2c2.3-2.67,4.7-5.33,7-8h2c1.7-2,3.3-4,5-6h2c1.7-2,3.3-4,5-6h2c0.7-1,1.3-2,2-3h1c0.3-.67.7-1.33,1-2h2c1.7-2,3.3-4,5-6h2c0.3-.67.7-1.33,1-2h1c0.3-.67.7-1.33,1-2h2c1-1.33,2-2.67,3-4h2c0.3-.67.7-1.33,1-2h1c0.3-.67.7-1.33,1-2h2c1-1.33,2-2.67,3-4h2c1-1.33,2-2.67,3-4h2c0.3-.67.7-1.33,1-2,1-.33,2-0.67,3-1,1-1.33,2-2.67,3-4h2c0.7-1,1.3-2,2-3h2c0.7-1,1.3-2,2-3,1-.33,2-0.67,3-1,0.3-.67.7-1.33,1-2h2c0.3-.67.7-1.33,1-2h2c0.7-1,1.3-2,2-3h2c0.7-1,1.3-2,2-3h2c0.3-.67.7-1.33,1-2h2c0.7-1,1.3-2,2-3h2c0.3-.67.7-1.33,1-2h2c0.7-1,1.3-2,2-3h2c0.3-.67.7-1.33,1-2,1-.33,2-0.67,3-1v-1h2c0.3-.67.7-1.33,1-2h2c0.3-.67.7-1.33,1-2h2c0.3-.67.7-1.33,1-2h2c0.3-.67.7-1.33,1-2h2c0.3-.67.7-1.33,1-2h2c0.3-.67.7-1.33,1-2h2c0.3-.67.7-1.33,1-2,1.3-.33,2.7-0.67,4-1v-1c1-.33,2-0.67,3-1,0.3-.67.7-1.33,1-2,1.3-.33,2.7-0.67,4-1,0.3-.67.7-1.33,1-2h2c0.3-.67.7-1.33,1-2,2-.67,4-1.33,6-2,0.3-.67.7-1.33,1-2h2C13046.5,7543.56,13047.5,7541.81,13051,7541Z" transform="translate(-8840.34 -6713.56)"/>
</svg>
