<svg xmlns="http://www.w3.org/2000/svg" width="40" height="40" viewBox="0 0 40 40">
  <g id="Icon" transform="translate(-118)">
    <g id="Melee2" transform="translate(124.98 5.644)">
      <path id="Union_7" data-name="Union 7" d="M13.624,27.392l-1.137-4.865,4.791-4.989,4.633-.363,4.336,2.559v5.776l-1.122,1.883ZM.471,19.1,1.1,14.706,5.1,18.551v.975l.707.974.864-1.949L.55,12.705,0,6.368H2.67l.314-2.159L6.2,4.131l.157-2.182h3.3L10.6,0l5.811,2.572,5.5,13.64-5.34.234-5.1,5.5-7.892.582Z" fill="#f15c5c"/>
    </g>
    <path id="Rectangle_244" data-name="Rectangle 244" d="M5.063,2.025A3.041,3.041,0,0,0,2.025,5.063V34.937a3.041,3.041,0,0,0,3.038,3.038H34.937a3.041,3.041,0,0,0,3.038-3.038V5.063a3.041,3.041,0,0,0-3.038-3.038H5.063M5.063,0H34.937A5.063,5.063,0,0,1,40,5.063V34.937A5.063,5.063,0,0,1,34.937,40H5.063A5.063,5.063,0,0,1,0,34.937V5.063A5.063,5.063,0,0,1,5.063,0Z" transform="translate(118)" fill="#f15c5c"/>
  </g>
</svg>
