<svg xmlns="http://www.w3.org/2000/svg" width="40" height="40" viewBox="0 0 40 40">
  <g id="Icon" transform="translate(-118)">
    <g id="Caster2" transform="translate(124.04 6.041)">
      <path id="Union_6" data-name="Union 6" d="M6.433,28.083V19.067L1.649,23.533,0,3.185,4.783,16.337l3.01-2.564,7.793,14.31ZM14.076,7.817,16.632,4.8,3.519,0,23.807,1.654l-4.453,4.8h8.989v9.183Z" fill="#f15c5c"/>
    </g>
    <path id="Rectangle_244" data-name="Rectangle 244" d="M5.063,2.025A3.041,3.041,0,0,0,2.025,5.063V34.937a3.041,3.041,0,0,0,3.038,3.038H34.937a3.041,3.041,0,0,0,3.038-3.038V5.063a3.041,3.041,0,0,0-3.038-3.038H5.063M5.063,0H34.937A5.063,5.063,0,0,1,40,5.063V34.937A5.063,5.063,0,0,1,34.937,40H5.063A5.063,5.063,0,0,1,0,34.937V5.063A5.063,5.063,0,0,1,5.063,0Z" transform="translate(118)" fill="#f15c5c"/>
  </g>
</svg>
