<svg xmlns="http://www.w3.org/2000/svg" xmlns:xlink="http://www.w3.org/1999/xlink" width="173" height="173" viewBox="0 0 173 173">
  <defs>
    <filter id="Rectangle_244" x="0" y="0" width="173" height="173" filterUnits="userSpaceOnUse">
      <feOffset dx="2" dy="2" input="SourceAlpha"/>
      <feGaussianBlur stdDeviation="2.5" result="blur"/>
      <feFlood flood-color="#6a1d1d"/>
      <feComposite operator="in" in2="blur"/>
      <feComposite in="SourceGraphic"/>
    </filter>
    <filter id="Union_6" x="29" y="29" width="115" height="113.785" filterUnits="userSpaceOnUse">
      <feOffset dx="2" dy="2" input="SourceAlpha"/>
      <feGaussianBlur stdDeviation="2.5" result="blur-2"/>
      <feFlood flood-color="#6a1d1d"/>
      <feComposite operator="in" in2="blur-2"/>
      <feComposite in="SourceGraphic"/>
    </filter>
  </defs>
  <g id="Icon" transform="translate(-105.5 -154.5)">
    <g transform="matrix(1, 0, 0, 1, 105.5, 154.5)" filter="url(#Rectangle_244)">
      <g id="Rectangle_244-2" data-name="Rectangle 244" transform="translate(5.5 5.5)" fill="none" stroke="#fff" stroke-width="8">
        <rect width="158" height="158" rx="20" stroke="none"/>
        <rect x="4" y="4" width="150" height="150" rx="16" fill="none"/>
      </g>
    </g>
    <g id="Caster2" transform="translate(140 189)">
      <g transform="matrix(1, 0, 0, 1, -34.5, -34.5)" filter="url(#Union_6)">
        <path id="Union_6-2" data-name="Union 6" d="M1838.7-2889.215v-31.714l-16.878,15.709L1816-2976.8l16.877,46.265,10.621-9.021,27.5,50.338Zm26.968-71.288,9.017-10.62L1828.418-2988l71.58,5.819-15.712,16.876H1916v32.3Z" transform="translate(-1781.5 3022.5)" fill="#fff"/>
      </g>
    </g>
  </g>
</svg>
