<svg xmlns="http://www.w3.org/2000/svg" width="40" height="40" viewBox="0 0 40 40">
  <g id="Icon" transform="translate(-118)">
    <g id="Tank2" transform="translate(124.967 5.631)">
      <path id="Subtraction_2" data-name="Subtraction 2" d="M12.889,28.465h0a16.945,16.945,0,0,1-1.818-1.138A27.548,27.548,0,0,1,7.03,23.852,26.284,26.284,0,0,1,2.676,17.8,25.31,25.31,0,0,1,0,9a5.087,5.087,0,0,0,1.181-.25A3.044,3.044,0,0,0,2.94,7.41c.517-.971.29-2.3-.676-3.937L12.889,0,23.513,3.472c-.966,1.642-1.193,2.966-.676,3.938A3.047,3.047,0,0,0,24.6,8.748a5.268,5.268,0,0,0,1.18.25h0A25.307,25.307,0,0,1,23.1,17.8a26.294,26.294,0,0,1-4.355,6.051,24.6,24.6,0,0,1-5.857,4.613Zm0-25.042L4.517,6.158l.268.457A4.331,4.331,0,0,1,5.4,8.174a1.472,1.472,0,0,1-.127.89C4.831,9.9,3.491,10,3.479,10l-.448.029.052.447A19.078,19.078,0,0,0,8.3,21.508a18.769,18.769,0,0,0,4.4,3.467l.178.089.182-.078a18,18,0,0,0,4.4-3.454,19.547,19.547,0,0,0,3.241-4.5,18.846,18.846,0,0,0,2-6.559l.052-.447L22.3,10c-.013,0-1.351-.1-1.792-.932a1.461,1.461,0,0,1-.125-.89,4.344,4.344,0,0,1,.61-1.559l.27-.457L12.889,3.423Zm0,20.683h0c-.231-.132-.607-.36-1.085-.695a19.634,19.634,0,0,1-2.891-2.492A18.253,18.253,0,0,1,3.983,10.784,2.926,2.926,0,0,0,6.025,9.466a3.031,3.031,0,0,0-.25-2.821l7.114-2.324L20,6.646a3.034,3.034,0,0,0-.248,2.821,2.921,2.921,0,0,0,2.041,1.316,18.272,18.272,0,0,1-4.919,10.125,18.426,18.426,0,0,1-3.988,3.2Z" fill="#4d8be6"/>
    </g>
    <path id="Rectangle_244" data-name="Rectangle 244" d="M5.063,2.025A3.041,3.041,0,0,0,2.025,5.063V34.937a3.041,3.041,0,0,0,3.038,3.038H34.937a3.041,3.041,0,0,0,3.038-3.038V5.063a3.041,3.041,0,0,0-3.038-3.038H5.063M5.063,0H34.937A5.063,5.063,0,0,1,40,5.063V34.937A5.063,5.063,0,0,1,34.937,40H5.063A5.063,5.063,0,0,1,0,34.937V5.063A5.063,5.063,0,0,1,5.063,0Z" transform="translate(118)" fill="#4d8be6"/>
  </g>
</svg>
