<svg xmlns="http://www.w3.org/2000/svg" xmlns:xlink="http://www.w3.org/1999/xlink" width="173" height="173" viewBox="0 0 173 173">
  <defs>
    <filter id="Rectangle_244" x="0" y="0" width="173" height="173" filterUnits="userSpaceOnUse">
      <feOffset dx="2" dy="2" input="SourceAlpha"/>
      <feGaussianBlur stdDeviation="2.5" result="blur"/>
      <feFlood flood-color="#6a1d1d"/>
      <feComposite operator="in" in2="blur"/>
      <feComposite in="SourceGraphic"/>
    </filter>
    <filter id="Union_7" x="30.45" y="27" width="112.1" height="119" filterUnits="userSpaceOnUse">
      <feOffset dx="2" dy="2" input="SourceAlpha"/>
      <feGaussianBlur stdDeviation="2.5" result="blur-2"/>
      <feFlood flood-color="#6a1d1d"/>
      <feComposite operator="in" in2="blur-2"/>
      <feComposite in="SourceGraphic"/>
    </filter>
  </defs>
  <g id="Icon" transform="translate(-105.5 -154.5)">
    <g transform="matrix(1, 0, 0, 1, 105.5, 154.5)" filter="url(#Rectangle_244)">
      <g id="Rectangle_244-2" data-name="Rectangle 244" transform="translate(5.5 5.5)" fill="none" stroke="#fff" stroke-width="8">
        <rect width="158" height="158" rx="20" stroke="none"/>
        <rect x="4" y="4" width="150" height="150" rx="16" fill="none"/>
      </g>
    </g>
    <g id="Melee2" transform="translate(141.45 187)">
      <g transform="matrix(1, 0, 0, 1, -35.95, -32.5)" filter="url(#Union_7)">
        <path id="Union_7-2" data-name="Union 7" d="M1866.4-2884l-4.206-18.472,17.723-18.942,17.141-1.38,16.041,9.715v21.929l-4.153,7.15Zm-48.657-31.493,2.323-16.672,14.818,14.6v3.7l2.614,3.7,3.2-7.4-22.663-22.194L1816-2963.823h9.877l1.163-8.2,11.914-.3.58-8.285h12.2l3.486-7.4,21.5,9.767,20.338,51.788-19.756.889-18.885,20.876-29.2,2.208Z" transform="translate(-1780.05 3020.5)" fill="#fff"/>
      </g>
    </g>
  </g>
</svg>
