<svg xmlns="http://www.w3.org/2000/svg" width="40" height="40" viewBox="0 0 40 40">
  <g id="Icon" transform="translate(-118)">
    <g id="Ranged2" transform="translate(124.22 6.221)">
      <path id="Path_34" data-name="Path 34" d="M115.866,131.094l3.264-3.264-13.38-4.475,4.477,13.377,3.265-3.264,8.329,8.328v3.6l5.516,5.515.693-5.281,5.282-.694-5.516-5.515h-3.6Z" transform="translate(-105.751 -123.354)" fill="#f15c5c"/>
    </g>
    <path id="Rectangle_244" data-name="Rectangle 244" d="M5.063,2.025A3.041,3.041,0,0,0,2.025,5.063V34.937a3.041,3.041,0,0,0,3.038,3.038H34.937a3.041,3.041,0,0,0,3.038-3.038V5.063a3.041,3.041,0,0,0-3.038-3.038H5.063M5.063,0H34.937A5.063,5.063,0,0,1,40,5.063V34.937A5.063,5.063,0,0,1,34.937,40H5.063A5.063,5.063,0,0,1,0,34.937V5.063A5.063,5.063,0,0,1,5.063,0Z" transform="translate(118)" fill="#f15c5c"/>
  </g>
</svg>
