<svg xmlns="http://www.w3.org/2000/svg" xmlns:xlink="http://www.w3.org/1999/xlink" width="173" height="173" viewBox="0 0 173 173">
  <defs>
    <filter id="Rectangle_244" x="0" y="0" width="173" height="173" filterUnits="userSpaceOnUse">
      <feOffset dx="2" dy="2" input="SourceAlpha"/>
      <feGaussianBlur stdDeviation="2.5" result="blur"/>
      <feFlood flood-color="#6a1d1d"/>
      <feComposite operator="in" in2="blur"/>
      <feComposite in="SourceGraphic"/>
    </filter>
    <filter id="Path_34" x="29" y="29" width="115" height="114.996" filterUnits="userSpaceOnUse">
      <feOffset dx="2" dy="2" input="SourceAlpha"/>
      <feGaussianBlur stdDeviation="2.5" result="blur-2"/>
      <feFlood flood-color="#6a1d1d"/>
      <feComposite operator="in" in2="blur-2"/>
      <feComposite in="SourceGraphic"/>
    </filter>
  </defs>
  <g id="Icon" transform="translate(-105.5 -154.5)">
    <g transform="matrix(1, 0, 0, 1, 105.5, 154.5)" filter="url(#Rectangle_244)">
      <g id="Rectangle_244-2" data-name="Rectangle 244" transform="translate(5.5 5.5)" fill="none" stroke="#fff" stroke-width="8">
        <rect width="158" height="158" rx="20" stroke="none"/>
        <rect x="4" y="4" width="150" height="150" rx="16" fill="none"/>
      </g>
    </g>
    <g id="Ranged2" transform="translate(140 189)">
      <g transform="matrix(1, 0, 0, 1, -34.5, -34.5)" filter="url(#Path_34)">
        <path id="Path_34-2" data-name="Path 34" d="M142.451,151.437l11.843-11.844-48.542-16.239,16.242,48.54,11.844-11.843,30.219,30.219v13.07l20.014,20.01,2.516-19.162,19.165-2.518-20.013-20.01H172.67Z" transform="translate(-71.25 -88.85)" fill="#fff"/>
      </g>
    </g>
  </g>
</svg>
