<svg xmlns="http://www.w3.org/2000/svg" width="40" height="40" viewBox="0 0 40 40">
  <g id="Icon" transform="translate(-118)">
    <g id="Healer2" transform="translate(124.034 6.036)">
      <path id="Union_8" data-name="Union 8" d="M9.267,25.33c3.815-13.537-7.174-5.672-7.174-5.672-4.426-5.521-.458-11.269-.458-11.269,13.355,7.261,7.326-5.294,7.326-5.294,4.79-6.542,10.074-.681,10.073-.681-3.892,13.235,7.555,5.6,7.555,5.6,3.969,5.143,0,12.1,0,12.1-12.363-7.714-7.1,5.672-7.1,5.672a9.114,9.114,0,0,1-5.208,1.872A6.712,6.712,0,0,1,9.267,25.33Z" transform="translate(0 0)" fill="#61ce7e"/>
    </g>
    <path id="Rectangle_244" data-name="Rectangle 244" d="M5.063,2.025A3.041,3.041,0,0,0,2.025,5.063V34.937a3.041,3.041,0,0,0,3.038,3.038H34.937a3.041,3.041,0,0,0,3.038-3.038V5.063a3.041,3.041,0,0,0-3.038-3.038H5.063M5.063,0H34.937A5.063,5.063,0,0,1,40,5.063V34.937A5.063,5.063,0,0,1,34.937,40H5.063A5.063,5.063,0,0,1,0,34.937V5.063A5.063,5.063,0,0,1,5.063,0Z" transform="translate(118)" fill="#61ce7e"/>
  </g>
</svg>
