<svg xmlns="http://www.w3.org/2000/svg" width="90" height="90" viewBox="0 0 90 90">
  <g id="Icon" transform="translate(-118 -210.916)">
    <g id="Tank2" transform="translate(131 220.913)">
      <path id="Subtraction_2" data-name="Subtraction 2" d="M31.675,69.4h0a42,42,0,0,1-4.468-2.775,67.571,67.571,0,0,1-9.932-8.473A64.078,64.078,0,0,1,6.576,43.4,61.349,61.349,0,0,1,0,21.934a12.616,12.616,0,0,0,2.9-.608,7.478,7.478,0,0,0,4.325-3.261c1.27-2.368.711-5.6-1.661-9.6L31.675,0,57.783,8.464c-2.374,4-2.932,7.232-1.662,9.6a7.476,7.476,0,0,0,4.324,3.261,12.974,12.974,0,0,0,2.9.608h0A61.325,61.325,0,0,1,56.77,43.4a64.127,64.127,0,0,1-10.7,14.751A60.466,60.466,0,0,1,31.675,69.4Zm0-61.052L11.1,15.014l.658,1.112a10.5,10.5,0,0,1,1.5,3.8,3.563,3.563,0,0,1-.312,2.169c-1.081,2.03-4.373,2.271-4.4,2.271l-1.1.07.128,1.088A46.372,46.372,0,0,0,20.385,52.435,46.052,46.052,0,0,0,31.2,60.887l.437.217.447-.189a44.244,44.244,0,0,0,10.823-8.42,47.642,47.642,0,0,0,7.964-10.979,45.65,45.65,0,0,0,4.9-15.99l.129-1.088-1.105-.07c-.031,0-3.319-.241-4.4-2.271a3.539,3.539,0,0,1-.308-2.169,10.544,10.544,0,0,1,1.5-3.8l.663-1.112L31.675,8.345Zm0,50.424h0c-.569-.323-1.493-.879-2.667-1.694A48.151,48.151,0,0,1,21.9,51,44.36,44.36,0,0,1,9.789,26.289c1.378-.275,3.86-1.056,5.017-3.211.976-1.819.771-4.133-.613-6.878l17.482-5.665L49.153,16.2c-1.381,2.746-1.585,5.061-.609,6.878,1.15,2.152,3.637,2.935,5.016,3.209A44.4,44.4,0,0,1,41.471,50.971a45.271,45.271,0,0,1-9.8,7.8Z" transform="translate(0 0.001)" fill="#fff"/>
    </g>
    <path id="Rectangle_244" data-name="Rectangle 244" d="M11.392,4.557a6.843,6.843,0,0,0-6.835,6.835V78.608a6.843,6.843,0,0,0,6.835,6.835H78.608a6.843,6.843,0,0,0,6.835-6.835V11.392a6.843,6.843,0,0,0-6.835-6.835H11.392m0-4.557H78.608A11.392,11.392,0,0,1,90,11.392V78.608A11.392,11.392,0,0,1,78.608,90H11.392A11.392,11.392,0,0,1,0,78.608V11.392A11.392,11.392,0,0,1,11.392,0Z" transform="translate(118 210.916)" fill="#fff"/>
  </g>
</svg>
