<svg width="97" height="121" viewBox="0 0 97 121" fill="none" xmlns="http://www.w3.org/2000/svg">
<path fill-rule="evenodd" clip-rule="evenodd" d="M86.12 12.78C85.7686 12.1454 85.4335 11.4959 85.0979 10.8457L85.0979 10.8456L85.0978 10.8454L85.0977 10.8451L85.0974 10.8447C83.8099 8.34936 82.5168 5.84331 80.28 4.13C79.85 5.88 79.8 7.65001 80.12 9.43001C79.5504 14.7866 77.9321 19.7336 74.4667 23.9619L74.46 23.96V23.97L74.4667 23.9619L74.5372 23.9815L74.5378 23.9817C74.6759 24.0202 74.8141 24.0587 74.9507 24.0986L74.9445 24.111C74.8165 24.0738 74.6872 24.0378 74.5578 24.0017L74.5572 24.0015L74.48 23.98C73.9301 24.2483 73.3813 24.5154 72.8332 24.7822L72.8187 24.7892L72.8149 24.7911L72.8135 24.7918L72.8134 24.7918L72.8133 24.7918L72.8105 24.7932L72.8065 24.7951L72.8054 24.7957L72.8042 24.7963C71.7276 25.3203 70.6538 25.843 69.58 26.37L69.49 26.6L69.4725 26.5835L69.56 26.36L69.38 26.2L69.3 26.42L69.31 26.43C68.2428 26.4799 67.1782 26.5272 66.1135 26.5746L66.113 26.5746L66.1126 26.5746L66.1121 26.5747L66.1119 26.5747L66.1117 26.5747L66.1114 26.5747L66.1112 26.5747L66.111 26.5747L66.1107 26.5747L66.1105 26.5747L66.1103 26.5747L66.1101 26.5748L66.1098 26.5748L66.1096 26.5748L66.1094 26.5748L66.1091 26.5748L66.1089 26.5748L66.1087 26.5748L66.1085 26.5748L66.1082 26.5748L66.108 26.5749L66.1078 26.5749L66.1075 26.5749L66.1073 26.5749L66.1071 26.5749L66.1068 26.5749L66.1066 26.5749L66.1064 26.5749L66.1062 26.575L66.1059 26.575L66.1057 26.575L66.1055 26.575L66.1052 26.575L66.105 26.575L66.1048 26.575L66.1046 26.575L66.1043 26.575C65.0371 26.6225 63.9698 26.67 62.9 26.72C62.72 26.99 62.47 27.09 62.15 27.02L61.88 27.08C61.82 27.295 61.7625 27.5075 61.705 27.72C61.6475 27.9325 61.59 28.145 61.53 28.36C61.77 29.44 61.4 30.24 60.37 30.7C57.83 41.06 56.5 51.34 62.44 61.12L62.4425 61.1159C69.3396 77.7841 67.8098 94.9921 65.8 112.25C65.7605 112.588 65.6305 112.966 65.4985 113.35C65.1624 114.327 64.8141 115.339 65.92 115.82C67.0203 116.302 67.7466 115.197 68.3784 114.235L68.3784 114.235C68.5333 114 68.6824 113.773 68.83 113.58C75.68 104.64 77.83 94.06 79.23 83.24H79.24C79.325 82.9899 79.4126 82.7424 79.5001 82.4948C79.5876 82.2474 79.675 81.9999 79.76 81.75C79.77 81.28 79.77 80.81 79.77 80.34C80.1232 79.0275 80.4255 77.2866 80.7527 75.4019C81.5 71.0976 82.3774 66.0433 84.29 63.63C85.6786 61.868 86.8765 61.8659 87.9236 61.864C88.6712 61.8627 89.3418 61.8615 89.95 61.22C94.5197 56.4003 94.33 43.8216 93.6301 36.8414L93.64 36.83L93.52 33.2L93.16 31.85C92.23 24.97 90.38 18.43 86.12 12.78ZM61.88 27.08C61.8278 27.2672 61.7774 27.4544 61.7273 27.6407L61.7267 27.643L61.7258 27.6465L61.7257 27.6467L61.7257 27.647L61.7256 27.6472L61.7255 27.6475L61.7254 27.6477C61.7762 27.459 61.8271 27.2695 61.88 27.08ZM78.7507 30.406L78.734 30.4123L78.89 30.71C77.7559 33.5123 75.5154 34.1383 73.27 34.7657C71.4369 35.2779 69.6005 35.7911 68.36 37.49C66.5238 40.0068 66.6608 43.5698 66.7829 46.746V46.7461V46.7462V46.7463V46.7464V46.7465V46.7467V46.7468V46.7469V46.747V46.7471V46.7473V46.7474V46.7475V46.7476V46.7477V46.7478V46.7479V46.7479V46.7481V46.7482V46.7483L66.7829 46.7488C66.815 47.5812 66.846 48.3869 66.8401 49.1403C67.4111 51.705 68.294 54.1999 69.1772 56.6955L69.1773 56.6957L69.1773 56.6957L69.1773 56.6958L69.1773 56.6959L69.1774 56.696L69.1774 56.6961L69.1774 56.6961L69.1774 56.6962L69.1775 56.6963L69.1775 56.6964L69.1775 56.6965L69.1775 56.6965L69.1775 56.6966L69.1776 56.6967L69.1776 56.6968L69.1776 56.6969L69.1776 56.6969L69.1777 56.697L69.1777 56.6971L69.1777 56.6972L69.1777 56.6973L69.1777 56.6973L69.1778 56.6974L69.1778 56.6975L69.1778 56.6976L69.1778 56.6977L69.1779 56.6977L69.1779 56.6978L69.1779 56.6979L69.1779 56.698L69.178 56.6981L69.178 56.6981L69.178 56.6982L69.178 56.6983L69.178 56.6984L69.1781 56.6985L69.1781 56.6985L69.1781 56.6986L69.1781 56.6987L69.1782 56.6988C70.9082 61.5876 72.639 66.4787 72.03 71.9L72.03 71.91C72.1514 72.5722 72.2759 73.2345 72.4 73.895L72.4003 73.8969L72.4007 73.8988L72.4011 73.9007L72.4048 73.9205C72.504 74.4484 72.603 74.9752 72.7 75.5C73.8198 75.2283 74.0088 74.3947 74.198 73.5606C74.2943 73.1358 74.3907 72.7109 74.61 72.36C73.639 66.3226 74.9231 60.4886 76.2056 54.6624L76.36 53.96C76.57 52.98 77.25 52.23 78.42 52.23H78.43C78.4874 52.2861 78.5444 52.3425 78.6009 52.3991L78.6059 52.3941C78.5492 52.3373 78.4921 52.2808 78.4345 52.2244C79.4143 51.0295 80.8021 50.8597 82.2 50.7C83.3956 51.3636 84.5028 51.3105 85.5759 50.99C84.5028 51.3087 83.3989 51.3587 82.21 50.69C87.84 47.89 86.53 22.99 78.9 30.69L78.7507 30.406ZM78.4345 52.2244L78.43 52.23V52.22L78.4345 52.2244ZM80.3543 54.6457L80.3536 54.6464C80.4167 54.7663 80.4759 54.8882 80.5308 55.0123C80.4762 54.8879 80.4172 54.7658 80.3543 54.6457ZM72.9246 30.1119C73.0915 30.0215 73.2575 29.9272 73.4226 29.8292L73.436 29.8138C73.2589 29.9192 73.0807 30.0202 72.9016 30.1169L72.9246 30.1119ZM66.4507 31.7698L66.4502 31.7675C65.5035 31.7753 64.5369 31.693 63.5512 31.5234C64.5374 31.6935 65.5041 31.7767 66.4507 31.7698ZM80.98 57.11L80.98 57.1C81.1362 57.0253 81.2952 56.9534 81.4564 56.8836L81.4598 56.8927C81.2975 56.9628 81.1374 57.035 80.98 57.11ZM87.9728 51.4891L87.9716 51.4887C87.9915 51.2775 88.0008 51.0561 87.9988 50.8236C88.0012 51.0562 87.9922 51.2779 87.9728 51.4891ZM77.9997 72.7024C77.9929 73.1034 77.9363 73.4995 77.8115 73.8869L77.8126 73.8876C77.937 73.5006 77.9931 73.1041 77.9997 72.7024ZM87.9504 50.0142L87.9509 50.0188L87.9568 50.0114L87.9504 50.0142ZM63.31 53.6C63.1493 53.0203 63.0508 52.4859 63.0212 52.0034C63.0523 52.483 63.1508 53.0139 63.31 53.59C63.8831 55.6346 63.9164 57.6013 63.2287 59.4853C63.9103 57.607 63.882 55.6483 63.31 53.6ZM31.555 95.11C31.4825 94.4475 31.41 93.785 31.34 93.12L31.33 93.13C31.32 92.925 31.3075 92.72 31.295 92.515C31.2825 92.31 31.27 92.105 31.26 91.9C31.25 91.6 31.2375 91.3025 31.225 91.005C31.2125 90.7075 31.2 90.41 31.19 90.11C31.165 89.57 31.1375 89.03 31.11 88.49C31.0825 87.95 31.055 87.41 31.03 86.87L30.94 84.17L30.3286 83.6714L30.3331 83.6669L30.95 84.17H30.96C31.4375 76.7075 33.942 69.8191 36.4458 62.9326L36.4459 62.9326C37.4549 60.1572 38.4639 57.3822 39.34 54.57C41.05 49.06 41.85 43.59 40.06 37.96C39.6463 38.7547 39.3104 39.0398 39.0334 39.0365C39.3084 39.0329 39.6413 38.7451 40.05 37.96C39.665 36.575 39.2775 35.1925 38.89 33.81L38.8898 33.8093L38.8896 33.8086L38.8894 33.8079C38.5024 32.4273 38.1155 31.0467 37.731 29.6636L37.74 29.66C37.7367 29.5148 37.7323 29.3686 37.7279 29.222C37.719 28.9242 37.71 28.6248 37.71 28.33L37.7048 28.3192C38.0201 27.6059 38.1238 26.9837 37.0402 26.9404L37.04 26.94C35.23 26.82 33.43 26.71 31.62 26.6L31.62 26.59L31.45 26.36C31.45 26.36 31.26 26.57 31.25 26.57C28.2836 26.5204 26.1365 24.8527 23.9907 23.186C23.5396 22.8356 23.0886 22.4853 22.63 22.15C22.6311 22.1647 22.632 22.1794 22.6328 22.194L22.6223 22.1853L22.62 22.15C22.2668 21.2931 21.8834 20.445 21.5 19.597C19.9742 16.222 18.4487 12.8478 18.8291 8.91905L18.84 8.89999L18.78 4.14999C16.512 4.72572 15.1038 8.48977 14.2834 10.6829L14.2833 10.6829L14.2833 10.683C14.1632 11.0039 14.0558 11.2913 13.96 11.53C13.97 13.18 13.9825 14.8325 13.995 16.485V16.485V16.485V16.4851V16.4851V16.4851V16.4851V16.4851V16.4851V16.4852V16.4852V16.4852V16.4852V16.4852V16.4853V16.4853L13.995 16.4877V16.4878V16.4878V16.4878V16.4879V16.4879V16.488V16.488V16.488V16.4881V16.4882V16.4882C14.006 17.9381 14.017 19.388 14.0262 20.8361L14.0262 20.8363C14.0169 19.381 14.0059 17.9276 13.9949 16.4751V16.475V16.4749V16.4748V16.4748V16.4747V16.4746V16.4745V16.4744V16.4743V16.4742V16.4741V16.474V16.4739V16.4738V16.4736V16.4735V16.4734V16.4733V16.4731V16.473V16.4729V16.4728V16.4727V16.4727V16.4726C13.9824 14.8276 13.97 13.1838 13.96 11.54C9.4 18.39 6.11 25.68 5.87 34.08H5.86L5.8785 34.0885L5.88001 34.09C4.71001 39.47 4.00001 54.5 7.52 59.18C8.4938 60.4703 9.66672 60.7032 10.9326 60.9547C12.2635 61.219 13.6971 61.5037 15.1101 63.0591L15.11 63.06C15.7911 66.1435 16.3752 69.9975 17.016 74.2261L17.016 74.2262C19.32 89.4297 22.3579 109.476 33.28 115.97C33.9652 111.779 33.2476 107.151 32.5604 102.72C32.3048 101.072 32.0535 99.4513 31.88 97.89C31.65 97.65 31.61 97.39 31.77 97.1C31.7 96.435 31.6275 95.7725 31.555 95.11ZM22.0161 73.0258C21.7668 73.2723 21.6708 73.592 21.6727 73.9424L21.6828 73.9391C21.6797 73.5908 21.7727 73.2725 22.0161 73.0258ZM27.1579 80.4508L27.1572 80.4501C27.2514 79.983 27.3456 79.5121 27.4398 79.0411L27.44 79.04L27.4557 78.9695L27.44 79.05C27.346 79.513 27.2519 79.9811 27.1579 80.4508ZM13.7665 45.5749C13.7644 44.8188 13.7273 43.8944 13.6864 42.8767L13.6864 42.8766C13.5235 38.8153 13.3009 33.2679 15 31C17.5222 27.6345 18.7066 28.855 20.7299 30.9397L20.7299 30.9397C21.3919 31.6218 22.1437 32.3964 23.0615 33.1332L23.06 33.14C23.9687 33.7791 24.8674 34.4082 25.7661 35.0372L25.7662 35.0373L25.7664 35.0375L25.7666 35.0376L25.7667 35.0377L25.7669 35.0378L25.7671 35.0379L25.7673 35.0381L25.7674 35.0382L25.7676 35.0383L25.7678 35.0384L25.7679 35.0386L25.7681 35.0387L25.7683 35.0388L25.7685 35.0389L25.7686 35.039L25.7688 35.0392L25.77 35.04L25.76 35.03C25.8401 35.0186 25.9187 35.0053 25.9961 34.9902L26.0008 35.0021C25.9284 35.0163 25.8548 35.029 25.78 35.04C25.8747 35.0775 25.9685 35.1153 26.0614 35.1535L26.1857 35.4642L26.4988 35.339C32.5717 37.9975 34.3445 42.3163 32.38 49.51C31.9922 50.9271 31.6018 52.3442 31.2115 53.7613L31.211 53.7631L31.2105 53.7649L31.21 53.7667L31.2095 53.7684L31.209 53.7702L31.2086 53.772L31.2081 53.7738L31.2076 53.7756L31.2071 53.7774L31.2066 53.7792L31.2061 53.781L31.2056 53.7828L31.2051 53.7846C30.8126 55.2097 30.42 56.6349 30.03 58.06C30.0283 58.2066 30.0268 58.3533 30.0254 58.5H30.0054C30.0068 58.3533 30.0083 58.2066 30.01 58.06C29.9378 58.2063 29.8677 58.353 29.7994 58.5H29.5V59.1755C27.676 63.4914 27.3978 68.0876 27.1194 72.6882L27.1193 72.6893C27.087 73.223 27.0547 73.7567 27.02 74.29L27.0142 74.3011C25.3285 75.4875 25.0239 74.5072 24.72 73.5291C24.6069 73.1652 24.494 72.8016 24.31 72.55V72.54L24.3008 72.5393L24.3232 72.2335C24.7766 66.0592 25.2294 59.8944 21.68 54.3C21.19 53.75 20.7025 53.2 20.215 52.65C19.7275 52.1 19.24 51.55 18.75 51V50.99L18.7349 50.9936C18.6105 50.9409 18.4883 50.8882 18.3662 50.8355L18.365 50.835C18.2395 50.7809 18.1141 50.7268 17.9862 50.6726L17.98 50.66C17.6044 50.6117 17.2288 50.5605 16.8548 50.5096L16.8545 50.5095L16.8541 50.5095L16.8538 50.5095L16.8538 50.5095L16.8537 50.5094L16.8536 50.5094L16.8535 50.5094L16.8534 50.5094C16.5308 50.4655 16.2093 50.4217 15.89 50.38L15.8866 50.3833C15.1678 48.9755 14.4589 47.5678 13.75 46.16C13.643 46.1354 13.5399 46.1085 13.4406 46.0792L13.4492 46.0677C13.5489 46.0974 13.6525 46.1249 13.76 46.15C13.7646 45.992 13.7666 45.8231 13.7666 45.6445L13.8 45.6L13.7665 45.5749ZM29.9887 31.9915L30.0384 31.9319L30.03 31.93L30.017 31.9236L29.9713 31.9785L29.9887 31.9915ZM27.69 77.83L27.6715 77.9147L27.6894 77.823L27.69 77.83ZM62.89 26.71C62.71 26.98 62.46 27.08 62.14 27.01L62.89 26.71ZM31.89 97.89C31.66 97.65 31.62 97.39 31.78 97.1C31.89 97.36 31.93 97.62 31.89 97.89ZM15.0204 21.6501C15.3153 21.7131 15.6102 21.7761 15.9033 21.8392C15.6162 21.7774 15.3274 21.7157 15.0385 21.654L15.0378 21.6538L15.0204 21.6501Z" fill="white"/>
</svg>
