<svg xmlns="http://www.w3.org/2000/svg" width="50" height="50" viewBox="0 0 50 50">
  <path id="class_job_025" d="M107.6,65.431q-1.171.781-5.985,4.294l-5.595,4.033q-3.383,2.472-4.814,1.3a3.59,3.59,0,0,1-.781-1.952,4.393,4.393,0,0,1,.26-2.147,5.288,5.288,0,0,1,1.691-2.017l.39-.39a1.345,1.345,0,0,0,.2-1.041,1.906,1.906,0,0,0-.52-1.236q-.455-.455-2.537.2a13.758,13.758,0,0,0-4.033,2.082l-.651.651q-3.643,2.732-5.985,4.814a66.742,66.742,0,0,0-9.5,11.06A16.141,16.141,0,0,0,64.6,92.43a16.3,16.3,0,0,0,11.775,21.143,16.221,16.221,0,0,0,8.978-.455,15.308,15.308,0,0,0,7.286-5.139,63.224,63.224,0,0,0,10.929-9.5,70.021,70.021,0,0,0,4.814-5.855l.651-.781a12.38,12.38,0,0,0,2.212-4.033q.651-2.082.2-2.537a1.988,1.988,0,0,0-1.3-.52q-.846-.065-1.106.325l-.26.26a6.25,6.25,0,0,1-2.147,1.691,4.973,4.973,0,0,1-2.147.325,2.427,2.427,0,0,1-1.822-.846q-1.3-1.431,1.3-4.814l4.034-5.465q3.513-4.944,4.294-6.115,1.041-1.691,1.3-5.985l.13-.13-2.342.26A8.724,8.724,0,0,0,107.6,65.431ZM80.019,108.759a11.106,11.106,0,1,1,7.807-3.253A10.647,10.647,0,0,1,80.019,108.759Zm20.3-27.844A16.687,16.687,0,0,0,97.974,85.6a4.318,4.318,0,0,0,.781,3.9q1.041,1.171,4.424.911a16.585,16.585,0,0,0,2.993-.52,16.276,16.276,0,0,1-1.561,2.082l-.52.651a36.885,36.885,0,0,1-3.123,3.643,58.6,58.6,0,0,1-4.944,4.294,15.16,15.16,0,0,0-.455-7.742A16.386,16.386,0,0,0,84.9,82.151a15.16,15.16,0,0,0-7.742-.455,45.484,45.484,0,0,1,4.424-4.944,26.734,26.734,0,0,1,3.513-3.123l.781-.52a18.193,18.193,0,0,1,1.952-1.691l-.26,1.561a10.3,10.3,0,0,0-.26,3.123,4.226,4.226,0,0,0,.911,2.732,3.878,3.878,0,0,0,3.9.781A13.861,13.861,0,0,0,96.8,77.4q2.732-1.822,13.272-9.758l-.13.13Q102.008,78.443,100.316,80.915Z" transform="translate(-63.718 -64)" fill="#fff"/>
</svg>
