<svg xmlns="http://www.w3.org/2000/svg" width="60" height="60" viewBox="0 0 60 60">
  <path id="Path_3" data-name="Path 3" d="M3309.821,70.068l-1.36,1.3c2.674,4.865,2.937,15.123.352,11.879s-6.225-6.838-11.53-6.969c-4.288-.107-8.6,2.252-10.1,3.158l-3.5-12.062-3.423,14.272c-3.333,2.016-7.112,1.989-10.808-.591-4.647-3.243-1.754-12.8,11.836-17.358s20.12.482,20.12.482l1.419-1.426a30,30,0,0,0-41.906,42.057l1.277-1.277c-3.057-5.241-2.794-12.752-1.571-17.293s1.31-2.882,5.675.6c3.293,2.629,9.314,2.738,12.078,2.631l-2.995,12.484h18.34L3289.3,86.713c7.812-6.785,12.6-1.831,14.47-.3,1.922,1.572,3.057,14.5-7.773,20.612-15.926,8.991-26.637,3.581-26.637,3.581l-1.038,1.211a30,30,0,0,0,41.5-41.747ZM3280.1,96.544l1.729-7.634,1.906-8.423,2.051,7.483,2.35,8.574Z" transform="translate(-3254.946 -56.844)" fill="#fff"/>
</svg>
