<svg xmlns="http://www.w3.org/2000/svg" width="62.469" height="52.676" viewBox="0 0 62.469 52.676">
  <path id="class_job_033" d="M103.923,119.792H82.987a3.307,3.307,0,0,0-2.11.506q-.591.507-.422,2.87-.338,5.234,0,14.689a2.107,2.107,0,0,0,.76,1.773,2.934,2.934,0,0,0,1.857.591,2.4,2.4,0,0,0,1.773-.675,2.291,2.291,0,0,0,.675-1.688q.169-2.533.338-7.6v-.169q0-3.377.844-4.221.507-.675,2.533-.507H89.4a68.12,68.12,0,0,0,8.273.169,4.317,4.317,0,0,1,3.123.929q.929.929.929,4.474l.338,15.364a36.644,36.644,0,0,1-.169,4.559,1.858,1.858,0,0,1-1.351,1.435,20.464,20.464,0,0,1-4.052.253l-6.247-.169a21.242,21.242,0,0,1-3.377-.169,1.344,1.344,0,0,1-1.1-.929,8.956,8.956,0,0,1-.084-2.955v-2.87q0-.169-.338-.507l-.675-.675A30.268,30.268,0,0,0,71,162.676a92.521,92.521,0,0,1,8.1-7.6l.507-.507q1.013-1.182,1.52-1.266t.084,1.857q-.422,1.942,1.773,2.617a15.7,15.7,0,0,0,3.883.338h14.689q3.883-.169,4.981-1.182t1.1-4.9l.338-24.65a28.527,28.527,0,0,0-.338-3.883Q107.3,119.792,103.923,119.792Zm14.351,1.857q-1.013-1.182-.675-4.39v-1.52a12.5,12.5,0,0,0-.422-4.052,2.286,2.286,0,0,0-1.52-1.351A16.564,16.564,0,0,0,111.52,110l-17.052.169q-2.87,0-2.7,2.7,0,2.195,2.364,2.364l14.857.507q3.714,0,3.546,3.714v24.312q0,2.195,1.688,2.364a2.645,2.645,0,0,0,3.039-1.857,11.1,11.1,0,0,0,.338-2.7v-1.52a36.98,36.98,0,0,0,0-5.065,19.285,19.285,0,0,1,1.013-6.247,9.637,9.637,0,0,1,3.377-4.052q1.688-1.013,5.065-2.87,4.221-2.364,6.416-3.883a19.03,19.03,0,0,0-8.357.169A14.992,14.992,0,0,0,118.274,121.65Z" transform="translate(-71 -110)" fill="#fff"/>
</svg>
