<svg xmlns="http://www.w3.org/2000/svg" width="37.273" height="50" viewBox="0 0 37.273 50">
  <path id="class_job_032" d="M104.97,67.628q4.454-1.4,6.212-3.256a6.792,6.792,0,0,0,1.524-5.349,58.248,58.248,0,0,0-6.681,2.558A49,49,0,0,1,97,64.721a18.545,18.545,0,0,1,3.4-2.791q1.289-.93,3.985-2.558a55.11,55.11,0,0,0,5.392-3.721q-2.7-1.86-4.22-3.14a16.891,16.891,0,0,1-3.516-3.6,10.531,10.531,0,0,1,4.806.7,31.317,31.317,0,0,1,4.1,1.86l1.758.93a11.7,11.7,0,0,0,.938-2.791,25.362,25.362,0,0,0,.469-3.023A21.862,21.862,0,0,1,115.519,41a30.975,30.975,0,0,1,1.758,6.628,34.041,34.041,0,0,0,.938,4.651q1.172-.465,3.282-1.279a27.071,27.071,0,0,1,3.634-1.4,14.59,14.59,0,0,1,3.985-.814,16.724,16.724,0,0,1-3.4,3.721,30.837,30.837,0,0,1-4.454,3.023,60.476,60.476,0,0,0,5.509,3.837,45.136,45.136,0,0,1,7.5,5.349,24.889,24.889,0,0,1-5.509-1.628q-1.875-.7-5.626-2.267t-5.274-2.151a6.828,6.828,0,0,0,1.875,5.64,12.867,12.867,0,0,0,6.564,3.43q-.82,1.047-2.7,3.256-2.227,2.674-3.165,3.953a11.814,11.814,0,0,0-1.875,4.3l-.234.465A85.928,85.928,0,0,1,115.285,91l-2.461-11.628a15.682,15.682,0,0,0-2.579-5.116,40.823,40.823,0,0,0-3.751-4.884Zm10.549-2.907a9.908,9.908,0,0,0-2.344,1.977l-.82.93a1.268,1.268,0,0,0-.234,1.86l3.047,4.651a19.684,19.684,0,0,0,3.106-4.244,2.693,2.693,0,0,0-.059-2.616A17.416,17.416,0,0,0,115.519,64.721Z" transform="translate(-97 -41)" fill="#fff"/>
</svg>
