<svg xmlns="http://www.w3.org/2000/svg" width="39.508" height="50" viewBox="0 0 39.508 50">
  <path id="class_job_038" d="M139.207,74.738a13.373,13.373,0,0,1-1.781,5.98,72.546,72.546,0,0,1-5.089,5.98l-1.145,1.272a55.423,55.423,0,0,0-8.015,10.178,15.039,15.039,0,0,0-1.209,2.481,19.712,19.712,0,0,1-1.081,2.354q-.636,1.018-1.4,1.018t-1.4-1.018a19.712,19.712,0,0,1-1.081-2.354,15.054,15.054,0,0,0-1.209-2.481,55.424,55.424,0,0,0-8.015-10.178L106.638,86.7a72.5,72.5,0,0,1-5.089-5.98,13.373,13.373,0,0,1-1.781-5.98,8.9,8.9,0,0,1,1.4-5.852,6.861,6.861,0,0,1,3.944-2.8,19.388,19.388,0,0,0,6.234-2.8A26.54,26.54,0,0,0,119.487,54a26.54,26.54,0,0,0,8.143,9.288,17.89,17.89,0,0,0,6.234,2.8,6.861,6.861,0,0,1,3.944,2.8A8.9,8.9,0,0,1,139.207,74.738Zm-4.2-1.018a4.651,4.651,0,0,0-2.545-3.944,5.165,5.165,0,0,0-4.071-.127,3.382,3.382,0,0,0-2.417,2.926,14.871,14.871,0,0,0,0,3.944q.127,1.4.127,1.908-.127.763-.509.763-1.4.382-3.053-2.29a12.042,12.042,0,0,1-1.908-4.2,8.931,8.931,0,0,1,.127-1.209,9.4,9.4,0,0,1,.509-1.845,4.535,4.535,0,0,1,1.718-1.972,6.233,6.233,0,0,1,1.972-1.081q-1.018-.254-5.471-5.216v.127q-4.453,4.835-5.471,5.089a6.233,6.233,0,0,1,1.972,1.081,4.534,4.534,0,0,1,1.718,1.972,9.388,9.388,0,0,1,.509,1.845,8.924,8.924,0,0,1,.127,1.209,12.039,12.039,0,0,1-1.908,4.2q-1.654,2.672-3.053,2.29-.382,0-.509-.763,0-.509.127-1.908a14.871,14.871,0,0,0,0-3.944,3.382,3.382,0,0,0-2.417-2.926,5.165,5.165,0,0,0-4.071.127,4.651,4.651,0,0,0-2.545,3.944,8.258,8.258,0,0,0,1.4,5.216,49.547,49.547,0,0,0,3.562,4.453l1.018,1.145q2.163,2.29,5.725,5.471a31.065,31.065,0,0,1,2.417,2.417,4.208,4.208,0,0,1,1.4,2.036,4.208,4.208,0,0,1,1.4-2.036,31.054,31.054,0,0,1,2.417-2.417,61.393,61.393,0,0,0,5.725-5.471l1.018-1.145a49.562,49.562,0,0,0,3.562-4.453A8.259,8.259,0,0,0,135.009,73.72Z" transform="translate(-99.733 -54)" fill="#fff"/>
</svg>
