<svg xmlns="http://www.w3.org/2000/svg" xmlns:xlink="http://www.w3.org/1999/xlink" width="45" height="36" viewBox="0 0 45 36">
  <defs>
    <clipPath id="clip-path">
      <rect id="Rectangle_149" data-name="Rectangle 149" width="45" height="36" fill="#fff"/>
    </clipPath>
  </defs>
  <g id="Discord-Logo-White" clip-path="url(#clip-path)">
    <path id="Path_44" data-name="Path 44" d="M38.636,3.323A37.379,37.379,0,0,0,29.346.414.141.141,0,0,0,29.2.485a26.573,26.573,0,0,0-1.157,2.4,34.422,34.422,0,0,0-10.434,0,24.368,24.368,0,0,0-1.175-2.4.146.146,0,0,0-.149-.071,37.275,37.275,0,0,0-9.29,2.909.133.133,0,0,0-.061.053A39.166,39.166,0,0,0,.189,29.6a.159.159,0,0,0,.059.108,37.71,37.71,0,0,0,11.4,5.815.147.147,0,0,0,.16-.053,27.353,27.353,0,0,0,2.331-3.828.146.146,0,0,0-.079-.2,24.82,24.82,0,0,1-3.56-1.713.149.149,0,0,1-.014-.245c.239-.181.479-.369.707-.559a.14.14,0,0,1,.148-.02,26.761,26.761,0,0,0,22.936,0,.14.14,0,0,1,.149.018c.229.19.468.38.709.561a.148.148,0,0,1-.013.245,23.291,23.291,0,0,1-3.562,1.711.148.148,0,0,0-.077.2,30.713,30.713,0,0,0,2.33,3.826.144.144,0,0,0,.16.055,37.584,37.584,0,0,0,11.414-5.815.148.148,0,0,0,.059-.106A38.9,38.9,0,0,0,38.695,3.378.117.117,0,0,0,38.636,3.323ZM15.251,24.365a4.412,4.412,0,0,1-4.1-4.644,4.388,4.388,0,0,1,4.1-4.644,4.364,4.364,0,0,1,4.1,4.644A4.388,4.388,0,0,1,15.251,24.365Zm15.165,0a4.412,4.412,0,0,1-4.1-4.644,4.388,4.388,0,0,1,4.1-4.644,4.364,4.364,0,0,1,4.1,4.644A4.376,4.376,0,0,1,30.416,24.365Z" transform="translate(0 -0.127)" fill="#fff"/>
  </g>
</svg>
