<svg xmlns="http://www.w3.org/2000/svg" width="50" height="50" viewBox="0 0 50 50">
  <path id="class_job_030" d="M101.466,109.649q.405-.27.945-.676a16.451,16.451,0,0,0,1.215-1.351,14.5,14.5,0,0,0,1.89-2.7A17.492,17.492,0,0,0,107.946,96q.135-6.351-4.185-13.108a24.937,24.937,0,0,0-7.29-7.432,30.705,30.705,0,0,0-7.83-3.378,27.926,27.926,0,0,0-6.21-.946L79.866,71l1.755.405a27.267,27.267,0,0,1,4.32,1.486,25.6,25.6,0,0,1,5.805,3.514,37.849,37.849,0,0,1,6.075,6.486l-1.215-.405-1.485-.405a16.11,16.11,0,0,0-4.185-.27A19.457,19.457,0,0,0,85.4,82.892a18.6,18.6,0,0,0-6.21,3.784,25.85,25.85,0,0,0-5.805,7.7,24.375,24.375,0,0,0-2.7,10,24.757,24.757,0,0,0,.945,8.378,33.433,33.433,0,0,0,2.16,5.946l1.35,2.3-.54-1.622a24.433,24.433,0,0,1-.945-4.595,28.35,28.35,0,0,1,.27-6.757,27.234,27.234,0,0,1,2.565-8.514l.135,1.216a8.823,8.823,0,0,0,.945,2.568l.405,1.216a17.755,17.755,0,0,0,6.345,7.027q5.67,3.784,14.175,3.378a23.954,23.954,0,0,0,12.69-4.189,28.794,28.794,0,0,0,7.155-6.892,20.834,20.834,0,0,0,2.3-3.649l-1.08,1.216a23.968,23.968,0,0,1-3.51,3.108,31.319,31.319,0,0,1-5.94,3.243A33.524,33.524,0,0,1,101.466,109.649Zm-9.585-2.432A9.26,9.26,0,0,1,85,104.311a9.613,9.613,0,0,1-2.835-6.959,9.685,9.685,0,0,1,9.72-9.73,9.594,9.594,0,0,1,6.953,2.838,9.278,9.278,0,0,1,2.9,6.892,9.915,9.915,0,0,1-9.855,9.865Z" transform="translate(-70.636 -71)" fill="#fff"/>
</svg>
