<svg xmlns="http://www.w3.org/2000/svg" width="59.469" height="57.92" viewBox="0 0 59.469 57.92">
  <path id="class_job_020" d="M95.748,72.673a15.083,15.083,0,0,0,4.336-5.885A6.347,6.347,0,0,0,100.858,64H99.464a20.9,20.9,0,0,0-3.407.929,17.355,17.355,0,0,0-4.646,2.633L69.265,86.3a16.034,16.034,0,0,0-4.491,5.885A14.654,14.654,0,0,0,64,94.973h1.394a10.5,10.5,0,0,0,3.407-.929,17.355,17.355,0,0,0,4.646-2.633L84.6,81.965Zm11.305,13.473a20.75,20.75,0,0,0,3.407-4.027,17.112,17.112,0,0,0,1.394-3.252l.31-1.394H110.77a10.5,10.5,0,0,0-3.407.929,17.355,17.355,0,0,0-4.646,2.633l-22.3,18.739a20.749,20.749,0,0,0-3.407,4.027,17.111,17.111,0,0,0-1.394,3.252l-.31,1.394H76.7a10.5,10.5,0,0,0,3.407-.929,17.355,17.355,0,0,0,4.646-2.633L95.9,95.438Zm6.969,8.363-11.15,9.447-11.15,9.292a15.083,15.083,0,0,0-4.336,5.885,6.347,6.347,0,0,0-.774,2.788H88a10.5,10.5,0,0,0,3.407-.929,17.355,17.355,0,0,0,4.646-2.633L118.2,99.619a18.488,18.488,0,0,0,3.562-4.027,17.11,17.11,0,0,0,1.394-3.252l.31-1.394h-1.394a10.5,10.5,0,0,0-3.407.929A17.355,17.355,0,0,0,114.022,94.509Z" transform="translate(-64 -64)" fill="#fff"/>
</svg>
