<svg xmlns="http://www.w3.org/2000/svg" width="54.262" height="60" viewBox="0 0 54.262 60">
  <path id="Subtraction_2" data-name="Subtraction 2" d="M27.132,60h0A35.953,35.953,0,0,1,23.3,57.6,58.085,58.085,0,0,1,14.8,50.274,55.408,55.408,0,0,1,5.633,37.521,53.412,53.412,0,0,1,0,18.964a10.722,10.722,0,0,0,2.485-.525,6.411,6.411,0,0,0,3.7-2.82c1.088-2.047.609-4.838-1.422-8.3L27.132,0,49.494,7.318c-2.033,3.46-2.511,6.253-1.424,8.3a6.412,6.412,0,0,0,3.705,2.82,11.028,11.028,0,0,0,2.482.525h0a53.373,53.373,0,0,1-5.636,18.559A55.415,55.415,0,0,1,39.46,50.275,51.858,51.858,0,0,1,27.132,60Zm0-52.785L9.509,12.98l.563.962a9.118,9.118,0,0,1,1.289,3.286,3.111,3.111,0,0,1-.267,1.875c-.926,1.756-3.746,1.964-3.772,1.964l-.943.062.108.94A40.238,40.238,0,0,0,17.461,45.335a39.49,39.49,0,0,0,9.264,7.308l.374.188.383-.164a37.91,37.91,0,0,0,9.271-7.279,41.243,41.243,0,0,0,6.821-9.492,39.754,39.754,0,0,0,4.2-13.825l.11-.94-.947-.062c-.027,0-2.843-.208-3.772-1.964a3.089,3.089,0,0,1-.264-1.875,9.164,9.164,0,0,1,1.284-3.286l.567-.962L27.132,7.215Zm0,43.6v0c-.487-.278-1.278-.759-2.284-1.465a41.353,41.353,0,0,1-6.084-5.253A38.49,38.49,0,0,1,8.385,22.729a6.158,6.158,0,0,0,4.3-2.776c.835-1.572.659-3.573-.525-5.946l14.975-4.9,14.971,4.9c-1.183,2.375-1.357,4.375-.521,5.946a6.148,6.148,0,0,0,4.3,2.775A38.524,38.524,0,0,1,35.522,44.069a38.814,38.814,0,0,1-8.395,6.74Z" fill="#fff"/>
</svg>
