<svg xmlns="http://www.w3.org/2000/svg" width="39.583" height="50" viewBox="0 0 39.583 50">
  <path id="class_job_019" d="M140.979,64.911q-.521,0-2.148,2.083t-2.148,2.083h-9.245q-.26,0-1.3-2.214l-.391-.911a5.712,5.712,0,0,0-1.3-1.693l-.651-.26-.651.26a5.712,5.712,0,0,0-1.3,1.693l-.391.911q-1.042,2.214-1.3,2.214H110.9q-.521,0-2.148-2.083T106.6,64.911a2.423,2.423,0,0,0-1.758.911A3.308,3.308,0,0,0,104,68.167V85.354a30.3,30.3,0,0,0,2.214,11.719,25.329,25.329,0,0,0,5.859,8.724,47.99,47.99,0,0,0,7.682,5.859A42.7,42.7,0,0,0,123.792,114q1.693-.911,4.036-2.344a47.991,47.991,0,0,0,7.682-5.859,25.33,25.33,0,0,0,5.859-8.724,30.3,30.3,0,0,0,2.214-11.719V68.167a3.308,3.308,0,0,0-.846-2.344A2.423,2.423,0,0,0,140.979,64.911Zm-19.271,41.927q-.651-.391-1.432-.781-1.693-1.172-3.255-2.474a33.98,33.98,0,0,1-3.906-4.036,17.625,17.625,0,0,1-3.125-6.25,20.362,20.362,0,0,1-.781-5.339V73.375h12.5Zm12.76-7.292a28.738,28.738,0,0,1-5.729,5.469q-1.693,1.172-2.865,1.823V73.375h12.5V87.958a20.363,20.363,0,0,1-.781,5.339A17.625,17.625,0,0,1,134.469,99.547Z" transform="translate(-104 -64)" fill="#fff"/>
</svg>
