<svg xmlns="http://www.w3.org/2000/svg" width="50" height="50" viewBox="-15 0 50 50">
  <path id="class_job_024" d="M176.281,79.712a4.258,4.258,0,0,0,3.122-1.3,4.358,4.358,0,1,0-6.114,0A4.113,4.113,0,0,0,176.281,79.712Zm3.9-16a2.908,2.908,0,0,0-1.5.13,1.208,1.208,0,0,0-.846.716,1.324,1.324,0,0,0,.13.976,1.7,1.7,0,0,0,.781.781l.39.26q6.115,2.732,6.115,8.977a9.663,9.663,0,0,1-2.407,6.375,7.448,7.448,0,0,1-5.919,2.862,11.569,11.569,0,0,1-4.683-.911,10.153,10.153,0,0,1-2.732-1.561l-.26-.26q-1.171-.781-1.821-.13a1.826,1.826,0,0,0-.13,1.561,4.435,4.435,0,0,0,.65,1.561,17.519,17.519,0,0,0,6.9,4.423h.13q1.691.65,1.691,1.691v17.693a7.72,7.72,0,0,0,.716,3.252q.716,1.561,1.366,1.561t1.3-1.561a8.375,8.375,0,0,0,.65-3.252V91.42a3.293,3.293,0,0,1,.52-1.561,2.524,2.524,0,0,1,1.171-1.171,13.18,13.18,0,0,0,4.423-3.773,14.487,14.487,0,0,0,3.513-9.627,10.963,10.963,0,0,0-2.992-7.676A12.029,12.029,0,0,0,180.184,63.71Z" transform="translate(-167.2 -63.667)" fill="#fff"/>
</svg>
