<svg xmlns="http://www.w3.org/2000/svg" width="38.021" height="50" viewBox="0 0 38.021 50">
  <path id="class_job_023" d="M120.286,94.807V74.1q0-.911-1.562-1.172l-.781.26q-.781.391-.781.911v20.7q0,.521.781.911l.781.26.781-.26Q120.286,95.328,120.286,94.807Zm8.073,0V74.1q0-.911-1.563-1.172l-.781.26q-.781.391-.781.911v20.7q0,.521.781.911l.781.26.781-.26Q128.359,95.328,128.359,94.807Zm8.2,0V74.1q0-.911-1.562-1.172l-.781.26q-.781.391-.781.911v20.7q0,.521.781.911l.781.26.781-.26Q136.562,95.328,136.563,94.807ZM144.505,59a3.455,3.455,0,0,0-2.214.846q-1.042.846-1.042,1.5t-.391.781a3.95,3.95,0,0,1-1.172.13H115.6a5.463,5.463,0,0,0-4.167,1.823,5.155,5.155,0,0,0-1.042,1.5A3.879,3.879,0,0,0,110,67.2a3.757,3.757,0,0,0,.456,2.018,1.927,1.927,0,0,0,1.758.716,3.732,3.732,0,0,0,1.693-.391,7.626,7.626,0,0,0,1.042-.911q.911-.911,1.432-.911h21.875a3.494,3.494,0,0,1,2.083.651,2.629,2.629,0,0,1,1.172,2.344V93.766a7.2,7.2,0,0,1-1.693,3.646,15.927,15.927,0,0,1-4.557,4.167,12.386,12.386,0,0,1-6.771,2.083,20.964,20.964,0,0,1-13.021-4.036l-.13-.13a2.863,2.863,0,0,0-1.172-.521,1.024,1.024,0,0,0-.977.2q-.326.326,0,1.563a4.086,4.086,0,0,0,.977,1.888,21.323,21.323,0,0,0,4.557,3.516A18.92,18.92,0,0,0,128.49,109a16.8,16.8,0,0,0,8.008-2.409,27.367,27.367,0,0,0,7.357-5.794q3.125-3.646,3.125-6.771V71.63a5.045,5.045,0,0,1,.521-1.953,5.045,5.045,0,0,0,.521-1.953V62.255a3.179,3.179,0,0,0-1.237-2.083A3.5,3.5,0,0,0,144.505,59Z" transform="translate(-110 -59)" fill="#fff"/>
</svg>
