<svg xmlns="http://www.w3.org/2000/svg" width="42.19" height="50" viewBox="0 0 5903.78 6996.09">
  <defs>
    <style>
      .cls-1 {
        fill: #fff;
        fill-rule: evenodd;
      }
    </style>
  </defs>
  <path id="Color_Fill_2" data-name="Color Fill 2" class="cls-1" d="M2677,9146c28.97-144.37,159-709,159-709s61.24-264.33,81-350c-6.21-5.64-11.93-10.86-25.44-23.14C2760.48,7938.05,2201.9,7504.12,2462,6514c96.76-324.36,329.76-784.82,466.47-925.59,18.46-19,33.17-35.32,49.53-38.41,70-7.06,76.47,53.87,76,82-12.64,46.93-219.72,722.17-62,1211,46.05,122.87,183.47,312.01,206,333,21.47-44.77,1470-4093,1470-4093s174.57-429.24,235-519c28.84-42.84,60.54-84.19,92-115,34.46-33.74,58.63-47.7,82-49,26.16-1.33,59.03,17.54,81,43,21.73,25.18,32.67,56.9,39,99,3.03,32.58.86,87.12-9,145-30.14,192.31-195.47,709.69-442,1490-15.9,31.4,517.05-394.64,1224-213,81.19-82.46,329.87-352.53,462-303,109.86,52.72,149.98,286.56,118,560,62.41,52.82,1006.22,769.13,493,1957-417.8,894.36-1614.45,1162.25-2333,618-385.38-312.9-511.13-587.8-555.34-668.75C4124.39,6230.34,3704,7476,3704,7476s1742.75,784.44,4454.39-877.22c12.54-7.87,25.72-16,38.61-23.78,80.99-39.71,118.93,56.96,92,98-12.48,18.11-13.38,18.7-32.38,39.23C8016.26,6978.84,6474.54,8460.96,4227,8456c-433.24-12.18-743.03-98.02-823-125-4.09-1.46-9.47-3.43-20-7-73.91,183.62-298.17,750.86-370,902C2879.65,9509.54,2620.07,9407.71,2677,9146ZM5616.5,4514c544.83,0,986.5,441.67,986.5,986.5S6161.33,6487,5616.5,6487,4630,6045.33,4630,5500.5,5071.67,4514,5616.5,4514Z" transform="translate(-2393.81 -2399.94)"/>
</svg>
