<svg xmlns="http://www.w3.org/2000/svg" width="65.104" height="54.883" viewBox="0 0 65.104 54.883">
  <path id="Color_Fill_3" data-name="Color Fill 3" d="M675.508,2512.81s-.213-1.156.7-1.508,30.569-14.283,30.569-14.283a4,4,0,0,1,2.63.024c1.261.529,30.355,14.259,30.355,14.259a2.979,2.979,0,0,1,.824,1.352c.315.95-31.827,15.1-31.827,15.1a1.5,1.5,0,0,1-1.491.024C706.3,2527.38,675.508,2512.81,675.508,2512.81Zm6.781,6.514,1.773.841a45.412,45.412,0,0,0-.357,6c-.017,3.766,0,6.97,0,6.97s1.536.515,1.52,3.311-.475,2.944-1.039,3.719c-.12.217,1.072,8.839,1.072,8.839s.084,2.584-1.382,2.668a20.217,20.217,0,0,1-3.379-.2s-1.571-.853-1.024-3.37,1.553-8.028,1.553-8.028-1.3-1.028-.972-3.87,1.588-3.078,1.639-3.143C681.778,2530.865,681.572,2523.368,682.289,2519.324Zm5.485,2.542,19.8,8.983a2.293,2.293,0,0,0,1.463-.133c.848-.337,19.242-8.815,19.242-8.815s-.062,8.862-.062,10.169-4.044,9.955-19.461,9.854c-15.6-.067-20.844-6.374-20.948-10.528C687.761,2529.49,687.774,2521.866,687.774,2521.866Z" transform="translate(-675.486 -2496.802)" fill="#fff"/>
</svg>
