<svg xmlns="http://www.w3.org/2000/svg" width="61.904" height="56.749" viewBox="0 0 61.904 56.749">
  <path id="Armoury_Body" d="M97.654,100.442a7.189,7.189,0,0,0,1.082,1.392,35.8,35.8,0,0,1,2.938,3.711q1.546-.773,4.948-.309l3.247.618,1.7-1.7v-.309a1.419,1.419,0,0,0-.85-.773,4.223,4.223,0,0,0-2.088-.155,8.7,8.7,0,0,1-4.02-.619,3.524,3.524,0,0,1-1.392-.773l-2.01-1.237L98.272,98.9Zm10.979,0,.309-.619a4.948,4.948,0,0,1,1.7-1.546,4.949,4.949,0,0,1-2.242-2.088,12.965,12.965,0,0,1-.85-3.634,13.05,13.05,0,0,0-3.866-5.876A20.1,20.1,0,0,0,98.891,83.9l-2.319-.773-.309.309a3.4,3.4,0,0,1-1.392.619,3.3,3.3,0,0,1-1.7-.155q1.546,4.484.928,6.958-.309,1.392-.928,1.7a20.512,20.512,0,0,1,6.031,4.02,10.193,10.193,0,0,0,6.494,4.02,7.012,7.012,0,0,0,2.938,0ZM85.438,88.535a20.836,20.836,0,0,0,3.4-3.247,4.316,4.316,0,0,0,1.082-2.01l.155-.773a15.588,15.588,0,0,1-2.938-3.247q-1.546-2.319-1.392-3.4a6.023,6.023,0,0,1-2.165-.773A10.54,10.54,0,0,0,79.717,74a7.1,7.1,0,0,0-4.948,2.938A17.087,17.087,0,0,1,74,80.494l.619.773a8.727,8.727,0,0,0,1.856,1.392,6.56,6.56,0,0,0,3.247.464,10.429,10.429,0,0,0,4.639-1.237,8.745,8.745,0,0,1-3.4,1.546,11.887,11.887,0,0,1-4.948.464,9.231,9.231,0,0,1-4.948-2.319,22.518,22.518,0,0,1,.309,2.629l-.309-.773.309.773a10.774,10.774,0,0,0,4.175,3.866Q79.717,90.391,85.438,88.535ZM75.851,77.711a1.678,1.678,0,0,1,.619-.309,9.958,9.958,0,0,1,3.247-1.082,7.788,7.788,0,0,1,4.948,1.546,6.352,6.352,0,0,1-4.175,1.546,7.049,7.049,0,0,1-3.4-.928Zm-4.639,6.031-.155-.309Zm-3.247,8.814a2.424,2.424,0,0,0-.464-.619,6.664,6.664,0,0,1-.464-2.629,19.2,19.2,0,0,1,.928-5.412,3.059,3.059,0,0,1-1.624.155,3.411,3.411,0,0,1-1.314-.619l-.464-.309-2.319.773A17.343,17.343,0,0,0,57.6,86.68a14.3,14.3,0,0,0-4.02,5.876,9.342,9.342,0,0,1-.773,3.634,5.639,5.639,0,0,1-2.165,2.088,5.522,5.522,0,0,1,1.546,1.546l.464.773,1.392.155a9.9,9.9,0,0,0,3.4-.619,13.716,13.716,0,0,0,4.639-3.479A17.751,17.751,0,0,1,67.965,92.556Zm-16.7,13.3q1.7-.309,3.247-.618,3.557-.464,5.1.309a37.394,37.394,0,0,1,4.02-4.948l-.619-1.7-3.093,1.237L57.3,101.988a4.927,4.927,0,0,1-1.856.619,12.8,12.8,0,0,1-2.783.309q-2.165-.309-2.783.464a.77.77,0,0,0-.155.773Zm40.049,15q.773-5.567,1.16-7.886a17.356,17.356,0,0,1,.618-2.861.675.675,0,0,1,.773-.464q.541.077,1.16-.7,1.546-2.165,1.392-6.494a28.343,28.343,0,0,0-.928-6.34l-.309-1.237a6.227,6.227,0,0,1-1.856-1.082,15.472,15.472,0,0,0-3.866-2.01,31.579,31.579,0,0,0-8.814-1.546,30.2,30.2,0,0,0-8.814,1.546,12.621,12.621,0,0,0-3.866,2.01,5.554,5.554,0,0,1-2.01,1.082L65.8,96.112a28.344,28.344,0,0,0-.928,6.34q-.309,4.33,1.392,6.494.619.773,1.082.7t.7.464a20.228,20.228,0,0,1,.7,2.861q.464,2.319,1.237,7.886,1.082-.773,3.711-.464a36.3,36.3,0,0,1,4.639,1.082l2.319.619,2.319-.619a39.178,39.178,0,0,1,4.484-1.082Q90.231,120.08,91.314,120.853Zm-23.968-3.711a11.069,11.069,0,0,1-.773,4.484,34.088,34.088,0,0,1-2.01,3.711l-.928,1.546,14.845,3.866,1.082-.928a3.017,3.017,0,0,0,1.082-2.01,3.017,3.017,0,0,0,1.082,2.01l.928.928,15-3.866-1.082-1.546a24.619,24.619,0,0,1-1.7-3.866,16.543,16.543,0,0,1-1.082-4.33,22.957,22.957,0,0,0-.928,4.948l-.309,2.01q-3.247-.773-10.515.619l-1.237.309-.155,1.392-.155-1.392-1.392-.309q-7.268-1.392-10.515-.619l-.155-2.01A32.036,32.036,0,0,0,67.346,117.142Z" transform="translate(-49.667 -74)" fill="#fff"/>
</svg>
