<svg xmlns="http://www.w3.org/2000/svg" width="60.607" height="58" viewBox="0 0 60.607 58">
  <path id="Path_51" data-name="Path 51" d="M61.132,33.319a1.868,1.868,0,0,0-1.188-.739l-27.1-6.158a5.1,5.1,0,0,0-2.5-.123,5.273,5.273,0,0,0-2.971,1.724L5.278,52.655a17.509,17.509,0,0,0-3.149,5.357A17.279,17.279,0,0,0,1,64.109v1.108a10.019,10.019,0,0,0,1.842,5.85A9.309,9.309,0,0,0,7.655,74.7l25.907,9.237a5.1,5.1,0,0,0,3.03.062,4.638,4.638,0,0,0,2.436-1.663L60.419,54.995a2.03,2.03,0,0,0,.475-1.847,7.834,7.834,0,0,0-1.07-2.586,6.982,6.982,0,0,1-.594-1.6,8.564,8.564,0,0,1,.238-2.71l.119-.493a2.581,2.581,0,0,0-.178-1.847,1.852,1.852,0,0,0-1.307-.924,1.642,1.642,0,0,0-1.426.246,5.717,5.717,0,0,0-1.129,1.355,5.394,5.394,0,0,0-.713,2.525,8.958,8.958,0,0,0,.238,2.956l.594,1.971a1.208,1.208,0,0,1-.238,1.232L36.414,77.41a3.322,3.322,0,0,1-1.307.862,2.481,2.481,0,0,1-1.545,0L9.556,70.39a4.911,4.911,0,0,1-2.674-1.909,5.477,5.477,0,0,1-1.01-3.264V63.247a3.173,3.173,0,0,1,.951-2.771,2.383,2.383,0,0,1,2.5-.431l23.886,7.39a2.171,2.171,0,0,0,.713.123h.119a2.562,2.562,0,0,0,2.139-1.108L61.132,36.4a2.347,2.347,0,0,0,.475-1.478V34.8A2.346,2.346,0,0,0,61.132,33.319Z" transform="translate(-1 -26.2)" fill="#fff"/>
</svg>
