<svg xmlns="http://www.w3.org/2000/svg" width="69.779" height="67.449" viewBox="0 0 69.779 67.449">
  <path id="Union_11" data-name="Union 11" d="M51.773,56.188l-2.132-7.919-3.5,7H20.862l-3.5-7-2.132,7.919L0,64.867l7.918-13.4V40.2L1.828,30.86l18.12,6.9,3.961,8.679L26.5,39.286H40.508l2.587,7.154,3.96-8.679,18.12-6.9L59.085,40.2V51.466L67,64.867ZM42.132,20.81c1.826-2.551,2.562-8.361,2.562-8.361a27.725,27.725,0,0,0,11.5-3.618C59.088,7.244,67,0,67,0s-1.3,18.377-5.786,21.773C55.58,26.038,36.8,27.407,36.8,27.407S40.725,22.769,42.132,20.81Zm-36.343.964C1.3,18.377,0,0,0,0S7.915,7.244,10.812,8.83a27.725,27.725,0,0,0,11.5,3.618s.735,5.811,2.564,8.361c1.4,1.959,5.329,6.6,5.329,6.6S11.422,26.038,5.789,21.773Z" transform="translate(1.388 1.215)" fill="#fff" stroke="rgba(0,0,0,0)" stroke-width="1"/>
</svg>
