<svg xmlns="http://www.w3.org/2000/svg" width="56.14" height="58.848" viewBox="0 0 56.14 58.848">
  <path id="Color_Fill_3" data-name="Color Fill 3" d="M182.246,86.753h-4.29V79.1c-.009-.972-.315-1.645-1.111-1.667s-8.836.017-9.783,0-1.089.591-1.111,1.667v7.654c-2.165.014-4.8.028-6.574.031a1.906,1.906,0,0,0-1.913,1.543v4.815c0,1.208,0,2.944,0,3.542.006,1.284,1.14,1.567,1.888,1.55,1.632.018,3.484-.033,6.6-.031v3.58c-10.005,3.154-19.189,1.359-26.387-4.136a31.151,31.151,0,0,1-5.432-5.432,29.18,29.18,0,0,1-4.29-25.894c4.715-11.238,10.884-14.85,16.727-17.437s13.357-1.761,19.628-.154c21.829,9.335,19.16,30.182,17.19,35.152ZM131.755,64.81h.031c3.143-4.4,6.58-3.325,7.654-.988,5.583-9.529,15.864-4.588,17.53,3.92,1.2,6.838-3.678,7.489-4.815,7.284a.688.688,0,0,1-.123-1.3c7.6-2.227-2.245-13.5-8.827-5.74-1.174,2.166-.527,8.347,3.7,11.82,7.717,5.248,14.216,1.459,12.222,2.346,8.057-3.531,8.5-9.8,7.716-12.9-5.582-.947-12.1-10.463-7.006-17.715C155.037,49.792,137.1,48.7,131.755,64.81ZM165.3,59.316a5.451,5.451,0,0,0,.741,5.895,3.406,3.406,0,0,1,1.913-1.451c3.7-1.628,8.232,3.22,9.629,5.031,1.577-3.169,1.207-4.347-1.481-8.117C170.546,54.353,167.751,56.305,165.3,59.316ZM141.075,82.494c-2.909-1.555-3.778-3.672-3.241-8.549.189-2.285,1.233-7.372-1.3-8.58-2.5-.376-3.946.735-5.4,2.9-.414.86-.312,7.359.4,9.753C132.505,80.81,136.658,83.208,141.075,82.494Zm26.881-3.21h8.024v9.629h8.641v7.222H175.98v9.938h-8.024V96.135h-8.58V88.914h8.58Zm-35.245,4.043c-.329-1.455,1.059,3.708,4.475,6.821a22.752,22.752,0,0,0,3.8,2.9,5.128,5.128,0,0,0,6.3-1.142c.756-1.06.519-4.3-1.358-5.4C142.1,85.329,138.8,87.447,132.711,83.327Z" transform="translate(-128.53 -47.225)" fill="#fff"/>
</svg>
