<svg xmlns="http://www.w3.org/2000/svg" width="55.115" height="58" viewBox="0 0 55.115 58">
  <path id="app_drawer_news" d="M37.755,39.853l.732-.122a47.81,47.81,0,0,0,12.086-3.785q7.081-3.174,9.156-7.569.61-1.221,1.587-3.54a29.574,29.574,0,0,1,1.709-3.54,6.324,6.324,0,0,1,2.32-2.32,5.318,5.318,0,0,1,2.075-.855l.61-.122q.244,0,.244.122Q71.45,18,74.685,21.235a30.76,30.76,0,0,1,5.86,8.912,52.791,52.791,0,0,1,3.907,12.635,55.316,55.316,0,0,1,.916,13.246,30.387,30.387,0,0,1-2.2,10.438q-1.831,4.151-4.761,5.25,0,.122-.244.122l-.732.122a5.005,5.005,0,0,1-2.2,0,6.763,6.763,0,0,1-2.93-1.343A23.91,23.91,0,0,1,69.5,67.931q-1.709-1.709-2.808-2.686-3.54-3.3-11.354-3.785a49.877,49.877,0,0,0-12.7.977l-.61.122a8.309,8.309,0,0,1-7.2-2.075,12.709,12.709,0,0,1-4.212-7.508,12.456,12.456,0,0,1,1.16-8.546A8.356,8.356,0,0,1,37.755,39.853Zm28.323,6.47a63.542,63.542,0,0,0,2.869,10.438,30.376,30.376,0,0,0,3.723,7.325q1.953,2.625,3.785,2.259,2.075-.366,3.357-3.6a24.423,24.423,0,0,0,1.4-8.3,51.008,51.008,0,0,0-.977-10.8A53.278,53.278,0,0,0,77.188,33.2,24.35,24.35,0,0,0,72.915,26q-2.32-2.5-4.517-2.136-1.709.366-2.625,3.479a28.3,28.3,0,0,0-.855,8.118A63.431,63.431,0,0,0,66.078,46.323Zm4.639-7.813A8.615,8.615,0,0,1,75.112,40.4a6.271,6.271,0,0,1,1.526,8.057,8.163,8.163,0,0,1-3.479,3.357,2.2,2.2,0,0,1-1.953.061,2.05,2.05,0,0,1-1.221-1.526q-.61-2.2-1.1-4.578t-.732-4.7a2.207,2.207,0,0,1,.671-1.953A2.293,2.293,0,0,1,70.718,38.51ZM45.813,65a9.825,9.825,0,0,0,3.785.244l3.3-.488a.782.782,0,0,1,.732.488L55.335,68.3a3.259,3.259,0,0,0,.61.855l2.93,4.029a.661.661,0,0,1,.183.61.905.905,0,0,1-.427.61l-.977.488a8.182,8.182,0,0,1-4.639,1.1l-.977-.122a4.617,4.617,0,0,1-2.869-.977,5.01,5.01,0,0,1-1.77-2.442L45.08,66.1a.7.7,0,0,1,0-.794A.882.882,0,0,1,45.813,65Z" transform="translate(-30.333 -18)" fill="#fff"/>
</svg>
