<svg xmlns="http://www.w3.org/2000/svg" width="59.041" height="59" viewBox="0 0 59.041 59">
  <path id="Subtraction_1" data-name="Subtraction 1" d="M53.878,58a4.169,4.169,0,0,1-1.353-.229l-11.59-3.98a28.514,28.514,0,0,1-12.527,2.935H28.36A28.369,28.369,0,0,1,17.521,2.146,28.194,28.194,0,0,1,28.352,0c.156,0,.314,0,.472,0a28.413,28.413,0,0,1,27.9,28.4A28.47,28.47,0,0,1,53.79,40.937l3.982,11.586A4.138,4.138,0,0,1,53.878,58ZM28.349,38.645a3.641,3.641,0,0,0-2.605.969,3.485,3.485,0,0,0-.022,4.9,3.646,3.646,0,0,0,2.628.96,3.664,3.664,0,0,0,2.632-.96,3.482,3.482,0,0,0-.022-4.9A3.644,3.644,0,0,0,28.349,38.645Zm.449-21.19a3.4,3.4,0,0,1,2.618.946,4.079,4.079,0,0,1,.872,2.841,4.629,4.629,0,0,1-.67,2.387,14.432,14.432,0,0,1-2.7,2.938,10.317,10.317,0,0,0-2.785,3.66,13.479,13.479,0,0,0-.761,5H31.1l.089-1.366a6.175,6.175,0,0,1,1.945-3.831L34.954,28.3a14.945,14.945,0,0,0,2.975-3.751,7.936,7.936,0,0,0,.849-3.6A8.194,8.194,0,0,0,36.16,14.47c-1.738-1.524-4.215-2.3-7.361-2.3a10.8,10.8,0,0,0-7.418,2.42,8.657,8.657,0,0,0-2.763,6.7h6.488a4.011,4.011,0,0,1,1.042-2.813A3.545,3.545,0,0,1,28.8,17.454Z" transform="translate(0.5 0.5)" fill="#fff" stroke="rgba(0,0,0,0)" stroke-width="1"/>
</svg>
