<svg xmlns="http://www.w3.org/2000/svg" width="62.001" height="64.69" viewBox="0 0 62.001 64.69">
  <path id="Union_12" data-name="Union 12" d="M6.205,64.318A1.58,1.58,0,0,1,6.1,62.23L24.369,39.24l3.787,3.736L8.193,64.23a1.734,1.734,0,0,1-1.086.459A1.336,1.336,0,0,1,6.205,64.318Zm45.221-.639-8.475-9.732s-3.639.648-8.363,4.436a10.991,10.991,0,0,1-1.947-1.662l6.4-5.832S19.049,27.674,4.082,15.461C1.846,10.7.578,3.813,0,1.4A78.358,78.358,0,0,1,13.166,6.809C16.4,13.521,43.846,46.4,43.846,46.4l7.393-6.1,1.553,1.873s-4.937,4.584-6.168,8.693c3.6,4.289,8.664,9.93,8.664,9.93s.973,1.984-.4,3.066a2.128,2.128,0,0,1-1.352.438A4.7,4.7,0,0,1,51.426,63.68ZM32.9,28.574l1.3-2.354c1.26-2.354.164-3.77-.65-6.238a18.538,18.538,0,0,1,.568-11.854C39.238.4,44.154-.947,52.547.523c6,1.813,8.107,4.707,9.406,12.053.588,8.943-4.322,11.584-7.766,12.926s-6.885,1.055-8.734-.957.377-5.25,2.143-3.994c2.563,1.893,4.369,2.145,7.85-.5,2.432-2.139,5.035-12.463-3.652-15.2-9.084-2.436-12.857,5.391-13.3,7.953-.979,9.75,4.459,8.162,2.26,15.723a32.682,32.682,0,0,1-3.9,5.418ZM44.773,13.182a4.088,4.088,0,1,1,4.09,4.086A4.089,4.089,0,0,1,44.773,13.182Z" transform="translate(0 0)" fill="#fff"/>
</svg>
