<svg xmlns="http://www.w3.org/2000/svg" width="68.911" height="43.952" viewBox="0 0 68.911 43.952">
  <path id="Color_Fill_1" data-name="Color Fill 1" d="M52.323,23.985c5.312-.041,8.139,2.24,9.954,5.643.713,1.336,2.894,5.868,4.732,5.608,1.932-.273,3.323-3.424,4.206-4.942A13.87,13.87,0,0,1,76.087,25c2.462-1.51,7.4-1.1,10.164-.21,6.784,2.184,13.2,4.807,14.861,12.092,2.049,8.97-5.554,13-14.02,10.971a23.706,23.706,0,0,1-11.847-6.519c-1.075-1.143-1.854-2.655-2.979-3.75-3.814,0-2.769,3.671-2.769,7.255V61.593c0,3.179.587,5.743-2.208,6.274-3.56.677-2.944-3.777-2.944-6.765V43.332c0-2.365.6-4.588-1.157-5.363a2.858,2.858,0,0,0-1.682-.35c-3.778,5.1-7.516,8.516-14.686,10.234-5.738,1.376-11.188-.057-13.214-3.82a9.807,9.807,0,0,1-.946-5.958c1.315-7.825,7.2-10.893,14.09-13.073a26.328,26.328,0,0,1,3.365-.841Z" transform="translate(-32.539 -23.984)" fill="#fff"/>
</svg>
