<svg xmlns="http://www.w3.org/2000/svg" width="50.455" height="50.377" viewBox="0 0 50.455 50.377">
  <path id="Union_14" data-name="Union 14" d="M23.2,43.183v-.246a18.08,18.08,0,0,1-3.9-.9c-.6,1.2-1.99,3.771-2.835,3.408-.942-.408.194-3.535.534-4.4a18.339,18.339,0,0,1-2.912-1.885c-1.185,1.1-5.534,4.993-6.7,3.83-1.354-1.349,3.665-6.516,3.665-6.516l.175-.175A17.945,17.945,0,0,1,9.1,32.912c-1.267.431-4.078,1.265-4.418.411-.379-.955,2.631-2.356,3.491-2.734A17.563,17.563,0,0,1,7.451,27.2C5.824,27.138,0,26.817,0,25.174c0-1.91,7.2-2.022,7.2-2.022h.248a17.829,17.829,0,0,1,.892-3.9c-1.2-.6-3.776-1.987-3.412-2.831.408-.94,3.539.194,4.407.534.253-.475.52-.945.811-1.4a1.985,1.985,0,0,1,3.344,2.138,13.9,13.9,0,0,0-1.2,12.628c.029.069.053.136.082.2,0,0,0-.01.009-.015a13.937,13.937,0,0,0,2.8,4.276V34.8a13.93,13.93,0,0,0,17.541,2.1,1.983,1.983,0,1,1,2.141,3.339,17.176,17.176,0,0,1-1.9,1.052c.432,1.271,1.267,4.072.412,4.411-.956.379-2.358-2.637-2.738-3.49a17.851,17.851,0,0,1-3.392.723c-.059,1.619-.379,7.441-2.025,7.441C23.312,50.377,23.2,43.183,23.2,43.183Zm1.175-6.224-4.534-8.576a.96.96,0,0,1-.063-.582.913.913,0,0,1,.034-.508l4.534-13.812a.939.939,0,0,1,1.766,0l4.533,13.812a.952.952,0,0,1,.035.508.89.89,0,0,1-.064.582l-4.533,8.576a.94.94,0,0,1-1.708,0ZM25.1,20.525,23.307,26.75a.159.159,0,0,0,0,.106L25.1,30.745a.138.138,0,0,0,.253,0l1.791-3.888a.164.164,0,0,0,0-.106l-1.79-6.225a.143.143,0,0,0-.132-.092A.142.142,0,0,0,25.1,20.525ZM37.675,35.3a1.98,1.98,0,0,1-.631-2.733A13.827,13.827,0,0,0,39.156,25.2c0-.2,0-.4-.014-.6,0,0-.006.01-.01.015a13.8,13.8,0,0,0-2.005-6.627v-.02A13.94,13.94,0,0,0,17.862,13.4a1.985,1.985,0,1,1-2.107-3.364A18.451,18.451,0,0,1,17.5,9.084c-.432-1.269-1.267-4.072-.412-4.41.951-.379,2.359,2.637,2.738,3.49a17.907,17.907,0,0,1,3.393-.723C23.274,5.822,23.594,0,25.239,0c1.912,0,2.025,7.194,2.025,7.194v.247a18.029,18.029,0,0,1,3.9.9c.593-1.2,1.991-3.776,2.835-3.413.941.407-.2,3.544-.538,4.407a18.114,18.114,0,0,1,2.907,1.885c1.18-1.1,5.538-5,6.7-3.834,1.354,1.348-3.665,6.515-3.665,6.515l-.174.175a17.875,17.875,0,0,1,1.606,2.384c.185.325.359.659.52,1,1.272-.431,4.078-1.265,4.417-.412.379.95-2.641,2.361-3.494,2.735A17.86,17.86,0,0,1,43,23.168c1.617.058,7.451.378,7.451,2.021,0,1.91-7.2,2.022-7.2,2.022v.013h-.242a17.757,17.757,0,0,1-.894,3.9c1.2.6,3.776,1.987,3.413,2.831-.408.94-3.534-.194-4.407-.533-.219.422-.456.839-.708,1.246a1.99,1.99,0,0,1-1.685.931A1.969,1.969,0,0,1,37.675,35.3Z" fill="#f90"/>
</svg>
