<svg xmlns="http://www.w3.org/2000/svg" width="31.771" height="50" viewBox="0 0 31.771 50">
  <path id="class_job_022" d="M164.729,69.365h-2.474l-1.042,1.3q-1.3,1.3-1.953,1.3t-1.107-.977A4.455,4.455,0,0,1,157.7,69.1V58.427a6.492,6.492,0,0,0-.911-2.995A7.061,7.061,0,0,0,156.005,54l-.911,1.563a6.345,6.345,0,0,0-.911,2.865V69.885l-.26.391a8.534,8.534,0,0,1-1.3,1.042,6.889,6.889,0,0,1-2.734,1.172,6.889,6.889,0,0,1-2.734-1.172,8.535,8.535,0,0,1-1.3-1.042l-.26-.391V58.427A8.257,8.257,0,0,0,143.766,54l-.781,1.432a6.492,6.492,0,0,0-.911,2.995V69.1a4.455,4.455,0,0,1-.456,1.888q-.456.977-1.107.977-1.042,0-2.995-2.6h-2.474a1.121,1.121,0,0,0-.716.26.746.746,0,0,0-.326.586q0,.326,4.818,11,3.516,7.813,3.906,8.724.521,1.172,2.734,8.073l1.3,3.776a3.55,3.55,0,0,0,.911,1.563,1.783,1.783,0,0,0,1.042.651h2.344a1.783,1.783,0,0,0,1.042-.651,3.549,3.549,0,0,0,.911-1.562l1.3-3.776q2.214-6.9,2.734-8.073.391-.911,3.906-8.724,4.818-10.677,4.818-11a.746.746,0,0,0-.326-.586A1.12,1.12,0,0,0,164.729,69.365Zm-6.12,9.375a6.458,6.458,0,0,1-1.5,2.279,13.212,13.212,0,0,1-2.409,2.148l-.651.391q-.781.521-1.237.846a4.511,4.511,0,0,0-.911.911,1.778,1.778,0,0,0-.456.846,3.809,3.809,0,0,0,.781,1.3q1.172,1.3,1.172,1.693V92.8a5.714,5.714,0,0,1-1.172,1.953,12.546,12.546,0,0,0-.781,1.172,7.126,7.126,0,0,0-.781,2.865.765.765,0,0,1-.391.651l-.391.13-.391-.13a.765.765,0,0,1-.391-.651,7.126,7.126,0,0,0-.781-2.865,12.549,12.549,0,0,0-.781-1.172A5.714,5.714,0,0,1,146.37,92.8V89.156q0-.391,1.172-1.693a3.809,3.809,0,0,0,.781-1.3,1.778,1.778,0,0,0-.456-.846,4.511,4.511,0,0,0-.911-.911q-.456-.326-1.237-.846l-.651-.391a13.212,13.212,0,0,1-2.409-2.148,6.458,6.458,0,0,1-1.5-2.279l-.651-2.6.391-.521a4.728,4.728,0,0,1,1.042-1.172,4.269,4.269,0,0,1,1.953-.651q.26,0,.911.781a9.343,9.343,0,0,0,2.214,1.953,6.366,6.366,0,0,0,2.865.651h.651a9.985,9.985,0,0,0,2.214-.651,9.343,9.343,0,0,0,2.214-1.953q.651-.781.911-.781a3.268,3.268,0,0,1,1.758.651,5.518,5.518,0,0,1,1.628,1.693Z" transform="translate(-134 -54)" fill="#fff"/>
</svg>
