<svg xmlns="http://www.w3.org/2000/svg" width="933.333" height="933.333" viewBox="0 0 700 700"><path d="M344.6 1.9C337 7 329.5 27.8 326.5 52.2c-.3 2.4-.7 5.6-1 7.3-.8 5.3-1.5 11.8-2 20-1.3 19.3-1.6 23-2.3 23.7-.4.3-3.6.9-7.2 1.3-3.5.4-6.7.8-7.1 1.1-.4.2-2.4.6-4.5.9-2.2.4-8.9 1.9-15.1 3.6-6.2 1.6-11.6 2.9-12 2.9s-1.7-2.1-2.7-4.6c-2.5-6.1-10.8-21.4-15.3-28.2-6.3-9.4-14.1-16.2-18-15.6-.7.1-1.8.2-2.3.3-.6 0-1.9 1.6-3 3.3-4.3 6.8-1.7 24.2 8.1 56.5.2.7-5 4.2-12.1 8.2-17.4 9.7-22.1 14.8-24.1 26.3-1.4 8.6 2.4 18.7 9.5 25.1 3.9 3.4 10.9 5.9 17.3 5.9 6.5.1 10.3-1 16.7-5 18.5-11.5 45.4-21.6 67.4-25.3 19-3.2 48.7-3.4 64.7-.3 24.9 4.7 43.8 11.3 62.6 21.9 35.9 20.3 62.9 49.3 80.8 87 3.7 7.6 10.4 25.9 11.6 31.4 5.7 25.6 6 28.8 5.9 52.6 0 19.7-.3 22.1-3.4 37.4-3.9 19.4-12.4 40.8-24.4 61.7-7.3 12.6-5.9 26 3.6 35.1 10.5 10.1 28 10.1 38.1.1 1.8-1.8 5.4-6.9 8-11.3 2.5-4.4 5-8.7 5.5-9.5.7-1.2 2.8-.8 13.3 2.7 6.8 2.3 15.6 4.9 19.4 5.9 8.8 2.2 22.2 2.4 25.8.5 11.2-6-3.7-21.7-37.2-39.1-6.4-3.3-6.8-4.1-5-8.7.6-1.5 1.2-3.6 1.5-4.7.2-1 1-4.2 1.8-7 2.1-7.1 5.3-22.1 6.1-28.1 1.2-9.8.9-9.5 8.4-9.6 3.6-.1 8.2-.3 10.1-.4s7.6-.5 12.5-.9c5-.3 10.1-.8 11.5-1s4.8-.7 7.5-1c27.8-3.3 47.7-10.7 52.9-19.5 3.6-6.3-.1-13.4-9.7-18.3-13.5-6.8-43.9-12.2-81.2-14.3-5.5-.3-10.3-.9-10.6-1.3-.4-.4-1-3.4-1.3-6.7-.4-3.3-.9-6.7-1.1-7.5s-.7-3.1-1-5-2-8.9-3.7-15.5c-2.3-9.1-2.8-12-1.8-12.3 4.3-1.5 22.7-11.3 29.5-15.7 9.2-6 14.7-11.1 17-15.5 1.3-2.6 1.4-3.5.3-5.8-.7-1.5-2.6-3.3-4.1-4-6.2-3-23.4-.8-45.9 5.9-5.3 1.6-10.1 2.9-10.6 2.9-.4 0-1.8-2.1-3.1-4.8-4-8.2-14.3-24.9-20.3-32.9-3.2-4.3-5.8-8.2-5.8-8.6 0-.5 2.4-3.4 5.4-6.5 20.6-21.6 42.2-51.5 47.5-65.8 5.6-14.8 1.9-23.8-9.5-23.6-4.7.1-15.6 4.1-21.6 7.9-2.1 1.2-4 2.3-4.3 2.3-.8 0-15.8 10.6-23.5 16.5-7.5 5.7-7.6 5.9-23.1 19.3-11.3 9.8-11.7 10-13.6 8.3-2.9-2.7-25.1-17.4-31.8-21.1l-6.1-3.2 4.2-12.7c8-24.1 10-40.1 5.8-45.8-2.9-3.9-6.7-4.1-11.2-.7-3.5 2.7-4.5 3.6-9.5 9.4-3.2 3.8-12.4 18.6-16.4 26.5-5 10-4.5 9.7-11.1 7.3-11.1-3.8-26.9-7.4-46.2-10.3-.8-.1-1.5-1.3-1.6-2.6-.6-14.2-1.6-30.2-1.9-32.1-.2-1.3-.6-4.7-.9-7.7-2.8-27.4-9.8-50.4-17.8-57.8-3.4-3.2-9.6-3.9-13.2-1.4"/><path d="M341.9 182.1c-3.3 3.1-4.5 6.4-14.8 37.9-6.2 19-13.9 42.4-17.1 52-3.1 9.6-8.9 27.2-12.8 39s-10.7 32.7-15.2 46.3c-9.5 29.1-9.7 31.7-3.7 42.8 1.9 3.5 6.2 11.8 9.7 18.4 3.4 6.6 7.5 14.2 9 17 2.6 4.8 8.5 15.9 20 38 5.3 10.1 13.6 25.9 19.6 37 1.8 3.3 4.7 7 6.4 8.3 6.6 4.5 15.5 1.7 19.5-6.3 2.6-5.3 25.8-49.2 30.3-57.4 1.9-3.6 6.1-11.7 9.4-18 3.3-6.4 7.3-13.9 8.8-16.6 1.5-2.8 5.5-10.2 8.8-16.5 5.8-11 6-11.9 5.8-18-.2-6.3-4.9-21.5-32.6-105-2.1-6.3-10-30.4-17.5-53.5-15.6-47.7-15.5-47.5-24.7-48.3-5.1-.4-5.7-.2-8.9 2.9M352 286.2c1.1 2.5 24.1 83.1 24.4 85.6.2.8-.5 3.1-1.5 5.1-.9 2-3.9 8.5-6.7 14.6-4.5 10-11.9 25.8-15.9 34.3-1.5 3.2-1.7 3.3-3.3 1.5-.9-1-2.9-4.7-4.5-8.3-1.5-3.6-5.3-11.7-8.3-18s-7.1-15.4-9.2-20.1l-3.8-8.6 10.5-36.4c5.8-20 10.6-36.9 10.7-37.4.6-2.4 2.8-10 3.6-12.1 1.2-3 2.8-3.1 4-.2"/><path d="M158.5 204c-9.4 2.1-14.6 6.8-22.8 20.7-3.3 5.7-6.3 10.3-6.7 10.3-.3 0-5.3-1.6-11.1-3.5-21.1-7.1-38-9.8-45-7.2-6.8 2.6-6.2 9.3 1.4 16.8 5.4 5.3 20.8 15.9 28.7 19.8 7.1 3.4 12.2 6.5 12.1 7.4 0 .4-1.1 4.4-2.5 9-3.8 12.3-5.8 21.6-7.8 35.2-.7 4.4-1.6 8.3-2.1 8.6-.5.4-4.1.7-8 .8-8.5.2-22.3 1.2-35.2 2.6-16.8 1.8-35.6 6.2-45.4 10.6-18.1 8.2-18.7 20.2-1.4 28.3 5 2.4 20.3 7 27.3 8.1 1.9.3 4.9.8 6.5 1.1 4.2.8 7.1 1.2 14 1.9 3.3.3 7.1.8 8.5 1 2.9.5 17.2 1.6 26.8 2 7.1.3 7.7.7 8.5 7 .6 4.1 1.6 10.5 2.2 14 .1 1.1.8 4 1.5 6.5s1.4 5.4 1.6 6.5 1 4.3 1.9 7c2.1 6.9 2 7.2-2.2 8.6-2.1.7-4.7 1.8-5.8 2.4-1.1.7-5.6 3.2-10 5.5-25.7 13.7-35.2 26-24.3 31.6 6.4 3.3 26.3.4 51.6-7.4 4.5-1.4 6.2-1.7 6.2-.8 0 1.5 12.5 23.5 17.2 30.3 5 7.2 9.2 12.8 10.1 13.1 1.6.8.5 3.4-2.9 6.9-13.9 14.6-33.4 39.4-41.7 53.1-9.1 15.2-12 25.1-9.3 31.7 6.7 16 34.5 3.3 81.1-37.1l14-12.1 4.5 3.4c7.9 5.9 23.8 16.2 30 19.4l5.9 3.1-2.5 6.6c-2.1 5.7-5.6 16.7-6.9 22.2-2.1 8.9-2.7 12.4-2.9 17.5-.5 9.9 2.3 15.5 7.7 15.5 2.8 0 8.5-4.3 12.9-9.7 2.1-2.6 4.5-5.5 5.2-6.3 1.6-2 10.5-16.9 14.6-24.5 1.7-3.3 3.4-6.3 3.6-6.6.2-.4 3 .2 6.1 1.3 9.3 3.1 28.9 7.7 38.2 8.9 4.7.7 8.9 1.5 9.3 1.8.3.3.9 6.2 1.2 13.1.6 12.6 1.3 21.6 2.1 28 2.9 22.6 5.1 33.3 9.1 44.2 6.7 17.9 17.8 22.9 26.1 11.8 5.1-6.9 10.6-23.3 12.8-38.5.3-2.3.7-5 .9-6.1.2-1.2.7-4.5 1-7.5.4-3 .9-7 1.1-8.9.5-3.9 1.2-12.1 2-26 .4-5.2.9-9.8 1.3-10.2.4-.3 3.2-.9 6.2-1.2 8.2-.9 10.2-1.3 25.8-5.2 7.9-2 14.4-3.4 14.5-3.2.1.1 2.9 5.7 6.1 12.3 15.2 30.8 29 43.1 35.4 31.4.9-1.7 1.2-5.3.8-12.4-.4-9.2-2.5-19.2-8.8-40.9-.8-2.8-.8-4 .1-4.5.6-.3 6.2-3.3 12.3-6.6 19.4-10.5 25.3-17.9 25.2-31.5 0-7.9-3.4-15.2-9.1-19.9-11.3-9.3-21.7-9.2-37.8.4-22.9 13.6-46.9 22-74.5 25.9-9.5 1.4-42.6 1.5-50 .2-1.9-.3-4.8-.9-6.5-1.2-1.6-.3-4.3-.8-6-1-1.6-.3-7.8-1.8-13.7-3.4-45.4-12.5-83.8-40.5-109.8-80-14.7-22.4-26.4-52-29.5-74.5-.3-1.7-.9-5.9-1.4-9.5-1-6.5-.8-42.3.3-47 .3-1.4.8-4.1 1-6 2.7-20.5 13.3-49.4 25.4-69.2 4.8-7.9 6.1-11.3 6.6-16.3.7-9.3-4.4-20.3-11.9-25.2-5.9-3.9-14.7-5.7-21-4.3"/></svg>