<?xml version="1.0" standalone="no"?>
<!DOCTYPE svg PUBLIC "-//W3C//DTD SVG 20010904//EN"
 "http://www.w3.org/TR/2001/REC-SVG-20010904/DTD/svg10.dtd">
<svg version="1.0" xmlns="http://www.w3.org/2000/svg"
 width="700.000000pt" height="700.000000pt" viewBox="0 0 700.000000 700.000000"
 preserveAspectRatio="xMidYMid meet">
<metadata>
Created by potrace 1.14, written by Peter Selinger 2001-2017
</metadata>
<g transform="translate(0.000000,700.000000) scale(0.100000,-0.100000)"
fill="#000000" stroke="none">
<path d="M3446 6981 c-76 -51 -151 -259 -181 -503 -3 -24 -7 -56 -10 -73 -8
-53 -15 -118 -20 -200 -13 -193 -16 -230 -23 -237 -4 -3 -36 -9 -72 -13 -35
-4 -67 -8 -71 -11 -4 -2 -24 -6 -45 -9 -22 -4 -89 -19 -151 -36 -62 -16 -116
-29 -120 -29 -4 0 -17 21 -27 46 -25 61 -108 214 -153 282 -63 94 -141 162
-180 156 -7 -1 -18 -2 -23 -3 -6 0 -19 -16 -30 -33 -43 -68 -17 -242 81 -565
2 -7 -50 -42 -121 -82 -174 -97 -221 -148 -241 -263 -14 -86 24 -187 95 -251
39 -34 109 -59 173 -59 65 -1 103 10 167 50 185 115 454 216 674 253 190 32
487 34 647 3 249 -47 438 -113 626 -219 359 -203 629 -493 808 -870 37 -76
104 -259 116 -314 57 -256 60 -288 59 -526 0 -197 -3 -221 -34 -374 -39 -194
-124 -408 -244 -617 -73 -126 -59 -260 36 -351 105 -101 280 -101 381 -1 18
18 54 69 80 113 25 44 50 87 55 95 7 12 28 8 133 -27 68 -23 156 -49 194 -59
88 -22 222 -24 258 -5 112 60 -37 217 -372 391 -64 33 -68 41 -50 87 6 15 12
36 15 47 2 10 10 42 18 70 21 71 53 221 61 281 12 98 9 95 84 96 36 1 82 3
101 4 19 1 76 5 125 9 50 3 101 8 115 10 14 2 48 7 75 10 278 33 477 107 529
195 36 63 -1 134 -97 183 -135 68 -439 122 -812 143 -55 3 -103 9 -106 13 -4
4 -10 34 -13 67 -4 33 -9 67 -11 75 -2 8 -7 31 -10 50 -3 19 -20 89 -37 155
-23 91 -28 120 -18 123 43 15 227 113 295 157 92 60 147 111 170 155 13 26 14
35 3 58 -7 15 -26 33 -41 40 -62 30 -234 8 -459 -59 -53 -16 -101 -29 -106
-29 -4 0 -18 21 -31 48 -40 82 -143 249 -203 329 -32 43 -58 82 -58 86 0 5 24
34 54 65 206 216 422 515 475 658 56 148 19 238 -95 236 -47 -1 -156 -41 -216
-79 -21 -12 -40 -23 -43 -23 -8 0 -158 -106 -235 -165 -75 -57 -76 -59 -231
-193 -113 -98 -117 -100 -136 -83 -29 27 -251 174 -318 211 l-61 32 42 127
c80 241 100 401 58 458 -29 39 -67 41 -112 7 -35 -27 -45 -36 -95 -94 -32 -38
-124 -186 -164 -265 -50 -100 -45 -97 -111 -73 -111 38 -269 74 -462 103 -8 1
-15 13 -16 26 -6 142 -16 302 -19 321 -2 13 -6 47 -9 77 -28 274 -98 504 -178
578 -34 32 -96 39 -132 14z"/>
<path d="M3419 5179 c-33 -31 -45 -64 -148 -379 -62 -190 -139 -424 -171 -520
-31 -96 -89 -272 -128 -390 -39 -118 -107 -327 -152 -463 -95 -291 -97 -317
-37 -428 19 -35 62 -118 97 -184 34 -66 75 -142 90 -170 26 -48 85 -159 200
-380 53 -101 136 -259 196 -370 18 -33 47 -70 64 -83 66 -45 155 -17 195 63
26 53 258 492 303 574 19 36 61 117 94 180 33 64 73 139 88 166 15 28 55 102
88 165 58 110 60 119 58 180 -2 63 -49 215 -326 1050 -21 63 -100 304 -175
535 -156 477 -155 475 -247 483 -51 4 -57 2 -89 -29z m101 -1041 c11 -25 241
-831 244 -856 2 -8 -5 -31 -15 -51 -9 -20 -39 -85 -67 -146 -45 -100 -119
-258 -159 -343 -15 -32 -17 -33 -33 -15 -9 10 -29 47 -45 83 -15 36 -53 117
-83 180 -30 63 -71 154 -92 201 l-38 86 105 364 c58 200 106 369 107 374 6 24
28 100 36 121 12 30 28 31 40 2z"/>
<path d="M1585 4960 c-94 -21 -146 -68 -228 -207 -33 -57 -63 -103 -67 -103
-3 0 -53 16 -111 35 -211 71 -380 98 -450 72 -68 -26 -62 -93 14 -168 54 -53
208 -159 287 -198 71 -34 122 -65 121 -74 0 -4 -11 -44 -25 -90 -38 -123 -58
-216 -78 -352 -7 -44 -16 -83 -21 -86 -5 -4 -41 -7 -80 -8 -85 -2 -223 -12
-352 -26 -168 -18 -356 -62 -454 -106 -181 -82 -187 -202 -14 -283 50 -24 203
-70 273 -81 19 -3 49 -8 65 -11 42 -8 71 -12 140 -19 33 -3 71 -8 85 -10 29
-5 172 -16 268 -20 71 -3 77 -7 85 -70 6 -41 16 -105 22 -140 1 -11 8 -40 15
-65 7 -25 14 -54 16 -65 2 -11 10 -43 19 -70 21 -69 20 -72 -22 -86 -21 -7
-47 -18 -58 -24 -11 -7 -56 -32 -100 -55 -257 -137 -352 -260 -243 -316 64
-33 263 -4 516 74 45 14 62 17 62 8 0 -15 125 -235 172 -303 50 -72 92 -128
101 -131 16 -8 5 -34 -29 -69 -139 -146 -334 -394 -417 -531 -91 -152 -120
-251 -93 -317 67 -160 345 -33 811 371 l140 121 45 -34 c79 -59 238 -162 300
-194 l59 -31 -25 -66 c-21 -57 -56 -167 -69 -222 -21 -89 -27 -124 -29 -175
-5 -99 23 -155 77 -155 28 0 85 43 129 97 21 26 45 55 52 63 16 20 105 169
146 245 17 33 34 63 36 66 2 4 30 -2 61 -13 93 -31 289 -77 382 -89 47 -7 89
-15 93 -18 3 -3 9 -62 12 -131 6 -126 13 -216 21 -280 29 -226 51 -333 91
-442 67 -179 178 -229 261 -118 51 69 106 233 128 385 3 23 7 50 9 61 2 12 7
45 10 75 4 30 9 70 11 89 5 39 12 121 20 260 4 52 9 98 13 102 4 3 32 9 62 12
82 9 102 13 258 52 79 20 144 34 145 32 1 -1 29 -57 61 -123 152 -308 290
-431 354 -314 9 17 12 53 8 124 -4 92 -25 192 -88 409 -8 28 -8 40 1 45 6 3
62 33 123 66 194 105 253 179 252 315 0 79 -34 152 -91 199 -113 93 -217 92
-378 -4 -229 -136 -469 -220 -745 -259 -95 -14 -426 -15 -500 -2 -19 3 -48 9
-65 12 -16 3 -43 8 -60 10 -16 3 -78 18 -137 34 -454 125 -838 405 -1098 800
-147 224 -264 520 -295 745 -3 17 -9 59 -14 95 -10 65 -8 423 3 470 3 14 8 41
10 60 27 205 133 494 254 692 48 79 61 113 66 163 7 93 -44 203 -119 252 -59
39 -147 57 -210 43z"/>
</g>
</svg>
