<svg width="120" height="99" viewBox="0 0 120 99" fill="none" xmlns="http://www.w3.org/2000/svg">
<path fill-rule="evenodd" clip-rule="evenodd" d="M118.438 2.98247L118.44 2.98C119.976 4.53167 119.055 5.79208 118.221 6.93252C118.007 7.22529 117.799 7.51015 117.64 7.79C113.2 15.58 108.72 23.35 103.98 30.96C100.38 36.73 98.3 42.87 97.87 49.63C97.72 51.97 97.17 54.2 95.63 56.05C94.03 56.4356 93.2177 55.4546 92.4584 54.5377C92.2923 54.337 92.1287 54.1395 91.96 53.96C87.47 49.16 82.72 44.96 75.86 43.8C72.78 43.28 72.01 41.33 74.46 38.9C74.6028 38.7584 74.7445 38.6147 74.8862 38.4709C75.9057 37.4365 76.9325 36.3948 78.46 36.07C78.6061 36.7316 78.8277 37.2321 79.106 37.6114L79.108 37.6041C78.8288 37.2245 78.6065 36.7232 78.46 36.06C89.0157 32.8121 95.2274 24.81 101.441 16.8059L101.444 16.8022C103.111 14.6544 104.778 12.5061 106.53 10.45C107.119 9.75861 107.703 9.0598 108.286 8.36066L108.288 8.35844L108.289 8.35683C110.051 6.2462 111.815 4.13194 113.76 2.21C115.299 0.691023 117.467 -0.738077 118.438 2.98247ZM118.438 2.98247L118.271 3.19386L118.276 3.19758L118.44 2.99L118.438 2.98247Z" fill="white"/>
<path fill-rule="evenodd" clip-rule="evenodd" d="M50.4389 11.0143C49.9519 11.0431 49.4851 11.0707 49.02 11.1C46.86 10.85 44.8 11.02 42.7 11.79C30.02 16.43 19.39 23.91 10.88 34.39C10.9068 34.4323 10.9328 34.4745 10.9582 34.5167L10.9453 34.5219C10.9208 34.4813 10.8957 34.4407 10.87 34.4C10.8028 34.4773 10.736 34.5547 10.6696 34.6322L10.5358 34.6857L10.5638 34.7558C0.323354 46.7717 -1.50221 60.5178 2.32 75.47C4 82.05 6.39 88.17 12.56 91.96C18.12 95.37 22.66 93.75 25.43 87.82C27.87 82.59 24.89 79.19 21.88 75.85C16.37 69.73 14.33 62.65 15.51 54.62C18.33 35.55 30.41 23.87 46.85 15.81L47.1131 15.681C49.2967 14.6117 51.3609 13.6009 52.63 10.88C51.8291 10.9322 51.1157 10.9744 50.4411 11.0142L50.4389 11.0143ZM49.02 11.1C48.1044 11.6432 47.1955 12.1979 46.2868 12.7525L46.2859 12.753C44.2674 13.985 42.249 15.2169 40.16 16.32C34.0657 19.5368 28.7191 23.494 24.07 28.1438C26.4442 25.7703 29.0002 23.5773 31.7447 21.5713L31.7442 21.5704L31.7535 21.5649C34.378 19.6472 37.1749 17.9004 40.15 16.33C42.2389 15.2269 44.2566 13.9954 46.275 12.7634L46.2759 12.763L46.2768 12.7625C47.1855 12.2079 48.0944 11.6532 49.01 11.11L49.02 11.1ZM10.2034 43.7112L10.2179 43.6822C10.1749 43.8635 10.1361 44.0451 10.1027 44.2268L10.0974 44.2111C10.1286 44.0443 10.1642 43.8776 10.2034 43.7112ZM11 45.5872C11.1749 45.5155 11.3164 45.4166 11.4389 45.293C11.3164 45.4143 11.1748 45.5111 11 45.5812V45.5872Z" fill="white"/>
<path d="M44.0841 85.9125L44.08 85.93L44.07 85.92L44.0841 85.9125Z" fill="white"/>
<path fill-rule="evenodd" clip-rule="evenodd" d="M44.0841 85.9125L44.1285 85.7214L44.1 85.7L44.1485 85.6353C44.3997 84.5517 44.6433 83.4646 44.887 82.3776L44.8872 82.3766L44.8875 82.3754L44.8878 82.374C47.3401 71.4323 49.7909 60.4979 59.8691 53.235L59.88 53.21C65.56 47.54 71.83 45.72 79.26 49.92C80.732 50.7555 81.7776 51.9514 82.8222 53.1465C83.3531 53.7537 83.8837 54.3607 84.47 54.92L84.4863 54.9606L84.5023 55.0013L84.5082 55.0001C84.499 54.9768 84.4896 54.9535 84.48 54.93L84.5309 54.9551L84.5892 54.9842L84.9994 54.9036L85.0643 55.2339C89.1694 57.4937 90.9402 61.2281 90.08 65.73C88.48 74.14 85.85 82.33 78.54 87.67C71.2 93.03 63.14 97.09 54 98.49C46.8 99.59 39.83 98.7 32.88 95.91C33.0926 92.2725 35.5081 91.3166 37.8756 90.3796C38.6258 90.0827 39.3711 89.7878 40.04 89.41C40.0427 89.4322 40.0457 89.4541 40.0488 89.4756L40.0568 89.4716C40.0544 89.4546 40.0522 89.4374 40.05 89.42C40.4652 88.4014 41.3369 87.9069 42.209 87.4122C42.9122 87.0132 43.6157 86.6141 44.08 85.94C44.1464 85.9047 44.2113 85.8684 44.2748 85.8311L44.2554 85.8166C44.1994 85.8493 44.1423 85.8813 44.0841 85.9125ZM55.9597 88.0946C55.2426 88.0977 54.5191 88.1008 54 87.4838V84.1347C54.8009 75.421 57.8554 67.6741 64.53 61.34C68.51 57.56 71.7 56.78 75.48 59.27C80.58 62.63 82.29 67.11 80.34 71.99C79.2768 74.6439 77.5155 76.8301 75.7562 79.0137C75.3478 79.5207 74.9395 80.0275 74.54 80.54C75.0815 80.5431 75.5497 80.3401 76 80.0761V80.0837C75.5519 80.3469 75.0869 80.55 74.55 80.55V80.56C69.32 85 63.65 88.4 56.45 88.1C56.2886 88.0932 56.1243 88.0939 55.9597 88.0946Z" fill="white"/>
<path fill-rule="evenodd" clip-rule="evenodd" d="M53.96 33.85C55.74 36.74 55.55 39.63 53.07 41.82C49.3 45.15 44.83 45.86 40.13 43.87C33.97 41.25 32.85 38.79 35.45 33.96C35.5492 33.9822 35.6495 34.0027 35.7507 34.0219C35.6529 34.0027 35.556 33.9821 35.46 33.96C40.47 27.52 47.97 27.47 53.97 33.85H53.96ZM45.4896 36.7964C43.6251 36.7955 41.7087 36.2726 39.71 35C39.5658 34.9088 39.4143 34.8293 39.2568 34.7593C39.411 34.8294 39.5592 34.909 39.7 35C41.7023 36.2749 43.622 36.7973 45.4896 36.7964Z" fill="white"/>
<path fill-rule="evenodd" clip-rule="evenodd" d="M40.05 53.09C45.45 57.56 44.89 61.83 38.58 64.42C32.03 67.11 25.95 64.45 25.02 58.42C24.68 56.19 24.66 53.97 27.96 54.11C28.4877 54.5588 28.985 54.9691 29.4555 55.3408C28.9821 54.9664 28.4814 54.5528 27.95 54.1C30.9287 50.5481 34.2854 51.5056 37.6465 52.4643C38.3134 52.6546 38.9806 52.8449 39.6449 53H40V53.0794L40.05 53.09ZM40.05 53.09L40.06 53.1L40 53.1984V53.1721L40.05 53.09ZM33 57.6068C32.6483 57.462 32.2795 57.2758 31.8899 57.0485C32.2795 57.2755 32.6483 57.4612 33 57.6053V57.6068Z" fill="white"/>
<path d="M72.505 21.5124C75.12 22.7725 75.1192 24.7813 73.79 26.87C71.47 30.53 63.39 30.85 60.86 27.35C59.44 25.39 59.32 23.31 61.81 21.85L62.024 21.952L62.0281 21.9439L61.81 21.84C65.1283 18.493 68.5477 18.457 72.0507 21.1412L72.3143 21.0358L72.505 21.5124Z" fill="white"/>
</svg>
