<svg xmlns="http://www.w3.org/2000/svg" width="32.277" height="50" viewBox="0 0 32.277 50">
  <path id="class_job_035" d="M157.7,77.966a3.2,3.2,0,0,1-.762-.381,3.84,3.84,0,0,0-2.286-.635,7.673,7.673,0,0,0-5.841,2.6,8.757,8.757,0,0,0-2.413,6.158,8.079,8.079,0,0,0,2.1,5.777,9.292,9.292,0,0,0,5.65,2.73,2.167,2.167,0,0,1,1.333.825,1.853,1.853,0,0,1,.317,1.714q-.254,1.9-3.809.889a11.479,11.479,0,0,1-7.11-3.936,12.6,12.6,0,0,1-2.667-8.38,12.444,12.444,0,0,1,1.46-5.841,12.638,12.638,0,0,1,4-4.571l.127-.127a3.909,3.909,0,0,0,1.9-3.3q.381-8.507,1.4-17.9l.127-1.651q.254-2.285.381-2.92.127-1.016.635-1.016.381,0,.635,1.016a26.442,26.442,0,0,1,.254,2.793l.254,1.778q.635,6.857,1.143,14.729a21.613,21.613,0,0,0,.762,3.809,3.482,3.482,0,0,0,1.079,1.968q.571.317,1.841,1.079a8.964,8.964,0,0,0,2.73,1.143q.571,0,.19.635a2.622,2.622,0,0,1-1.4,1.016A2.8,2.8,0,0,1,157.7,77.966Zm-23.617-5.714Q134.46,72,137,73.776l1.27.889a5.586,5.586,0,0,0,1.9.889l.381.127a2.68,2.68,0,0,1,1.46.444q.7.444.317.825a13.08,13.08,0,0,0-2.793,6.6q-.889,6.349,4.063,12.19l.127.127q0,.889-1.46.127a8.844,8.844,0,0,1-2.1-1.4,11.84,11.84,0,0,1-1.4-1.778,1.1,1.1,0,0,0-1.143-.127l-1.27.889q-2.539,1.9-2.92,1.524-.254-.254,1.524-2.793l1.27-1.9a3.382,3.382,0,0,0,.254-1.9,10.033,10.033,0,0,1-.381-1.524q-.254-1.4-1.016-1.651l-2.286-.508a16.522,16.522,0,0,1-2.667-.508Q129,83.934,129,83.553t1.143-.762q.762-.127,2.667-.508l2.413-.508a2.056,2.056,0,0,0,.952-.571,3.346,3.346,0,0,0,.7-1.016q.254-.571.508-1.206l.127-.381a6.12,6.12,0,0,0-.889-2.159l-1.016-1.27Q133.825,72.633,134.079,72.252ZM149.7,85.584a3.951,3.951,0,0,1,1.27-2.984,4.191,4.191,0,0,1,2.984-1.206,4.118,4.118,0,0,1,4.127,4.127,4.191,4.191,0,0,1-1.206,2.984,3.88,3.88,0,0,1-2.921,1.27,4.084,4.084,0,0,1-2.984-1.27A4.015,4.015,0,0,1,149.7,85.584Z" transform="translate(-129 -48)" fill="#fff"/>
</svg>
