<svg xmlns="http://www.w3.org/2000/svg" width="42.49" height="50" viewBox="0 0 42.49 50">
  <path id="sagesvg" d="M379.736,3208.085c-1.6,1.024-6.483,5.451-6.8,8.108,0,.734.034,10.334.034,11.035a2.151,2.151,0,0,1-1.448,2.152,1.852,1.852,0,0,1-.535,0,2.2,2.2,0,0,1-1.415-2.219c0-.7-.034-10.233-.034-10.967-.314-2.656-5.17-7.079-6.77-8.1a1.6,1.6,0,0,1,.135-1.85c2.358-1.186,5.841-3.227,7.307-7.736a1.127,1.127,0,0,1,.943-.511h0a1.163,1.163,0,0,1,1.144.5c1.464,4.51,4.945,6.552,7.3,7.738A1.6,1.6,0,0,1,379.736,3208.085Zm12.354,11.759c-1.44.458-6.109,2.853-6.9,4.83-.151.564-2.252,8.494-2.4,9.032a1.712,1.712,0,0,1-1.558,1.355,1.473,1.473,0,0,1-.411-.11,1.747,1.747,0,0,1-.63-2c.145-.539,2.231-8.417,2.383-8.981.307-2.106-2.515-6.508-3.533-7.625a1.276,1.276,0,0,1,.485-1.395,10.536,10.536,0,0,0,7.214-4.439.9.9,0,0,1,.831-.2h0a.927.927,0,0,1,.775.624,10.533,10.533,0,0,0,4.016,7.454A1.276,1.276,0,0,1,392.09,3219.844Zm-41.7-.021c1.441.457,6.114,2.851,6.9,4.828.152.564,2.254,8.489,2.4,9.027a1.713,1.713,0,0,0,1.559,1.355,1.474,1.474,0,0,0,.412-.11,1.745,1.745,0,0,0,.63-2c-.145-.538-2.233-8.412-2.385-8.976-.307-2.105,2.517-6.5,3.536-7.621a1.273,1.273,0,0,0-.486-1.393,10.551,10.551,0,0,1-7.22-4.437.9.9,0,0,0-.831-.2h0a.926.926,0,0,0-.776.624,10.524,10.524,0,0,1-4.02,7.45,1.274,1.274,0,0,0,.278,1.449Zm27.583,11.316c-1.269.813-5.146,4.326-5.395,6.435,0,.583.027,8.131.027,8.688a1.707,1.707,0,0,1-1.15,1.708,1.473,1.473,0,0,1-.425,0,1.742,1.742,0,0,1-1.123-1.761c0-.556-.027-8.052-.027-8.634-.249-2.108-4.1-5.618-5.374-6.431a1.272,1.272,0,0,1,.107-1.468,13.7,13.7,0,0,0,2.587-1.606l.149-.122a1.3,1.3,0,0,1,1.652-.012,1.121,1.121,0,0,1-.168,1.648c-.291.291-.336.408-.572.673a.534.534,0,0,0,.1.74c.188.221,2.022,1.926,2.153,2.085a2.274,2.274,0,0,0,.335.241s.075.066.388.055c.313.011.388-.055.388-.055a2.276,2.276,0,0,0,.335-.241c.131-.159,1.965-1.865,2.153-2.085a.534.534,0,0,0,.1-.74c-.236-.265-.281-.382-.572-.673a1.121,1.121,0,0,1-.168-1.648,1.322,1.322,0,0,1,1.683.031,13.519,13.519,0,0,0,2.706,1.7A1.273,1.273,0,0,1,377.974,3231.139Z" transform="translate(-349.995 -3197.985)" fill="#fffcff"/>
</svg>
