<svg xmlns="http://www.w3.org/2000/svg" width="63.006" height="50" viewBox="0 0 63.006 50">
  <path id="class_job_021" d="M127.006,128.633a15.148,15.148,0,0,1-.164-2.133,51.612,51.612,0,0,0-.984-5.415,33.082,33.082,0,0,0-2.625-6.727,25.906,25.906,0,0,0-6.235-7.63q-4.1-3.528-5.907-3.035a6.636,6.636,0,0,0-2.133,1.231,4.419,4.419,0,0,0-1.149,2.543l-.328,1.8a10.743,10.743,0,0,1-.82,2.789,9.838,9.838,0,0,1-1.969,2.953,9.075,9.075,0,0,1-3.774,2.461,17.991,17.991,0,0,1-3.774.656H95.5a13.72,13.72,0,0,1-3.61-.164,8.891,8.891,0,0,1-5.415-2.789,10.528,10.528,0,0,1-2.133-3.117,10.743,10.743,0,0,1-.82-2.789l-.328-1.8a4.418,4.418,0,0,0-1.149-2.543,4.9,4.9,0,0,0-2.133-1.066q-1.8-.656-5.907,2.871a25.906,25.906,0,0,0-6.235,7.63,33.081,33.081,0,0,0-2.625,6.727,51.607,51.607,0,0,0-.984,5.415L64,128.633a28.058,28.058,0,0,0,.492,4.758,33.066,33.066,0,0,0,3.2,9.434,26.7,26.7,0,0,0,6.317,7.712q4.1,3.528,6.071,3.035a7.086,7.086,0,0,0,1.969-1.231A4.418,4.418,0,0,0,83.2,149.8l.492-1.8a21.45,21.45,0,0,1,.656-2.789,17.689,17.689,0,0,1,2.133-3.117,9.046,9.046,0,0,1,5.579-2.789,12.694,12.694,0,0,1,3.446-.164,13.338,13.338,0,0,1,3.61.164,8.312,8.312,0,0,1,5.415,2.789,17.689,17.689,0,0,1,2.133,3.117,21.449,21.449,0,0,1,.656,2.789l.492,1.8a4.419,4.419,0,0,0,1.149,2.543,4.9,4.9,0,0,0,2.133,1.066q1.8.656,5.907-2.871a25.906,25.906,0,0,0,6.235-7.63,34.764,34.764,0,0,0,3.282-9.845A24.733,24.733,0,0,0,127.006,128.633ZM117.325,139.3a19.8,19.8,0,0,1-3.938,5.415l-.656-1.641a13.945,13.945,0,0,0-1.8-3.61,12.4,12.4,0,0,0-3.774-3.774,20.706,20.706,0,0,0-5.743-2.461,14.439,14.439,0,0,0-4.266-.656H95.5a15.506,15.506,0,0,0-3.774.164,20.172,20.172,0,0,0-7.712,2.953,12.42,12.42,0,0,0-3.774,3.774,19.037,19.037,0,0,0-1.969,3.61l-.492,1.641-1.477-1.477a24.666,24.666,0,0,1-2.625-3.938,16.292,16.292,0,0,1-1.641-4.922,24.7,24.7,0,0,1-.656-4.1v-1.641q0-1.641.164-3.61a19.1,19.1,0,0,1,2.133-7.055,24.665,24.665,0,0,1,2.625-3.938l1.313-1.477.656,1.641a13.945,13.945,0,0,0,1.8,3.61,12.4,12.4,0,0,0,3.774,3.774,21.665,21.665,0,0,0,8.04,2.953,14.067,14.067,0,0,0,3.61.164,15.156,15.156,0,0,0,3.774-.164,20.243,20.243,0,0,0,7.876-2.953,15.089,15.089,0,0,0,4.922-5.743,12.8,12.8,0,0,0,1.313-3.282l1.313,1.477a24.665,24.665,0,0,1,2.625,3.938,18.884,18.884,0,0,1,2.133,6.891q.164,2.133.164,3.774A21.009,21.009,0,0,1,117.325,139.3Z" transform="translate(-64 -103.633)" fill="#fff"/>
</svg>
